<?xml version="1.0" encoding="utf-8"?>
<!-- Generator: Adobe Illustrator 16.0.0, SVG Export Plug-In . SVG Version: 6.00 Build 0)  -->
<!DOCTYPE svg PUBLIC "-//W3C//DTD SVG 1.1//EN" "http://www.w3.org/Graphics/SVG/1.1/DTD/svg11.dtd">
<svg version="1.1" id="Capa_1" xmlns="http://www.w3.org/2000/svg" xmlns:xlink="http://www.w3.org/1999/xlink" x="0px" y="0px"
	 width="1420px" height="789px" viewBox="0 380.833 1420 789" enable-background="new 0 380.833 1420 789" xml:space="preserve">
<rect id="Rectángulo_79" y="380.833" fill="#FFFFFF" width="1418" height="789"/>
<linearGradient id="SVGID_1_" gradientUnits="userSpaceOnUse" x1="695.6016" y1="946.8623" x2="1343.6476" y2="623.6163">
	<stop  offset="0" style="stop-color:#43045F"/>
	<stop  offset="1" style="stop-color:#15162E"/>
</linearGradient>
<path opacity="0.2" fill="url(#SVGID_1_)" d="M1423,380.833h-2H594.444v61.337v25.021l0.214,238.16
	c0,121.555-12.432,302.924,152.293,336.058L1423,1200.521V380.833z"/>
<linearGradient id="SVGID_2_" gradientUnits="userSpaceOnUse" x1="699.4097" y1="936.2139" x2="1340.319" y2="616.5277">
	<stop  offset="0" style="stop-color:#43045F"/>
	<stop  offset="1" style="stop-color:#15162E"/>
</linearGradient>
<path fill="url(#SVGID_2_)" d="M594.444,380.833v33.574v25.408l0.214,241.848c0,123.437-12.432,307.614,152.293,341.261
	L1421,1184.021V380.833H594.444z"/>
<g id="vector" transform="translate(464.092 43.175)">
	<g id="Capa_30" transform="translate(139.039 123.825)">
		<path id="Trazado_42" fill="#20B099" d="M562.785,655.239c-0.027,99.242-63.819,187.232-158.134,218.117
			c-0.046,0.01-0.09,0.025-0.132,0.044c-22.977,7.456-46.982,11.25-71.139,11.242c-2.308,0-4.604-0.036-6.891-0.109
			c-72.043-2.198-138.876-38.088-180.5-96.932c-2.341-3.308-4.598-6.686-6.77-10.134c-16.332-25.853-27.29-54.729-32.223-84.908
			c9.968,13.936,23.134,28.5,35.5,30.167c0,0,10.462-5.384,23.991-16.699l0.571-0.474l0.241-0.208c0.105-0.105,0.215-0.206,0.33-0.3
			c2.474-2.2,7.748-6.946,11.979-11.166c0.33-0.341,0.67-0.681,0.989-1.011c1.055-1.088,2.088-2.132,3.076-3.144
			c0.495-0.492,0.989-1,1.463-1.483c0.473-0.484,0.956-0.967,1.429-1.431c0.593-0.6,1.187-1.199,1.758-1.768
			c11.9-11.924,19.21-18.463,30.167-27.848c0.001-0.009,0.005-0.017,0.011-0.022c0.042-0.027,0.079-0.061,0.11-0.1
			c0.026-0.036,0.056-0.069,0.088-0.101c0.7-0.779,3.011-2.627,5.967-4.978c0.22-0.188,0.44-0.363,0.67-0.549
			c8.474-7.045,17.529-14.563,18.563-18.088c0.031-0.102,0.054-0.204,0.065-0.31c0.058-0.353-0.021-0.714-0.22-1.011
			c-0.011-0.024-0.025-0.047-0.044-0.066l-0.064-0.034c-0.027-0.014-0.053-0.027-0.077-0.044l-0.11-0.045l-0.2-0.088l-1.429-0.614
			c-0.4-0.154-0.857-0.33-1.363-0.518c0,0-0.011,0-0.044-0.021c-0.11-0.023-0.418-0.122-0.879-0.275
			c-1.55-0.5-4.792-1.5-7.286-2.067c-0.017-0.01-0.036-0.014-0.055-0.011c-0.231-0.055-0.462-0.109-0.7-0.155
			c-0.286-0.065-0.56-0.119-0.813-0.164c-5.062-0.988-10.225-1.357-15.375-1.1c-0.012-0.001-0.023-0.005-0.033-0.011
			c-0.286-0.088-2.484-0.573-4.836,3.967c-1.407,2.691-2.868,7.175-4.012,14.584c0,0-22.167,10.4-32.508,10.671
			c0,0-5.407,1.474-9.166-2.561c0,0-20.419-19.97-31.047-58.983c0,0-6.274,1.418-5.857-4.891l12.177,0.868
			c6.164,2.982,13.28,3.312,19.693,0.911c0,0,4.945-0.132,5.363-0.967l-6.55,0.056l6.594-1.562l0.363-2.879
			c0,0,12.913,1.78,14.836-1.659l-0.429-11.99c-3.824,1.319-10.078,2.275-19.815,0.868c0,0,16.122-7.056,15.485-13.1
			c0,0-6.506,9.166-20.881,5.682c5.884-6.153,8.107-14.943,5.857-23.154c-4.308-13.377-14.979-15.4-14.979-15.4
			s-0.275-1.055-0.615-2.935c17.688-25.403,40.308-46.987,66.511-63.467c107.429-67.316,249.089-34.8,316.405,72.63
			c4.795,7.651,9.134,15.579,12.995,23.742v0.022C555.347,587.901,562.836,621.363,562.785,655.239z"/>
	</g>
	<g id="Audifonos" transform="translate(130.649 164.454)">
		<path id="Trazado_43" fill="#FFFFFF" d="M151.54,425.833l22.308,0.725l8.719,63.856l-6.492,35.94l-15.761,9.57l-43.563-2.429
			L107,499.239l3.822-32.035l17.281-34.992L151.54,425.833z"/>
	</g>
	<g id="Capa_31" transform="translate(123.333 275.107)">
		<path id="Trazado_44" fill="#3E235A" d="M170.544,522.27c0,0-0.769,0.3-2.109,0.879c-3.894,1.696-7.679,3.634-11.331,5.801
			l-23.079-36.08c0,0,2.813-14.431-8.936-38.652c-5.001-10.079-11.064-19.595-18.089-28.384c2.291,1.041,4.714,1.766,7.2,2.153
			c4.357,7.009,8.344,14.241,11.944,21.666c1.691,3.44,3.439,7.188,5.187,11.222c0,0,4.8,14,5.627,27.738
			c0,0,0.341,4.881,3.572,2.133c0,0,2.6-2.747,2.956-12.364c0,0,0.527-24.606-3.418-37.794l1.647-0.101
			c0,0,4.165,15.301,5.133,25.465c0,0,0.132,18.99-0.824,25.639c-0.313,2.408-0.427,4.837-0.341,7.264L170.544,522.27z"/>
	</g>
	<g id="Capa_5" transform="translate(130.531 258.16)">
		<path id="Trazado_45" fill="#F6AB8B" d="M188.831,450.055c-1.923,3.44-14.836,1.66-14.836,1.66l-0.363,2.879l-6.594,1.562
			l6.55-0.056c-0.418,0.836-5.363,0.968-5.363,0.968c-6.413,2.4-13.529,2.07-19.693-0.912l-7.66-0.549l-4.518-0.319
			c0,0-1.791,0.791-1.835,2.143l-1.647,0.101c3.945,13.188,3.418,37.794,3.418,37.794c-0.352,9.616-2.956,12.364-2.956,12.364
			c-3.231,2.747-3.572-2.133-3.572-2.133c-0.823-13.736-5.627-27.738-5.627-27.738c-1.747-4.033-3.495-7.781-5.187-11.222
			c-3.602-7.424-7.589-14.654-11.946-21.66c0.549,0.076,1.1,0.143,1.67,0.187h0.011c6.319,0.462,13.748-1.769,19.54-11.693
			c0.418,0.265,0.824,0.518,1.231,0.747c14.342,8.474,24.222,4.9,29.431,1.301c1.628-1.094,3.08-2.428,4.309-3.956
			c6.109,1.483,10.8,0.681,14.166-0.736c2.624-1.046,4.937-2.749,6.715-4.945c0.637,6.044-15.485,13.101-15.485,13.101
			c9.737,1.406,15.99,0.45,19.815-0.868L188.831,450.055z"/>
		<path id="Trazado_46" fill="#F6AB8B" d="M209.965,513.257l-42.245,18.815c-6.5-9.88-19.814-33.894-25.508-71.9
			c10.627,39.014,31.047,58.983,31.047,58.983c3.759,4.033,9.166,2.561,9.166,2.561C189.699,521.522,202.81,516.335,209.965,513.257
			z"/>
	</g>
	<g id="Capa_41" transform="translate(189.91 343.376)">
		<path id="Trazado_47" fill="#F49F85" d="M155.554,425.833c-0.001,0.034-0.005,0.067-0.011,0.101
			c-0.347,2.136-0.82,4.25-1.418,6.33c-0.021,0.076-0.055,0.165-0.077,0.253c-0.918,2.925-2.004,5.794-3.253,8.594l-0.044,0.088
			c0,0.011-0.011,0.011-0.011,0.021l-0.1,0.133c-0.03,0.043-0.064,0.083-0.101,0.121c-0.037,0.05-0.077,0.098-0.121,0.143
			c-1.581,1.612-3.473,2.888-5.561,3.748c-0.022,0.011-0.056,0.021-0.077,0.033c-0.242,0.1-0.495,0.209-0.747,0.318l-0.066,0.033
			c-0.109,0.044-0.22,0.088-0.318,0.132c-0.209,0.088-0.407,0.154-0.594,0.231c-0.021,0-0.032,0.011-0.044,0.011
			c-0.153,0.055-0.3,0.11-0.429,0.154c-0.144,0.059-0.291,0.11-0.44,0.153c-0.065,0.022-0.12,0.045-0.164,0.056l-0.301,0.1
			c0,0-0.076,0.011-0.209,0.033c-0.066,0.011-0.144,0.021-0.23,0.033c-0.121,0.021-0.264,0.044-0.43,0.065
			c-0.176,0.022-0.352,0.044-0.517,0.077c-0.088,0.011-0.187,0.033-0.286,0.044c-0.385,0.056-0.813,0.121-1.308,0.2
			c-5.715,0.824-11.067,1.78-15.782,2.715c-0.286,0.055-0.583,0.11-0.89,0.165c-3.363,0.637-6.825,1.341-10.034,2.055
			c-1.305-1.641-2.526-3.346-3.66-5.109l42.245-18.815l0.912-0.399l0.582-0.253l1.055-0.474l0.89-0.399
			c0.2-0.088,0.374-0.165,0.539-0.242l0.43-0.2l0.176-0.077l0.242-0.109L155.554,425.833z"/>
		<path id="Trazado_48" fill="none" stroke="#F8C995" stroke-width="0.25" stroke-miterlimit="10" d="M112,451.967
			c3.209-0.714,6.671-1.418,10.034-2.055c-4.989,0.989-9.221,1.935-12.331,2.671c-1.022,0.242-1.912,0.451-2.682,0.637l-0.022-0.055
			c0.846-0.209,1.726-0.429,2.627-0.647C110.396,452.33,111.187,452.154,112,451.967z"/>
		<path id="Trazado_49" fill="none" stroke="#F8C995" stroke-width="0.25" stroke-miterlimit="10" d="M122.924,449.743
			c4.715-0.934,10.067-1.89,15.782-2.714C135.277,447.583,129.284,448.561,122.924,449.743z"/>
		<path id="Trazado_50" fill="none" stroke="#F8C995" stroke-width="0.25" stroke-miterlimit="10" d="M150.421,441.615
			c-1.547,1.653-3.448,2.935-5.561,3.748C146.948,444.503,148.84,443.227,150.421,441.615z"/>
		<path id="Trazado_51" fill="none" stroke="#F8C995" stroke-width="0.25" stroke-miterlimit="10" d="M150.795,441.109
			c1.249-2.8,2.335-5.669,3.253-8.594C153.206,435.466,152.117,438.341,150.795,441.109z"/>
		<path id="Trazado_52" fill="none" stroke="#F8C995" stroke-width="0.25" stroke-miterlimit="10" d="M155.543,425.932
			c-0.271,2.149-0.745,4.27-1.418,6.33C154.723,430.182,155.196,428.068,155.543,425.932z"/>
	</g>
	<g id="Capa_38" transform="translate(158.05 287.613)">
		<path id="Trazado_53" fill="#F49F85" d="M143.86,507.729c-0.813,0.188-1.6,0.363-2.374,0.55c-0.899,0.22-1.78,0.439-2.627,0.647
			c-0.758,0.2-1.483,0.4-2.176,0.601c-0.068,0.021-0.139,0.04-0.209,0.055c-0.054,0.02-0.108,0.034-0.165,0.044
			c-0.121,0.033-0.209,0.055-0.286,0.077c-0.077,0.021-0.132,0.033-0.2,0.055l-24.855-23.415c-0.086-2.427,0.028-4.856,0.341-7.264
			c0.956-6.649,0.824-25.64,0.824-25.64c-0.968-10.167-5.132-25.467-5.132-25.467c0.043-1.352,1.834-2.143,1.834-2.143
			c-0.418,6.308,5.858,4.891,5.858,4.891c5.693,38,19.013,62.017,25.508,71.9C141.335,504.384,142.555,506.089,143.86,507.729z"/>
	</g>
	<g id="Capa_37" transform="translate(175.723 142.28)">
		<path id="Trazado_54" fill="#1E6CAF" d="M145.421,552.625c-1.797,0.008-3.261-1.442-3.269-3.239
			c-0.007-1.482,0.989-2.782,2.422-3.161c-0.274-0.153-0.52-0.354-0.725-0.593c-0.492,1.393-1.69,2.415-3.143,2.682
			c1.562,0.884,2.111,2.866,1.228,4.428c-0.884,1.563-2.866,2.112-4.428,1.229c-0.464-0.263-0.855-0.635-1.142-1.084
			c-0.467,1.736-2.254,2.766-3.99,2.298c-1.425-0.384-2.414-1.679-2.409-3.154c-0.002-0.229,0.023-0.458,0.077-0.682
			c-2.149,1.279-4.369,2.436-6.649,3.462c9.737,1.407,15.99,0.451,19.815-0.867c1.149-0.385,2.256-0.89,3.3-1.507
			C146.16,552.561,145.791,552.625,145.421,552.625z M207.658,511.533c0.418-19.089-18.958-17.441-18.958-17.441
			c6.451-7.692,6.595-19.507,6.595-19.507c0.023-0.737,0.001-1.475-0.066-2.209c-0.12-1.423-0.453-2.819-0.989-4.143
			c-1.334-3.113-3.824-5.587-6.945-6.9c-1.192-0.545-2.437-0.965-3.716-1.253c-0.879-0.214-1.771-0.368-2.671-0.462
			c-0.462-0.044-0.725-0.056-0.725-0.056c-0.1-0.899-0.22-1.769-0.363-2.627c-0.435-2.642-1.097-5.241-1.978-7.77
			c-0.498-1.414-1.07-2.801-1.714-4.154c-0.429-0.901-0.88-1.759-1.353-2.572c-0.132-0.23-0.264-0.45-0.399-0.67
			c-0.606-1.013-1.267-1.992-1.979-2.934c-6.759-9.177-10.594-10.781-15.3-12.056c-2.045-0.506-4.137-0.797-6.242-0.868
			c-1.229-0.086-2.462-0.101-3.693-0.044c-2.544,0.09-5.065,0.516-7.5,1.264c-15.616,4.814-19.936,21.441-19.936,21.441
			c-15.946,22.551-13.023,48.699-11.473,57.334c0.341,1.879,0.614,2.934,0.614,2.934s10.671,2.022,14.979,15.4
			c2.25,8.212,0.026,17.002-5.858,23.155c6.11,1.484,10.8,0.682,14.166-0.735c1.288-0.534,2.509-1.217,3.639-2.033v-0.012
			c-0.012-0.132-0.022-0.253-0.022-0.386c-0.005-2.072,1.52-3.831,3.572-4.12c-0.842-0.782-0.892-2.098-0.109-2.94
			c0.781-0.842,2.098-0.891,2.939-0.109c0.426,0.396,0.667,0.951,0.665,1.532c0.001,0.792-0.452,1.514-1.165,1.857
			c0.91,0.417,1.637,1.151,2.044,2.065c0.434-0.622,1.123-1.017,1.879-1.077c-1.493-0.527-2.276-2.166-1.748-3.659
			c0.403-1.143,1.481-1.908,2.693-1.912c1.358,0.005,2.529,0.957,2.813,2.286c0.163-1.019,0.872-1.863,1.846-2.2
			c-1.038-0.532-1.76-1.529-1.941-2.683c0.031-0.137,0.046-0.277,0.044-0.418c0.002-0.186-0.023-0.37-0.077-0.549v-0.021
			c0.216-2.022,2.03-3.486,4.052-3.271c1.49,0.159,2.734,1.204,3.148,2.645c0.59-1.588,2.354-2.397,3.942-1.808
			c1.13,0.419,1.91,1.462,1.992,2.664c0.576-1.701,2.423-2.613,4.124-2.036c0.845,0.286,1.535,0.907,1.909,1.718
			c0.631-1.637,2.469-2.451,4.104-1.821c1.084,0.418,1.854,1.395,2.006,2.546h0.065c0.11-1.788,1.647-3.148,3.436-3.038
			c1.493,0.091,2.729,1.191,2.994,2.664c0.22-0.558,0.598-1.039,1.088-1.385c-0.947-0.588-1.525-1.622-1.528-2.737
			c0.004-1.768,1.439-3.197,3.207-3.193s3.196,1.439,3.193,3.207c-0.003,1.062-0.531,2.053-1.411,2.646
			c0.715,0.451,1.208,1.18,1.362,2.011c0.525-1.066,1.556-1.794,2.736-1.934c-1.511-0.237-2.544-1.653-2.307-3.164
			c0.236-1.511,1.653-2.544,3.164-2.308s2.543,1.653,2.307,3.164c-0.186,1.188-1.118,2.121-2.307,2.308
			c1.926,0.235,3.297,1.987,3.062,3.914c-0.114,0.936-0.601,1.786-1.348,2.36c1.188,0.52,2.077,1.549,2.418,2.801
			c0.388-0.387,0.914-0.603,1.462-0.601c0.313-0.001,0.622,0.074,0.9,0.22c0.012-0.001,0.023,0.003,0.032,0.012h0.012
			c0.317,0.155,0.59,0.39,0.791,0.681c0.065,0.097,0.12,0.2,0.165,0.308c0.019,0.031,0.033,0.065,0.044,0.101
			c0.092,0.242,0.141,0.499,0.143,0.758v0.011c0.006,0.563-0.126,1.117-0.385,1.616c0.816-0.675,1.566-1.426,2.242-2.242
			c-2.835,7.671-9.693,6.309-10.518,13.529c-0.824,7.242,5.771,5.044,5.771,5.044c1.835-0.1,1.923,2.835,1.923,2.835
			c1.011,0,0.824-1.286,0.824-1.286c-0.3-1.879-1.944-3.247-3.847-3.2c-5.308,0-3.209-3.483-3.209-3.483
			c0.824-2.66,7.792-8.242,7.792-8.242c9.616-9.155,2.562-17.31,2.562-17.31C206.69,521.159,207.658,511.533,207.658,511.533z
			 M136.498,546.558c-0.83,0.826-1.72,1.59-2.66,2.286c0.878,0.167,1.647,0.693,2.121,1.451c0.301-1.103,1.154-1.969,2.253-2.286
			C137.512,547.701,136.916,547.197,136.498,546.558L136.498,546.558z"/>
	</g>
	<g id="Capa_32" transform="translate(175.721 143.579)">
		<path id="Trazado_55" fill="#214E70" d="M134.541,532.688c0.197,0,0.394-0.03,0.581-0.089c-0.043,0.868-0.132,1.747-0.253,2.639
			c-0.108-0.022-0.219-0.033-0.329-0.033c-1.148,0.002-2.078,0.935-2.075,2.083c0.002,0.976,0.682,1.818,1.635,2.027
			c-0.495,2.06-1.142,4.079-1.934,6.044c-3.705,1.501-7.759,1.925-11.693,1.22c-0.832-0.118-1.658-0.279-2.473-0.484
			c0.682-0.665,1.304-1.389,1.859-2.162c0.698-0.939,1.33-1.927,1.891-2.955c0.648-1.2,1.199-2.449,1.647-3.737
			c1.355-4.004,1.65-8.29,0.857-12.441v-0.011c-0.11-0.604-0.244-1.22-0.4-1.846c-0.154-0.474-0.319-0.945-0.484-1.386
			c-0.488-1.309-1.079-2.576-1.769-3.792c-0.533-0.948-1.131-1.859-1.791-2.725c-2.677-3.681-6.537-6.329-10.935-7.5
			c0,0-0.275-1.055-0.615-2.934c-1.297-7.463-1.6-15.064-0.9-22.606c0.165-1.9,0.418-3.856,0.747-5.858
			c0.495-2.983,1.17-5.934,2.022-8.836c0.483-1.67,1.044-3.362,1.681-5.055c1.005-2.67,2.18-5.272,3.517-7.792
			c0.9-1.714,1.891-3.418,2.989-5.1h0.011c0.44-0.7,0.912-1.4,1.407-2.088c0,0,4.319-16.628,19.937-21.441
			c-2.188,2.22-10.078,12-15.848,42.113c-0.905,0.428-1.483,1.339-1.483,2.341c-0.005,0.672,0.261,1.316,0.735,1.791
			c-0.505,2.912-0.988,6-1.45,9.264c-0.193-0.054-0.394-0.08-0.594-0.077c-1.305-0.006-2.367,1.047-2.374,2.353
			c-0.006,1.305,1.047,2.368,2.353,2.374c-0.601,4.792-1.154,9.946-1.627,15.5c3.674,2.606,6.864,5.835,9.429,9.539
			c-0.306,0.227-0.485,0.586-0.484,0.967c-0.001,0.672,0.542,1.219,1.215,1.22c0.002,0,0.004,0,0.006,0
			c0.209,0.003,0.415-0.055,0.593-0.165c1.724,2.814,3.037,5.86,3.9,9.045c-1.03,0.502-1.458,1.742-0.957,2.771
			c0.331,0.679,1.003,1.124,1.757,1.163c0.121,0.835,0.209,1.7,0.264,2.583c-0.185-0.058-0.377-0.088-0.571-0.088
			c-1.149,0.025-2.062,0.978-2.036,2.128c0.024,1.114,0.922,2.012,2.036,2.037H134.541z"/>
	</g>
	<g id="Capa_3" transform="translate(95.523 136.381)">
		<path id="Trazado_56" fill="#1B74AE" d="M188.834,452.945l-0.101,0.132c-0.088,0.101-0.165,0.2-0.241,0.3
			c-0.022,0.033-0.044,0.056-0.066,0.088c-0.088,0.11-0.176,0.231-0.286,0.363c-0.033,0.051-0.069,0.099-0.109,0.144
			c-0.121,0.153-0.242,0.308-0.353,0.462c-1.125,1.424-2.152,2.922-3.077,4.483c-0.058,0.077-0.109,0.157-0.153,0.242
			c-6.551,10.145-17.914,31.673-16.122,56.601c-6.372,3.884-10.891,10.191-12.519,17.474c-1.107,8.084,1.639,16.221,7.418,21.979
			c-5.792,9.925-13.221,12.155-19.54,11.693h-0.011c-0.571-0.044-1.121-0.11-1.67-0.187c-2.486-0.389-4.909-1.113-7.2-2.154
			c0,0-0.286-0.132-0.758-0.363c-0.231-0.109-0.506-0.253-0.813-0.418c-0.67-0.341-1.494-0.8-2.352-1.341
			c-0.07-0.052-0.145-0.1-0.22-0.143c-0.056-0.033-0.101-0.066-0.121-0.077c0-0.007-0.005-0.012-0.011-0.012l-0.55-2.473
			c-17.858-7.143-10.166-21.287-10.166-21.287c-4.527-0.691-6.868-6.318-6.868-6.318c-3.022-17.31,8.3-24.87,8.3-24.87
			c-20.955-11.117-13.846-32.25-9.405-41.48c0.728-1.543,1.543-3.044,2.44-4.495c10.792-15.342,21.1-16.639,25.178-16.44
			c0.464,0.014,0.927,0.058,1.385,0.132c0.061,0.02,0.123,0.031,0.188,0.033l0.011,0.011c0.033,0,0.065,0.011,0.1,0.011
			c0.11,0.033,0.165,0.044,0.165,0.044v-0.011c5.144-9.473,10.759-14.342,15.529-16.8c0.253-0.132,0.495-0.253,0.735-0.363
			c0.265-0.132,0.539-0.253,0.791-0.363c0.451-0.187,0.891-0.362,1.319-0.517l0.561-0.2c0.12-0.033,0.241-0.065,0.362-0.11
			c0.484-0.143,0.945-0.264,1.386-0.374c0.088-0.021,0.165-0.032,0.253-0.055c0.494-0.121,0.967-0.2,1.418-0.264l0.495-0.066
			c0.3-0.033,0.581-0.055,0.846-0.077c0.187-0.021,0.363-0.021,0.528-0.032c0.922-0.046,1.847,0.009,2.758,0.165
			c0.01,0.006,0.021,0.009,0.033,0.011h0.021c0.286,0.088,0.561,0.165,0.835,0.264c0.275,0.1,0.56,0.176,0.824,0.265
			c0.769,0.264,1.506,0.527,2.209,0.8c0.561,0.22,1.1,0.45,1.616,0.691c0.153,0.077,0.308,0.144,0.462,0.221
			C192.165,436.658,188.834,452.945,188.834,452.945z"/>
	</g>
	<g id="Capa_4" transform="translate(108.332 144.271)">
		<circle id="Elipse_101" fill="#293785" cx="127.688" cy="531.182" r="1.607"/>
		<circle id="Elipse_102" fill="#293785" cx="127.325" cy="537.532" r="1.619"/>
		<circle id="Elipse_103" fill="#444058" cx="126.811" cy="543.895" r="1.619"/>
		<circle id="Elipse_104" fill="#444058" cx="126.811" cy="549.639" r="1.619"/>
		<circle id="Elipse_105" fill="#293785" cx="120.486" cy="549.639" r="1.619"/>
		<circle id="Elipse_106" fill="#293785" cx="120.817" cy="543.525" r="1.619"/>
		<circle id="Elipse_107" fill="#293785" cx="121.186" cy="537.097" r="1.619"/>
		<circle id="Elipse_108" fill="#293785" cx="121.495" cy="530.878" r="1.397"/>
		<circle id="Elipse_109" fill="#293785" cx="115.306" cy="530.878" r="1.397"/>
		<circle id="Elipse_110" fill="#293785" cx="114.746" cy="536.876" r="1.397"/>
		<circle id="Elipse_111" fill="#293785" cx="114.746" cy="542.818" r="1.397"/>
		<path id="Trazado_57" fill="#293785" d="M115.68,549.856c0.001,0.428-0.192,0.833-0.526,1.101
			c-0.771-0.372-1.523-0.783-2.254-1.231c0.071-0.766,0.75-1.329,1.516-1.258C115.134,548.533,115.681,549.137,115.68,549.856
			L115.68,549.856z"/>
		<circle id="Elipse_112" fill="#293785" cx="108.397" cy="542.818" r="1.397"/>
		<circle id="Elipse_113" fill="#293785" cx="109.106" cy="536.876" r="1.397"/>
		<circle id="Elipse_114" fill="#293785" cx="109.106" cy="529.784" r="0.985"/>
		<circle id="Elipse_115" fill="#293785" cx="109.382" cy="523.824" r="0.985"/>
		<circle id="Elipse_116" fill="#293785" cx="115.683" cy="524.249" r="1.351"/>
		<circle id="Elipse_117" fill="#293785" cx="127.943" cy="525.175" r="1.672"/>
		<circle id="Elipse_118" fill="#293785" cx="121.873" cy="524.511" r="1.239"/>
		<circle id="Elipse_119" fill="#293785" cx="128.049" cy="519.425" r="1.267"/>
		<circle id="Elipse_120" fill="#293785" cx="133.638" cy="531.456" r="1.992"/>
		<circle id="Elipse_121" fill="#444058" cx="133.404" cy="537.716" r="1.992"/>
		<circle id="Elipse_122" fill="#444058" cx="132.809" cy="544.269" r="2.267"/>
		<circle id="Elipse_123" fill="#444058" cx="132.234" cy="550.128" r="2.895"/>
		<path id="Trazado_58" fill="#444058" d="M141.771,556.537c-1.895,1.136-3.986,1.903-6.165,2.264
			c-0.997-1.565-0.536-3.643,1.028-4.639c0.405-0.258,0.86-0.426,1.336-0.493c0.206,0.035,0.416,0.054,0.626,0.055
			c0.158,0.002,0.317-0.013,0.473-0.044C140.491,553.951,141.58,555.102,141.771,556.537z"/>
		<path id="Trazado_59" fill="#444058" d="M134.91,556.395c0.006,1.48-1.19,2.686-2.671,2.691c-1.48,0.005-2.686-1.19-2.691-2.671
			c-0.005-1.481,1.19-2.686,2.671-2.691c0.004,0,0.008,0,0.012,0C133.707,553.723,134.906,554.918,134.91,556.395z"/>
		<path id="Trazado_60" fill="#444058" d="M139.068,553.68c-0.156,0.031-0.314,0.046-0.473,0.044c-0.21-0.001-0.42-0.02-0.627-0.055
			c0.156-0.031,0.314-0.047,0.474-0.044C138.652,553.626,138.861,553.645,139.068,553.68z"/>
		<path id="Trazado_61" fill="#444058" d="M150.422,547.317c-1.78,3.212-4.209,6.019-7.132,8.242
			c-0.953-0.935-1.488-2.215-1.483-3.55c0.001-0.328,0.03-0.655,0.088-0.979c-0.282,1.395-1.415,2.457-2.824,2.649
			c-0.207-0.035-0.416-0.054-0.626-0.055c-0.159-0.003-0.317,0.013-0.473,0.044c-1.826-0.346-3.025-2.106-2.68-3.932
			c0.231-1.222,1.118-2.216,2.306-2.586c-1.263-0.961-1.506-2.764-0.544-4.026c0.409-0.537,0.994-0.913,1.653-1.062
			c-1.817-0.492-2.892-2.364-2.399-4.182c0.36-1.329,1.484-2.312,2.851-2.489c0.344,0.133,0.708,0.201,1.076,0.2
			c0.154,0,0.309-0.011,0.462-0.033h0.012c1.778,0.604,2.73,2.535,2.126,4.313c-0.402,1.184-1.421,2.051-2.653,2.259
			c1.14,0.366,1.935,1.398,2,2.594c-0.005-2.038,1.23-3.875,3.12-4.638C146.551,542.791,148.286,545.241,150.422,547.317z"/>
		<path id="Trazado_62" fill="#444058" d="M140.694,535.558c-0.153,0.022-0.308,0.033-0.462,0.033
			c-0.368,0.001-0.733-0.067-1.076-0.2c0.145-0.021,0.291-0.033,0.438-0.033C139.97,535.357,140.343,535.425,140.694,535.558z"/>
		<path id="Trazado_63" fill="#444058" d="M143.178,533.447c-0.363,1.112-1.318,1.928-2.474,2.11h-0.009
			c-0.153,0.022-0.308,0.033-0.462,0.033c-0.368,0.001-0.733-0.067-1.076-0.2c-1.598-0.595-2.41-2.371-1.816-3.969
			c0.595-1.597,2.371-2.41,3.969-1.815c0.638,0.237,1.18,0.679,1.541,1.256c0.012,0,0.012,0,0,0.012
			C142.912,531.737,143.02,532.596,143.178,533.447z"/>
		<path id="Trazado_64" fill="#444058" d="M143.09,524.876c-0.066,0.3-0.088,0.462-0.088,0.462c-0.066,0.549-0.121,1.1-0.165,1.638
			c-0.72,1.098-2.194,1.403-3.291,0.683c-1.098-0.721-1.403-2.194-0.683-3.292c0.721-1.097,2.194-1.402,3.292-0.682
			C142.588,523.969,142.917,524.387,143.09,524.876L143.09,524.876z"/>
		<path id="Trazado_65" fill="#323473" d="M216.692,530.863c0.002,0.141-0.013,0.281-0.044,0.418
			c-0.229,1.299-1.468,2.167-2.767,1.938c-1.299-0.229-2.166-1.468-1.938-2.767c0.229-1.299,1.468-2.166,2.767-1.938
			c0.93,0.164,1.676,0.86,1.903,1.777v0.021C216.668,530.491,216.694,530.677,216.692,530.863z"/>
		<circle id="Elipse_124" fill="#323473" cx="213.989" cy="524.336" r="2.08"/>
		<circle id="Elipse_125" fill="#323473" cx="214.402" cy="518.306" r="2.08"/>
		<circle id="Elipse_126" fill="#293785" cx="214.861" cy="512.075" r="1.736"/>
		<circle id="Elipse_127" fill="#293785" cx="214.862" cy="506.118" r="1.565"/>
		<circle id="Elipse_128" fill="#293785" cx="214.918" cy="499.829" r="1.565"/>
		<circle id="Elipse_129" fill="#293785" cx="214.918" cy="493.167" r="1.221"/>
		<path id="Trazado_66" fill="#43405F" d="M214.142,539.599c-0.066,0.01-0.134,0.013-0.2,0.011
			c-0.322,0.002-0.643-0.054-0.945-0.165c0.073-0.009,0.146-0.013,0.22-0.011C213.533,539.432,213.846,539.488,214.142,539.599z"/>
		<path id="Trazado_67" fill="#43405F" d="M214.142,539.599c-0.066,0.01-0.134,0.013-0.2,0.011
			c-0.322,0.002-0.643-0.054-0.945-0.165c0.073-0.009,0.146-0.013,0.22-0.011C213.533,539.432,213.846,539.488,214.142,539.599z"/>
		<path id="Trazado_68" fill="#444058" d="M203.194,542.624v0.011c0.107-0.074,0.21-0.155,0.308-0.242
			C203.407,542.48,203.304,542.557,203.194,542.624z M199.084,548.323c-0.23,0.154-0.462,0.309-0.691,0.451
			c0.23-0.143,0.462-0.3,0.699-0.439c0.056-0.044,0.11-0.077,0.177-0.121c-0.058,0.037-0.119,0.081-0.186,0.114L199.084,548.323z
			 M213.909,550.445c0.566-0.203,1.065-0.562,1.44-1.032c-0.449,0.387-0.93,0.733-1.438,1.036L213.909,550.445z"/>
		<circle id="Elipse_130" fill="#323473" cx="208.163" cy="530.38" r="2.08"/>
		<circle id="Elipse_131" fill="#323473" cx="208.576" cy="524.35" r="2.08"/>
		<circle id="Elipse_132" fill="#323473" cx="208.576" cy="518.118" r="1.736"/>
		<circle id="Elipse_133" fill="#373C7C" cx="208.577" cy="512.161" r="1.565"/>
		<circle id="Elipse_134" fill="#293785" cx="209.55" cy="505.873" r="1.565"/>
		<circle id="Elipse_135" fill="#194D90" cx="209.091" cy="499.21" r="1.221"/>
		<circle id="Elipse_136" fill="#293785" cx="209.09" cy="493.418" r="0.771"/>
		<path id="Trazado_69" fill="#323473" d="M204.007,536.59c0.006,1.147-0.92,2.082-2.067,2.088c-0.003,0-0.006,0-0.009,0
			c-0.149,0.004-0.298-0.015-0.44-0.055c0.339-1.343,0.596-2.704,0.769-4.077C203.267,534.7,204.011,535.57,204.007,536.59z"/>
		<path id="Trazado_70" fill="#252D60" d="M202.26,534.546c-0.173,1.373-0.43,2.734-0.769,4.077
			c-1.122-0.246-1.832-1.354-1.587-2.476c0.209-0.953,1.052-1.633,2.027-1.635C202.042,534.513,202.152,534.524,202.26,534.546z"/>
		<path id="Trazado_71" fill="#323473" d="M204.007,529.919c0.005,0.921-0.607,1.73-1.494,1.978
			c0.073-1.325,0.069-2.653-0.012-3.978C203.397,528.168,204.015,528.989,204.007,529.919z"/>
		<path id="Trazado_72" fill="#252D60" d="M202.513,531.897v0.011c-0.188,0.059-0.385,0.089-0.582,0.089
			c-1.15-0.025-2.063-0.979-2.037-2.129c0.024-1.114,0.922-2.012,2.037-2.036c0.193,0,0.386,0.03,0.57,0.088
			C202.583,529.243,202.587,530.572,202.513,531.897z"/>
		<path id="Trazado_73" fill="#323473" d="M204.424,523.26c0.002,1.149-0.927,2.084-2.076,2.088
			c-0.037,0.002-0.074-0.002-0.11-0.011c-0.182-1.327-0.449-2.642-0.8-3.935c0.281-0.146,0.595-0.221,0.912-0.22
			C203.494,521.187,204.422,522.115,204.424,523.26z"/>
		<path id="Trazado_74" fill="#252D60" d="M202.237,525.336c-1.144-0.06-2.022-1.034-1.963-2.178
			c0.039-0.754,0.484-1.426,1.163-1.757C201.788,522.695,202.055,524.009,202.237,525.336z"/>
		<circle id="Elipse_137" fill="#323473" cx="202.346" cy="517.75" r="1.736"/>
		<circle id="Elipse_138" fill="#293785" cx="203.319" cy="510.597" r="1.565"/>
		<circle id="Elipse_139" fill="#252D60" cx="194.229" cy="543.121" r="2.08"/>
		<circle id="Elipse_140" fill="#252D60" cx="195.553" cy="536.595" r="1.668"/>
		<path id="Trazado_75" fill="#252D60" d="M188.291,544.789c0.003,0.407-0.15,0.801-0.429,1.1c-0.832-0.117-1.658-0.279-2.473-0.484
			c0.681-0.666,1.302-1.391,1.856-2.165C187.878,543.494,188.291,544.108,188.291,544.789z"/>
		<circle id="Elipse_141" fill="#252D60" cx="195.965" cy="529.266" r="2.08"/>
		<path id="Trazado_76" fill="#252D60" d="M191.679,538.26c0.001,1.146-0.928,2.076-2.073,2.077c-0.002,0-0.003,0-0.004,0
			c-0.156-0.002-0.311-0.02-0.462-0.056c0.648-1.199,1.199-2.448,1.647-3.736C191.346,536.937,191.679,537.577,191.679,538.26z"/>
		<circle id="Elipse_142" fill="#252D60" cx="195.553" cy="522.062" r="1.203"/>
		<path id="Trazado_77" fill="#252D60" d="M192.524,522.6c0.005,0.622-0.333,1.196-0.879,1.495c-0.11-0.604-0.243-1.22-0.4-1.846
			c-0.154-0.474-0.319-0.945-0.483-1.386h0.021c0.957-0.004,1.736,0.769,1.741,1.726C192.524,522.593,192.524,522.596,192.524,522.6
			z"/>
		<path id="Trazado_78" fill="#252D60" d="M190.313,515.391c-0.001,0.797-0.545,1.491-1.319,1.681
			c-0.533-0.948-1.131-1.859-1.791-2.725c0.323-0.435,0.832-0.691,1.374-0.692C189.535,513.657,190.31,514.433,190.313,515.391z"/>
		<circle id="Elipse_143" fill="#252D60" cx="192.483" cy="510.509" r="1.257"/>
		<circle id="Elipse_144" fill="#252D60" cx="196.481" cy="516.383" r="1.565"/>
		<circle id="Elipse_145" fill="#293785" cx="203.319" cy="504.777" r="1.565"/>
		<circle id="Elipse_146" fill="#293785" cx="203.319" cy="498.847" r="1.221"/>
		<circle id="Elipse_147" fill="#293785" cx="202.859" cy="493.167" r="0.771"/>
		<path id="Trazado_79" fill="#252D60" d="M197.533,512.358c-0.178,0.11-0.384,0.168-0.593,0.165
			c-0.672,0.002-1.219-0.542-1.22-1.214c0-0.002,0-0.004,0-0.006c-0.002-0.381,0.178-0.74,0.483-0.967
			C196.654,510.973,197.105,511.655,197.533,512.358z"/>
		<path id="Trazado_80" fill="#293785" d="M198.16,511.303c0.004,0.44-0.237,0.847-0.626,1.055c-0.429-0.7-0.879-1.385-1.33-2.021
			c0.532-0.409,1.295-0.311,1.704,0.222C198.072,510.772,198.161,511.033,198.16,511.303L198.16,511.303z"/>
		<circle id="Elipse_148" fill="#293785" cx="196.94" cy="505.625" r="0.771"/>
		<circle id="Elipse_149" fill="#293785" cx="198.161" cy="503.211" r="0.771"/>
		<circle id="Elipse_150" fill="#293785" cx="196.94" cy="498.846" r="0.771"/>
		<path id="Trazado_81" fill="#43405F" d="M216.692,530.863c0.002,0.141-0.013,0.281-0.044,0.418
			c-0.041-0.194-0.06-0.394-0.055-0.593c0-0.132,0.011-0.253,0.021-0.374C216.668,530.492,216.694,530.677,216.692,530.863z"/>
		<circle id="Elipse_151" fill="#43405F" cx="220.275" cy="524.123" r="2.08"/>
		<circle id="Elipse_152" fill="#43405F" cx="220.688" cy="518.093" r="2.08"/>
		<circle id="Elipse_153" fill="#293785" cx="221.147" cy="511.862" r="1.736"/>
		<circle id="Elipse_154" fill="#293785" cx="221.148" cy="505.906" r="1.565"/>
		<circle id="Elipse_155" fill="#194D90" cx="221.204" cy="499.616" r="1.565"/>
		<circle id="Elipse_156" fill="#293785" cx="221.204" cy="492.954" r="1.221"/>
		<circle id="Elipse_157" fill="#43405F" cx="226.515" cy="524.336" r="2.08"/>
		<circle id="Elipse_158" fill="#43405F" cx="226.929" cy="518.306" r="2.08"/>
		<circle id="Elipse_159" fill="#43405F" cx="226.929" cy="512.075" r="1.736"/>
		<circle id="Elipse_160" fill="#293785" cx="227.388" cy="506.118" r="1.565"/>
		<circle id="Elipse_161" fill="#293785" cx="227.444" cy="499.829" r="1.565"/>
		<circle id="Elipse_162" fill="#293785" cx="230.014" cy="495.932" r="0.813"/>
		<circle id="Elipse_163" fill="#293785" cx="227.857" cy="493.592" r="1.221"/>
		<circle id="Elipse_164" fill="#293785" cx="224.937" cy="492.373" r="0.844"/>
		<circle id="Elipse_165" fill="#43405F" cx="232.83" cy="525.344" r="2.08"/>
		<circle id="Elipse_166" fill="#43405F" cx="233.243" cy="519.314" r="2.08"/>
		<circle id="Elipse_167" fill="#43405F" cx="233.243" cy="513.083" r="1.736"/>
		<circle id="Elipse_168" fill="#293785" cx="233.703" cy="507.125" r="1.565"/>
		<circle id="Elipse_169" fill="#293785" cx="233.759" cy="500.837" r="1.565"/>
		<circle id="Elipse_170" fill="#194D90" cx="233.76" cy="494.175" r="1.221"/>
		<path id="Trazado_82" fill="#43405F" d="M265.526,539.305c-0.021-0.117-0.056-0.231-0.101-0.341
			c-0.01-0.035-0.024-0.069-0.044-0.101c-0.044-0.107-0.099-0.211-0.165-0.308c-0.2-0.291-0.473-0.525-0.791-0.681h-0.011
			c-0.009-0.009-0.021-0.013-0.033-0.012c-0.277-0.146-0.586-0.221-0.899-0.22c-0.548-0.002-1.074,0.214-1.462,0.601
			c-0.341-1.252-1.23-2.281-2.418-2.801c1.539-1.182,1.828-3.388,0.646-4.927c-0.574-0.748-1.425-1.233-2.36-1.348
			c1.511-0.237,2.544-1.654,2.308-3.165c-0.236-1.512-1.653-2.545-3.165-2.309s-2.545,1.654-2.309,3.165
			c0.187,1.189,1.119,2.122,2.309,2.309c-1.182,0.139-2.211,0.867-2.737,1.934c-0.154-0.831-0.648-1.56-1.362-2.011
			c1.464-0.989,1.85-2.979,0.86-4.443c-0.988-1.464-2.978-1.85-4.442-0.86c-1.465,0.988-1.851,2.978-0.861,4.442
			c0.256,0.379,0.591,0.699,0.98,0.938c-0.489,0.346-0.867,0.827-1.088,1.385c-0.214-1.196-1.079-2.173-2.242-2.528h-0.011
			c-0.364,0.156-0.757,0.234-1.153,0.231c-0.321,0-0.641-0.053-0.945-0.154c-1.191,0.446-2.006,1.554-2.077,2.824h-0.066
			c-0.169-1.315-1.145-2.384-2.439-2.671c1.682-0.484,2.651-2.24,2.167-3.921c-0.483-1.682-2.239-2.652-3.921-2.168
			c-1.681,0.484-2.651,2.24-2.167,3.921c0.318,1.107,1.214,1.955,2.338,2.212c-0.958,0.267-1.732,0.972-2.088,1.899
			c-0.753-1.631-2.685-2.343-4.315-1.59c-0.811,0.374-1.432,1.064-1.718,1.909c-0.116-1.689-1.58-2.966-3.271-2.85
			c-1.202,0.083-2.245,0.862-2.664,1.993c-0.562-1.955-2.602-3.084-4.556-2.522c-1.44,0.414-2.485,1.658-2.645,3.148v0.021
			c0.053,0.178,0.079,0.363,0.077,0.549c0.002,0.141-0.013,0.281-0.044,0.418c0.185,1.156,0.911,2.153,1.955,2.683
			c-0.974,0.337-1.683,1.182-1.846,2.2c-0.319-1.55-1.834-2.548-3.384-2.229c-1.333,0.275-2.289,1.449-2.287,2.81
			c-0.005,1.217,0.764,2.302,1.912,2.7c-0.756,0.061-1.445,0.455-1.879,1.077c-0.407-0.914-1.134-1.648-2.044-2.065
			c0.713-0.344,1.166-1.065,1.165-1.857c0-1.147-0.93-2.077-2.076-2.078c-1.147,0-2.078,0.93-2.078,2.077
			c0,0.575,0.238,1.125,0.659,1.518c-2.053,0.289-3.577,2.049-3.572,4.121c0,0.132,0.011,0.253,0.022,0.386
			c0.109-0.067,0.213-0.145,0.308-0.231c1.043-0.758,1.975-1.656,2.77-2.671c0.164,1.594-0.836,3.264-2.386,4.847
			c0.419,0.64,1.015,1.145,1.714,1.451c-1.098,0.317-1.951,1.184-2.253,2.286c-0.474-0.759-1.242-1.284-2.121-1.451
			c-0.626,0.473-1.285,0.923-1.956,1.363c-0.065,0.044-0.12,0.077-0.176,0.121c-0.242,0.143-0.473,0.3-0.699,0.439
			c-0.319,0.2-0.638,0.4-0.956,0.582c-2.149,1.279-4.369,2.436-6.649,3.462c9.737,1.407,15.99,0.451,19.815-0.868
			c1.149-0.384,2.256-0.889,3.3-1.506h0.011c0.509-0.302,0.991-0.647,1.44-1.032l0.011-0.012c0.188-0.159,0.364-0.332,0.528-0.517
			c0.274,4.847,7.868,6.5,7.868,6.5c2.572,1.923,0.968,3.846,0.968,3.846c-1.056,1.374-2.518,3.759-2.518,3.759
			c-0.923,3.209,0.637,2.562,0.637,2.562c0.089-2.562,1.286-3.385,1.286-3.385c0.995-1.923,2.957-3.153,5.121-3.209
			c4.583-1.824,0.824-6.133,0.824-6.133c-3.473-4.944,1.2-8.429,1.2-8.429c3.109-2.473,8.242-1,8.242-1
			c13.221,5.979,21.848,1.154,25.672-2.044c0.259-0.499,0.391-1.054,0.385-1.616v-0.011
			C265.575,539.581,265.558,539.442,265.526,539.305z M215.456,540.734c-0.296-0.514-0.757-0.912-1.308-1.132
			c1.336-0.096,2.427-1.104,2.627-2.429c0.096,0.453,0.302,0.876,0.6,1.23c-0.983,0.413-1.701,1.285-1.917,2.33H215.456z
			 M222.156,535.656c-0.194-0.563-0.569-1.045-1.066-1.373c1.291-0.286,2.325-1.25,2.7-2.518c0.252,0.703,0.753,1.289,1.407,1.648
			c-1.341,0.148-2.5,1.004-3.035,2.242H222.156z"/>
		<circle id="Elipse_171" fill="#43405F" cx="239.153" cy="519.101" r="2.08"/>
		<circle id="Elipse_172" fill="#43405F" cx="239.153" cy="512.869" r="1.736"/>
		<circle id="Elipse_173" fill="#293785" cx="239.613" cy="506.913" r="1.565"/>
		<circle id="Elipse_174" fill="#293785" cx="239.669" cy="500.624" r="1.565"/>
		<circle id="Elipse_175" fill="#293785" cx="239.669" cy="493.962" r="1.221"/>
		<path id="Trazado_83" fill="#43405F" d="M247.94,525.295c-0.006,1.188-0.712,2.261-1.8,2.735h-0.012
			c-0.364,0.156-0.757,0.234-1.153,0.231c-1.643,0.004-2.977-1.323-2.981-2.965c-0.004-1.643,1.323-2.977,2.965-2.981
			c1.643-0.004,2.977,1.323,2.981,2.965C247.94,525.285,247.94,525.29,247.94,525.295z"/>
		<circle id="Elipse_176" fill="#43405F" cx="245.604" cy="518.889" r="2.08"/>
		<circle id="Elipse_177" fill="#43405F" cx="245.604" cy="512.657" r="1.736"/>
		<circle id="Elipse_178" fill="#293785" cx="246.064" cy="506.7" r="1.565"/>
		<circle id="Elipse_179" fill="#293785" cx="246.12" cy="500.411" r="1.565"/>
		<circle id="Elipse_180" fill="#293785" cx="243.868" cy="496.918" r="1.221"/>
		<circle id="Elipse_181" fill="#43405F" cx="251.969" cy="520.837" r="2.08"/>
		<circle id="Elipse_182" fill="#43405F" cx="251.969" cy="514.606" r="1.736"/>
		<circle id="Elipse_183" fill="#293785" cx="252.428" cy="507.469" r="1.736"/>
		<circle id="Elipse_184" fill="#293785" cx="259.659" cy="506.913" r="2.535"/>
		<circle id="Elipse_185" fill="#293785" cx="264.702" cy="508.387" r="2.123"/>
		<circle id="Elipse_186" fill="#293785" cx="270.134" cy="513.537" r="2.123"/>
		<circle id="Elipse_187" fill="#293785" cx="267.641" cy="518.077" r="1.299"/>
		<path id="Trazado_84" fill="#293785" d="M271.553,521.938c-0.259,0.154-0.555,0.234-0.856,0.231
			c-0.971,0.002-1.76-0.783-1.763-1.754c-0.002-0.971,0.783-1.76,1.754-1.763c0.795-0.002,1.492,0.529,1.701,1.296L271.553,521.938z
			"/>
		<circle id="Elipse_188" fill="#293785" cx="270.861" cy="507.876" r="1.612"/>
		<circle id="Elipse_189" fill="#293785" cx="268.436" cy="504.122" r="1.612"/>
		<path id="Trazado_85" fill="#293785" d="M273.378,500.663c-0.456,0.64-1.192,1.02-1.978,1.021
			c-1.325,0.002-2.402-1.07-2.404-2.396c-0.002-1.084,0.723-2.033,1.768-2.319C271.834,498.047,272.718,499.295,273.378,500.663z"/>
		<circle id="Elipse_190" fill="#293785" cx="263.436" cy="500.898" r="1.612"/>
		<circle id="Elipse_191" fill="#194D90" cx="258.277" cy="494.969" r="1.612"/>
		<circle id="Elipse_192" fill="#293785" cx="258.277" cy="500.898" r="1.612"/>
		<circle id="Elipse_193" fill="#293785" cx="265.639" cy="496.918" r="1.612"/>
		<circle id="Elipse_194" fill="#293785" cx="251.5" cy="500.624" r="1.612"/>
		<circle id="Elipse_195" fill="#293785" cx="254.724" cy="503.847" r="1.612"/>
		<circle id="Elipse_196" fill="#194D90" cx="252.377" cy="494.565" r="1.612"/>
		<circle id="Elipse_197" fill="#194D90" cx="253.112" cy="480.495" r="2.162"/>
		<circle id="Elipse_198" fill="#194D90" cx="258.278" cy="480.22" r="2.162"/>
		<circle id="Elipse_199" fill="#194D90" cx="258.278" cy="474.681" r="2.162"/>
		<path id="Trazado_86" fill="#194D90" d="M262.616,470.387c-0.249,0.111-0.519,0.168-0.791,0.165
			c-1.191,0.008-2.165-0.951-2.173-2.144c-0.008-1.125,0.852-2.068,1.973-2.164C262.161,467.568,262.496,468.964,262.616,470.387z"
			/>
		<circle id="Elipse_200" fill="#194D90" cx="255.716" cy="465.642" r="2.162"/>
		<path id="Trazado_87" fill="#194D90" d="M254.682,459.343c-0.813,0.868-2.177,0.913-3.045,0.1
			c-0.38-0.355-0.617-0.836-0.671-1.353C252.245,458.378,253.49,458.798,254.682,459.343z"/>
		<circle id="Elipse_201" fill="#194D90" cx="250.765" cy="485.884" r="2.162"/>
		<circle id="Elipse_202" fill="#194D90" cx="256.337" cy="487.119" r="2.162"/>
		<circle id="Elipse_203" fill="#194D90" cx="245.09" cy="482.656" r="2.162"/>
		<circle id="Elipse_204" fill="#194D90" cx="248.282" cy="477.513" r="2.162"/>
		<circle id="Elipse_205" fill="#194D90" cx="251.5" cy="471.816" r="2.162"/>
		<circle id="Elipse_206" fill="#194D90" cx="249.338" cy="463.481" r="2.162"/>
		<circle id="Elipse_207" fill="#194D90" cx="245.605" cy="469.006" r="2.162"/>
		<circle id="Elipse_208" fill="#194D90" cx="242.436" cy="474.824" r="2.162"/>
		<circle id="Elipse_209" fill="#194D90" cx="239.669" cy="479.876" r="1.543"/>
		<circle id="Elipse_210" fill="#194D90" cx="236.523" cy="484.816" r="1.543"/>
		<circle id="Elipse_211" fill="#293785" cx="233.76" cy="489.148" r="1.543"/>
		<circle id="Elipse_212" fill="#194D90" cx="227.766" cy="487.605" r="1.191"/>
		<circle id="Elipse_213" fill="#194D90" cx="223.075" cy="483.273" r="1.191"/>
		<circle id="Elipse_214" fill="#194D90" cx="222.713" cy="488.309" r="1.191"/>
		<circle id="Elipse_215" fill="#293785" cx="218.791" cy="489.499" r="1.191"/>
		<circle id="Elipse_216" fill="#194D90" cx="215.735" cy="487.605" r="1.191"/>
		<circle id="Elipse_217" fill="#194D90" cx="217.6" cy="482.38" r="1.191"/>
		<circle id="Elipse_218" fill="#194D90" cx="209.515" cy="486.542" r="1.191"/>
		<circle id="Elipse_219" fill="#194D90" cx="212.023" cy="479.249" r="1.191"/>
		<circle id="Elipse_220" fill="#194D90" cx="220.316" cy="476.014" r="1.191"/>
		<circle id="Elipse_221" fill="#194D90" cx="223.616" cy="470.197" r="1.544"/>
		<circle id="Elipse_222" fill="#194D90" cx="226.222" cy="464.603" r="1.544"/>
		<circle id="Elipse_223" fill="#194D90" cx="229.942" cy="459.775" r="1.544"/>
		<circle id="Elipse_224" fill="#194D90" cx="221.884" cy="461.603" r="1.544"/>
		<circle id="Elipse_225" fill="#194D90" cx="217.6" cy="466.845" r="1.544"/>
		<circle id="Elipse_226" fill="#194D90" cx="214.544" cy="472.663" r="1.544"/>
		<circle id="Elipse_227" fill="#194D90" cx="224.359" cy="456.512" r="1.544"/>
		<circle id="Elipse_228" fill="#194D90" cx="227.767" cy="451.325" r="1.544"/>
		<circle id="Elipse_229" fill="#194D90" cx="232.944" cy="453.943" r="1.544"/>
		<circle id="Elipse_230" fill="#194D90" cx="219.144" cy="452.869" r="1.521"/>
		<circle id="Elipse_231" fill="#194D90" cx="215.81" cy="458.231" r="1.521"/>
		<circle id="Elipse_232" fill="#194D90" cx="221.884" cy="448.101" r="0.977"/>
		<circle id="Elipse_233" fill="#194D90" cx="224.184" cy="443.998" r="0.977"/>
		<circle id="Elipse_234" fill="#194D90" cx="226.88" cy="439.828" r="0.977"/>
		<circle id="Elipse_235" fill="#194D90" cx="229.185" cy="435.132" r="0.977"/>
		<circle id="Elipse_236" fill="#194D90" cx="231.399" cy="430.402" r="0.977"/>
		<circle id="Elipse_237" fill="#194D90" cx="226.569" cy="427.88" r="0.977"/>
		<circle id="Elipse_238" fill="#194D90" cx="221.336" cy="426.81" r="0.977"/>
		<circle id="Elipse_239" fill="#194D90" cx="220.102" cy="439.828" r="0.977"/>
		<circle id="Elipse_240" fill="#194D90" cx="224.678" cy="431.701" r="0.977"/>
		<circle id="Elipse_241" fill="#194D90" cx="222.072" cy="435.547" r="0.977"/>
		<circle id="Elipse_242" fill="#194D90" cx="218.25" cy="431.377" r="0.977"/>
		<circle id="Elipse_243" fill="#194D90" cx="231.003" cy="446.15" r="1.818"/>
		<circle id="Elipse_244" fill="#194D90" cx="233.497" cy="440.804" r="1.818"/>
		<circle id="Elipse_245" fill="#194D90" cx="235.924" cy="436.026" r="1.818"/>
		<circle id="Elipse_246" fill="#194D90" cx="235.924" cy="448.529" r="1.818"/>
		<circle id="Elipse_247" fill="#194D90" cx="238.481" cy="443.418" r="1.818"/>
		<path id="Trazado_88" fill="#194D90" d="M241.768,439.78c-0.207,0.08-0.427,0.121-0.648,0.121
			c-1.001-0.001-1.812-0.812-1.813-1.813c0-0.46,0.173-0.903,0.483-1.242C240.503,437.787,241.163,438.767,241.768,439.78z"/>
		<circle id="Elipse_248" fill="#194D90" cx="231.003" cy="482.083" r="1.552"/>
		<circle id="Elipse_249" fill="#194D90" cx="234.106" cy="476.782" r="2.101"/>
		<circle id="Elipse_250" fill="#194D90" cx="237.417" cy="471.107" r="2.101"/>
		<circle id="Elipse_251" fill="#194D90" cx="242.208" cy="463.541" r="2.101"/>
		<path id="Trazado_89" fill="#194D90" d="M248.296,457.628c-0.376,1.199-1.652,1.867-2.853,1.491
			c-1.199-0.376-1.867-1.653-1.491-2.853s1.653-1.867,2.853-1.491c0.14,0.044,0.275,0.101,0.403,0.17
			c0.144,0.857,0.265,1.726,0.363,2.627C247.571,457.573,247.834,457.584,248.296,457.628z"/>
		<circle id="Elipse_252" fill="#194D90" cx="241.233" cy="451.671" r="2.273"/>
		<path id="Trazado_90" fill="#194D90" d="M245.23,447.176c-0.359,0.215-0.77,0.329-1.188,0.33c-1.255,0-2.273-1.018-2.273-2.272
			c0-1.053,0.722-1.968,1.746-2.212C244.16,444.375,244.732,445.762,245.23,447.176z"/>
		<circle id="Elipse_253" fill="#194D90" cx="238.481" cy="457.24" r="2.273"/>
		<circle id="Elipse_254" fill="#194D90" cx="235.303" cy="462.331" r="2.273"/>
		<circle id="Elipse_255" fill="#194D90" cx="232.215" cy="467.383" r="2.273"/>
		<circle id="Elipse_256" fill="#194D90" cx="228.665" cy="473.208" r="1.542"/>
		<circle id="Elipse_257" fill="#194D90" cx="225.901" cy="478.883" r="1.542"/>
		<circle id="Elipse_258" fill="#194D90" cx="241.233" cy="488.046" r="2.162"/>
		<circle id="Elipse_259" fill="#293785" cx="246.717" cy="492.367" r="2.162"/>
		<circle id="Elipse_260" fill="#43405F" cx="257.877" cy="520.411" r="2.08"/>
		<circle id="Elipse_261" fill="#293785" cx="258.336" cy="514.179" r="1.736"/>
		<circle id="Elipse_262" fill="#43405F" cx="263.525" cy="532.656" r="2.539"/>
		<circle id="Elipse_263" fill="#43405F" cx="263.489" cy="526.654" r="2.08"/>
		<path id="Trazado_91" fill="#43405F" d="M271.224,534.038c-0.878,0.969-2.375,1.043-3.344,0.165s-1.043-2.375-0.165-3.344
			c0.45-0.497,1.091-0.779,1.762-0.777c0.375-0.006,0.745,0.085,1.075,0.264C270.983,531.531,271.21,532.779,271.224,534.038z"/>
		<circle id="Elipse_264" fill="#43405F" cx="263.903" cy="520.624" r="2.08"/>
		<circle id="Elipse_265" fill="#293785" cx="263.903" cy="514.393" r="1.736"/>
		<circle id="Elipse_266" fill="#293785" cx="140.851" cy="519.647" r="1.831"/>
		<path id="Trazado_92" fill="#293785" d="M149.53,512.753c-0.759,0.833-1.464,1.715-2.11,2.638
			c-1.028-0.207-1.694-1.209-1.486-2.238c0.207-1.028,1.209-1.694,2.237-1.486C148.773,511.787,149.279,512.193,149.53,512.753z"/>
		<path id="Trazado_93" fill="#444058" d="M139.068,553.68c-0.156,0.031-0.314,0.046-0.473,0.044c-0.21-0.001-0.42-0.02-0.627-0.055
			c0.156-0.031,0.314-0.047,0.474-0.044C138.652,553.626,138.861,553.645,139.068,553.68z"/>
		<path id="Trazado_94" fill="#444058" d="M128.935,556.394c0.001,0.854-0.393,1.662-1.067,2.188
			c-1.477-0.304-2.924-0.729-4.329-1.275c-0.493-1.45,0.282-3.026,1.732-3.52c1.45-0.494,3.026,0.281,3.52,1.732
			c0.097,0.281,0.146,0.577,0.148,0.875H128.935z"/>
		<circle id="Elipse_267" fill="#293785" cx="134.194" cy="525.174" r="1.992"/>
		<circle id="Elipse_268" fill="#293785" cx="134.543" cy="519.81" r="1.624"/>
		<path id="Trazado_95" fill="#444058" d="M264.43,537.876c0.347,0.106,0.634,0.354,0.791,0.681
			C265.019,538.266,264.747,538.031,264.43,537.876z"/>
		<path id="Trazado_96" fill="#444058" d="M265.387,538.865c-0.045-0.107-0.1-0.211-0.165-0.308
			c0.031,0.036,0.058,0.077,0.076,0.121C265.332,538.74,265.361,538.802,265.387,538.865z"/>
		<path id="Trazado_97" fill="#444058" d="M199.094,548.338c-0.241,0.143-0.473,0.3-0.699,0.439c0.23-0.143,0.462-0.3,0.691-0.45
			L199.094,548.338z"/>
		<path id="Trazado_98" fill="#444058" d="M215.349,549.416c-0.375,0.472-0.874,0.829-1.44,1.032
			C214.418,550.147,214.9,549.801,215.349,549.416z"/>
		<path id="Trazado_99" fill="#1E6CAF" d="M217.382,538.404c-0.986,0.412-1.706,1.284-1.923,2.33
			c-0.296-0.514-0.757-0.912-1.308-1.132c1.336-0.096,2.427-1.104,2.627-2.429C216.875,537.627,217.083,538.05,217.382,538.404z"/>
		<path id="Trazado_100" fill="#1E6CAF" d="M225.206,533.415c-1.344,0.146-2.506,1.001-3.044,2.241
			c-0.194-0.563-0.569-1.045-1.065-1.373c1.29-0.286,2.324-1.25,2.699-2.518C224.049,532.47,224.551,533.056,225.206,533.415z"/>
		<path id="Trazado_101" fill="#444058" d="M245.186,527.886c-0.396,0-0.787,0.074-1.154,0.22c0.305,0.102,0.624,0.154,0.945,0.154
			c0.396,0.003,0.789-0.075,1.153-0.231C245.826,527.931,245.507,527.882,245.186,527.886z"/>
		<circle id="Elipse_269" fill="#555273" cx="249.063" cy="535.178" r="1.465"/>
		<circle id="Elipse_270" fill="#555273" cx="254.741" cy="535.635" r="1.465"/>
		<circle id="Elipse_271" fill="#555273" cx="249.063" cy="542.092" r="1.19"/>
		<circle id="Elipse_272" fill="#555273" cx="254.741" cy="542.55" r="1.088"/>
		<circle id="Elipse_273" fill="#555273" cx="259.463" cy="541.462" r="1.088"/>
		<circle id="Elipse_274" fill="#555273" cx="229.138" cy="535.178" r="1.465"/>
		<circle id="Elipse_275" fill="#555273" cx="241.233" cy="535.939" r="0.974"/>
		<circle id="Elipse_276" fill="#555273" cx="235.885" cy="535.636" r="0.974"/>
		<circle id="Elipse_277" fill="#555273" cx="217.269" cy="541.956" r="0.908"/>
		<circle id="Elipse_278" fill="#555273" cx="260.987" cy="536.845" r="2.038"/>
		<circle id="Elipse_279" fill="#555273" cx="222.361" cy="540.175" r="1.221"/>
		<circle id="Elipse_280" fill="#555273" cx="216.094" cy="546.993" r="1.174"/>
	</g>
	<g id="Capa_36" transform="translate(156.666 166.504)">
		<path id="Trazado_102" fill="#214E70" d="M113.417,482.145c0.044,0.495,0.077,0.758,0.077,0.758
			c-0.913,0.241-1.807,0.553-2.671,0.934c-0.4,0.165-0.791,0.342-1.154,0.507c-0.6,0.285-1.143,0.57-1.571,0.791
			c-0.561,0.3-0.912,0.494-0.912,0.494c-0.393-5.668-0.157-11.362,0.699-16.979c1.931-0.102,3.414-1.748,3.313-3.679
			c-0.068-1.305-0.858-2.463-2.048-3.003c0.528-2.275,1.132-4.484,1.791-6.616c0.526,0.269,1.108,0.408,1.7,0.406
			c0.595,0.003,1.183-0.137,1.714-0.406c-1.38,8.669-1.716,17.473-1,26.222c0.001,0.074,0.009,0.147,0.021,0.22
			C113.399,481.925,113.406,482.032,113.417,482.145z"/>
		<path id="Trazado_103" fill="#214E70" d="M117.846,441.146l-0.33,0.989c-0.144,0.45-0.275,0.89-0.407,1.318
			c-0.615,2-1.144,4-1.594,5.979c-0.541-0.615-1.266-1.039-2.066-1.209c1-2.539,2.055-4.924,3.132-7.144
			c0.273,0.067,0.554,0.101,0.835,0.101C117.56,441.18,117.704,441.169,117.846,441.146z"/>
		<path id="Trazado_104" fill="#214E70" d="M125.451,425.833c-1.971,2.868-3.681,5.906-5.11,9.078
			c-0.106-0.134-0.229-0.256-0.362-0.363c1.187-2.1,2.318-3.944,3.33-5.517c0.045-0.085,0.096-0.165,0.153-0.242
			C124.198,427.646,124.868,426.657,125.451,425.833z"/>
	</g>
	<g id="Capa_34" transform="translate(95.593 136.381)">
		<circle id="Elipse_281" fill="#5AC0CA" cx="122.8" cy="494.914" r="4.487"/>
		<circle id="Elipse_282" fill="#5AC0CA" cx="127.568" cy="503.888" r="4.075"/>
		<circle id="Elipse_283" fill="#5AC0CA" cx="136.171" cy="499.812" r="4.532"/>
		<circle id="Elipse_284" fill="#5AC0CA" cx="145.878" cy="495.28" r="4.532"/>
		<circle id="Elipse_285" fill="#5AC0CA" cx="155.134" cy="490.425" r="4.211"/>
		<circle id="Elipse_286" fill="#5AC0CA" cx="159.346" cy="499.812" r="4.028"/>
		<circle id="Elipse_287" fill="#5AC0CA" cx="150.41" cy="504.346" r="4.028"/>
		<circle id="Elipse_288" fill="#5AC0CA" cx="140.749" cy="508.374" r="3.478"/>
		<circle id="Elipse_289" fill="#5AC0CA" cx="131.774" cy="513.035" r="3.478"/>
		<circle id="Elipse_290" fill="#5AC0CA" cx="122.689" cy="517.423" r="3.296"/>
		<path id="Trazado_105" fill="#5AC0CA" d="M116.451,522.017c-0.008,1.816-1.482,3.286-3.3,3.286
			c-0.251-0.002-0.502-0.031-0.747-0.089c0.083-2.192,0.438-4.367,1.054-6.474C115.151,518.899,116.446,520.317,116.451,522.017z"/>
		<circle id="Elipse_291" fill="#5AC0CA" cx="118.04" cy="530.732" r="2.402"/>
		<circle id="Elipse_292" fill="#5AC0CA" cx="127.058" cy="526.714" r="2.815"/>
		<circle id="Elipse_293" fill="#5AC0CA" cx="136.415" cy="522.012" r="3.227"/>
		<circle id="Elipse_294" fill="#5AC0CA" cx="145.318" cy="517.492" r="3.227"/>
		<circle id="Elipse_295" fill="#5AC0CA" cx="154.653" cy="513.036" r="3.227"/>
		<circle id="Elipse_296" fill="#5AC0CA" cx="164.015" cy="508.375" r="2.951"/>
		<path id="Trazado_106" fill="#3C7592" d="M174.149,507.089c-1.515,0.6-3.229-0.142-3.828-1.657
			c-0.6-1.515,0.143-3.229,1.657-3.828c0.345-0.137,0.712-0.207,1.083-0.207c0.35-0.001,0.695,0.063,1.021,0.187L174.149,507.089z"
			/>
		<circle id="Elipse_297" fill="#5AC0CA" cx="164.427" cy="486.215" r="3.981"/>
		<path id="Trazado_107" fill="#3C7592" d="M176.589,479.551c-0.462,2-0.847,3.975-1.154,5.924c-0.531,0.27-1.118,0.409-1.714,0.406
			c-0.591,0.002-1.174-0.138-1.7-0.406c0.769-2.484,1.616-4.869,2.506-7.132C175.326,478.514,176.049,478.937,176.589,479.551z"/>
		<path id="Trazado_108" fill="#5AC0CA" d="M174.523,478.342c-0.89,2.264-1.736,4.648-2.506,7.132
			c-1.885-0.934-2.656-3.218-1.723-5.103C171.071,478.804,172.815,477.967,174.523,478.342z"/>
		<path id="Trazado_109" fill="#3C7592" d="M172.281,495.278c0,1.862-1.459,3.398-3.318,3.495c0.329-2.286,0.769-4.518,1.264-6.682
			C171.477,492.658,172.281,493.905,172.281,495.278z"/>
		<path id="Trazado_110" fill="#5AC0CA" d="M170.226,492.091c-0.495,2.164-0.935,4.399-1.264,6.682
			c-0.063,0.009-0.125,0.013-0.188,0.011c-1.937-0.003-3.504-1.574-3.501-3.511c0.003-1.933,1.568-3.498,3.501-3.501
			C169.276,491.769,169.772,491.879,170.226,492.091z"/>
		<path id="Trazado_111" fill="#3C7592" d="M181.415,465.034c-0.78,1.67-1.463,3.374-2.089,5.077
			c-0.132,0.385-0.264,0.769-0.406,1.154c-0.143,0.021-0.286,0.032-0.43,0.033c-0.281,0-0.562-0.033-0.835-0.101
			c1.132-2.385,2.286-4.561,3.4-6.528C181.188,464.777,181.308,464.899,181.415,465.034z"/>
		<path id="Trazado_112" fill="#5AC0CA" d="M181.051,464.671c-1.11,1.968-2.265,4.144-3.4,6.528
			c-2.056-0.462-3.348-2.504-2.886-4.561c0.392-1.74,1.937-2.978,3.721-2.979C179.44,463.653,180.359,464.015,181.051,464.671z"/>
		<circle id="Elipse_298" fill="#5AC0CA" cx="159.839" cy="476.867" r="4.462"/>
		<circle id="Elipse_299" fill="#5AC0CA" cx="169.097" cy="472.404" r="4.187"/>
		<circle id="Elipse_300" fill="#5AC0CA" cx="164.91" cy="463.066" r="4.462"/>
		<path id="Trazado_113" fill="#5AC0CA" d="M117.924,499.4c0.001,1.701-0.974,3.252-2.506,3.989
			c-2.222-1.854-4.088-4.095-5.507-6.616c1.448-1.976,4.224-2.403,6.199-0.955C117.252,496.654,117.925,497.985,117.924,499.4
			L117.924,499.4z"/>
		<path id="Trazado_114" fill="#5AC0CA" d="M113.494,490.124c-0.003,2.474-2.011,4.476-4.483,4.474
			c-0.055,0.002-0.11-0.002-0.164-0.012c-1.117-2.684-1.742-5.546-1.846-8.45c0.622-0.317,1.311-0.482,2.01-0.482
			C111.483,485.65,113.49,487.651,113.494,490.124z"/>
		<circle id="Elipse_301" fill="#5AC0CA" cx="173.835" cy="458.816" r="4.187"/>
		<path id="Trazado_115" fill="#5AC0CA" d="M173.754,428.042c-0.517-0.241-1.056-0.473-1.616-0.691c-0.7-0.275-1.44-0.539-2.209-0.8
			c-0.265-0.089-0.549-0.177-0.824-0.265s-0.549-0.176-0.835-0.264h-0.021c-0.012-0.002-0.023-0.005-0.033-0.011
			c-0.911-0.156-1.836-0.211-2.758-0.165c-0.166,0.011-0.342,0.011-0.528,0.032c-0.265,0.022-0.549,0.044-0.847,0.077l-0.494,0.066
			c-0.01,0.047-0.014,0.095-0.012,0.143c-0.002,0.206,0.013,0.412,0.044,0.615c-0.455-0.238-0.944-0.405-1.45-0.495
			c-0.088,0.022-0.165,0.033-0.254,0.055c-0.439,0.11-0.899,0.231-1.385,0.374c-0.121,0.044-0.242,0.077-0.362,0.11l-0.561,0.2
			c-0.429,0.154-0.868,0.33-1.319,0.517c-0.253,0.11-0.527,0.231-0.791,0.363c-0.241,0.11-0.483,0.231-0.735,0.363
			c-0.705,0.89-1.115,1.977-1.176,3.109c-0.705-0.471-1.504-0.782-2.342-0.912c-3.879,2.847-8.077,7.4-11.989,14.617h-0.022v-0.011
			c-0.056-0.005-0.111-0.017-0.165-0.033c-0.037-0.003-0.074-0.01-0.109-0.021c-0.056-0.012-0.121-0.022-0.188-0.033
			c-0.458-0.074-0.921-0.118-1.385-0.132c-4.077-0.2-14.386,1.1-25.178,16.44c0,0-0.847,1.309-1.945,3.506
			c-0.012,0.013-0.02,0.028-0.022,0.044c-0.143,0.309-0.308,0.615-0.462,0.956c-1.289,2.683-2.359,5.465-3.2,8.319
			c0.231,0.046,0.466,0.075,0.7,0.088c-0.37,0.74-0.563,1.558-0.56,2.385c0.001,2.986,2.421,5.406,5.407,5.407
			c0.154,0,0.309-0.011,0.462-0.033c-0.744,0.904-1.151,2.038-1.154,3.209c0,2.756,2.233,4.99,4.989,4.99s4.99-2.234,4.99-4.99
			c0-0.12,0-0.23-0.012-0.352c1.08,1.309,2.688,2.066,4.385,2.066c0.243,0.004,0.486-0.015,0.726-0.056
			c-1.989,1.798-2.145,4.868-0.347,6.857s4.867,2.145,6.857,0.347c1.989-1.798,2.145-4.868,0.347-6.857
			c-0.921-1.019-2.231-1.601-3.604-1.6c-0.121,0-0.242,0-0.363,0.011c1.319-1.079,2.083-2.695,2.077-4.399
			c0.002-0.213-0.013-0.427-0.044-0.637c1.035,1.017,2.427,1.588,3.878,1.592c-1.082,0.963-1.698,2.344-1.692,3.792
			c-0.004,2.834,2.291,5.135,5.125,5.14c2.834,0.004,5.135-2.29,5.14-5.125c0.004-2.764-2.183-5.035-4.945-5.136
			c1.245-1.053,1.961-2.603,1.954-4.233c0.002-0.052-0.002-0.103-0.011-0.153c0.931,0.895,2.15,1.429,3.439,1.506
			c-1.729,2.259-1.3,5.493,0.96,7.223s5.493,1.3,7.223-0.96s1.3-5.493-0.96-7.223c-0.744-0.569-1.631-0.926-2.563-1.029
			c0.832-0.996,1.287-2.253,1.286-3.55c0.002-0.302-0.023-0.604-0.077-0.9c2.192,1.628,5.289,1.171,6.917-1.021
			c1.628-2.192,1.171-5.289-1.021-6.917c-0.854-0.634-1.889-0.977-2.951-0.976c-0.063-0.002-0.125,0.002-0.188,0.012
			c1.215-1.045,1.946-2.543,2.022-4.144c0.85,0.563,1.848,0.861,2.868,0.857c2.892,0.002,5.237-2.341,5.24-5.232
			c0.002-2.67-2.005-4.913-4.658-5.208c0.826-1.011,1.276-2.277,1.274-3.583c0.002-0.452-0.054-0.902-0.165-1.341
			c1.87,1.956,4.972,2.026,6.928,0.156c1.957-1.87,2.026-4.972,0.156-6.929c-0.923-0.965-2.199-1.512-3.533-1.514
			c-0.063-0.002-0.126,0.002-0.188,0.011c1.097-1.035,1.719-2.477,1.719-3.985c0.002-0.206-0.013-0.412-0.044-0.615
			c0.78,0.406,1.648,0.617,2.528,0.615c2.24,0,4.261-1.349,5.121-3.418v-0.012C174.062,428.173,173.908,428.108,173.754,428.042z
			 M117.596,472.442c-0.854-0.715-1.911-1.146-3.022-1.231c0.41-0.791,0.625-1.669,0.626-2.561c0.002-0.092-0.002-0.184-0.011-0.275
			c0.741,0.938,1.769,1.608,2.925,1.908C117.805,470.963,117.629,471.695,117.596,472.442L117.596,472.442z M122.146,481.842
			c-0.94-1.065-2.294-1.674-3.715-1.671c-0.088-0.001-0.177,0.002-0.264,0.012c0.767-0.846,1.237-1.918,1.341-3.056
			c0.891,0.822,2.017,1.346,3.22,1.495c-0.415,0.794-0.63,1.677-0.626,2.572c-0.002,0.215,0.013,0.43,0.044,0.643V481.842z
			 M126.946,467.874c-0.662-0.468-1.414-0.794-2.209-0.956c0.213-0.521,0.335-1.075,0.363-1.638
			c0.732,0.308,1.514,0.482,2.308,0.517c-0.271,0.659-0.428,1.36-0.46,2.072L126.946,467.874z M131.784,476.583
			c0,0.191,0.012,0.382,0.033,0.571c-0.826-0.836-1.896-1.39-3.055-1.583c0.395-0.734,0.63-1.543,0.691-2.374
			c0.82,0.614,1.784,1.008,2.801,1.143C131.942,475.047,131.782,475.81,131.784,476.583z M141.147,472.396
			c-0.002,0.052,0.002,0.104,0.011,0.154c-0.719-0.688-1.612-1.167-2.583-1.386c0.427-0.786,0.675-1.656,0.726-2.55
			c0.792,0.511,1.69,0.834,2.627,0.945C141.414,470.417,141.144,471.398,141.147,472.396L141.147,472.396z M145.247,458.021
			c-0.733-0.348-1.529-0.542-2.341-0.571c0.524-0.754,0.891-1.606,1.077-2.506c0.606,0.27,1.252,0.44,1.912,0.506
			C145.476,456.243,145.253,457.125,145.247,458.021L145.247,458.021z M148.654,440.613c0.82,0.697,1.823,1.144,2.891,1.286
			c-0.536,0.694-0.895,1.51-1.044,2.374c-0.734-0.614-1.605-1.044-2.539-1.253C148.375,442.283,148.612,441.459,148.654,440.613
			L148.654,440.613z M150.193,467.527c0,0.188,0.011,0.374,0.033,0.56c-0.731-0.594-1.602-0.994-2.528-1.165
			c0.676-1.005,1.035-2.188,1.033-3.399c0.746,0.337,1.556,0.509,2.374,0.506c0.19,0,0.382-0.011,0.571-0.033
			c-0.952,0.929-1.487,2.204-1.484,3.534L150.193,467.527z M154.644,453.471c-0.788-0.597-1.715-0.982-2.693-1.121
			c0.455-0.754,0.74-1.598,0.835-2.474c0.842,0.621,1.847,0.98,2.891,1.033c-0.572,0.744-0.93,1.631-1.033,2.563L154.644,453.471z
			 M160.183,440.558c-0.001,0.332,0.033,0.663,0.1,0.988c-0.861-0.987-2.045-1.638-3.341-1.835c0.754-0.965,1.175-2.148,1.2-3.374
			c0.879,0.563,1.901,0.86,2.945,0.857c0.153,0,0.308-0.011,0.462-0.022C160.669,438.08,160.177,439.295,160.183,440.558
			L160.183,440.558z"/>
		<circle id="Elipse_302" fill="#5AC0CA" cx="182.728" cy="453.905" r="3.867"/>
		<circle id="Elipse_303" fill="#3C7592" cx="206.045" cy="454.631" r="2.86"/>
		<circle id="Elipse_304" fill="#5AC0CA" cx="210.367" cy="463.731" r="2.86"/>
		<circle id="Elipse_305" fill="#5AC0CA" cx="219.54" cy="458.816" r="2.056"/>
		<circle id="Elipse_306" fill="#5AC0CA" cx="229.136" cy="454.63" r="2.056"/>
		<circle id="Elipse_307" fill="#5AC0CA" cx="224.513" cy="445.972" r="2.056"/>
		<circle id="Elipse_308" fill="#5AC0CA" cx="215.281" cy="450.085" r="2.056"/>
		<circle id="Elipse_309" fill="#3C7592" cx="210.96" cy="440.963" r="2.056"/>
		<circle id="Elipse_310" fill="#5AC0CA" cx="219.54" cy="436.85" r="2.056"/>
		<path id="Trazado_116" fill="#5AC0CA" d="M230.99,431.814v0.055c0.048,1.021-0.742,1.889-1.764,1.937
			c-1.021,0.047-1.889-0.742-1.937-1.765c-0.002-0.057-0.002-0.114,0-0.172c-0.002-0.033,0.002-0.067,0.012-0.1
			C228.531,431.714,229.762,431.728,230.99,431.814z"/>
		<circle id="Elipse_311" fill="#3C7592" cx="201.129" cy="468.219" r="2.463"/>
		<path id="Trazado_117" fill="#5AC0CA" d="M207.614,477.486c-0.002,1.42-1.152,2.57-2.572,2.572
			c-0.692,0.003-1.356-0.279-1.835-0.78c0.242-1.418,0.495-2.8,0.747-4.132c1.287-0.602,2.816-0.047,3.418,1.24
			C207.533,476.73,207.616,477.106,207.614,477.486L207.614,477.486z"/>
		<path id="Trazado_118" fill="#3C7592" d="M203.954,475.144c-0.253,1.33-0.506,2.715-0.746,4.132
			c-0.476-0.475-0.741-1.119-0.736-1.791C202.471,476.483,203.048,475.572,203.954,475.144z"/>
		<circle id="Elipse_312" fill="#5AC0CA" cx="214.767" cy="473.254" r="2.572"/>
		<circle id="Elipse_313" fill="#5AC0CA" cx="223.736" cy="468.755" r="2.572"/>
		<circle id="Elipse_314" fill="#5AC0CA" cx="219.024" cy="482.095" r="2.046"/>
		<circle id="Elipse_315" fill="#5AC0CA" cx="210.366" cy="486.815" r="2.046"/>
		<circle id="Elipse_316" fill="#5AC0CA" cx="214.767" cy="495.935" r="2.046"/>
		<circle id="Elipse_317" fill="#5AC0CA" cx="205.222" cy="500.501" r="2.046"/>
		<circle id="Elipse_318" fill="#3C7592" cx="196.042" cy="504.985" r="2.046"/>
		<circle id="Elipse_319" fill="#3C7592" cx="200.41" cy="513.558" r="2.046"/>
		<circle id="Elipse_320" fill="#3C7592" cx="191.948" cy="495.562" r="2.366"/>
		<path id="Trazado_119" fill="#5AC0CA" d="M203.537,490.831c-0.003,1.309-1.065,2.366-2.374,2.363h-0.021
			c0.2-1.594,0.407-3.143,0.615-4.649C202.801,488.812,203.534,489.753,203.537,490.831z"/>
		<path id="Trazado_120" fill="#3C7592" d="M201.756,488.541c-0.209,1.506-0.418,3.056-0.615,4.649
			c-1.305-0.006-2.358-1.069-2.353-2.374c0.007-1.305,1.069-2.358,2.374-2.353C201.364,488.462,201.563,488.487,201.756,488.541z"/>
		<circle id="Elipse_321" fill="#3C7592" cx="196.681" cy="482.095" r="2.366"/>
		<path id="Trazado_121" fill="#3C7592" d="M195.371,472.409c-0.007,1.652-1.353,2.986-3.005,2.979
			c-0.79-0.003-1.547-0.319-2.104-0.878c0.483-1.671,1.044-3.363,1.681-5.056c0.146-0.022,0.293-0.033,0.44-0.033
			C194.032,469.422,195.369,470.759,195.371,472.409z"/>
		<path id="Trazado_122" fill="#3C7592" d="M190.392,486.211c0.004,1.618-1.282,2.945-2.9,2.989
			c0.165-1.899,0.418-3.856,0.747-5.857C189.514,483.714,190.391,484.882,190.392,486.211z"/>
		<path id="Trazado_123" fill="#3C7592" d="M200.284,459.318c-0.002,1.647-1.34,2.98-2.987,2.978c-0.001,0-0.001,0-0.001,0
			c-0.667,0.005-1.314-0.22-1.836-0.637c0.9-1.714,1.891-3.418,2.989-5.1h0.011C199.562,457.035,200.278,458.118,200.284,459.318z"
			/>
		<circle id="Elipse_322" fill="#5AC0CA" cx="178.862" cy="445.151" r="4.188"/>
		<circle id="Elipse_323" fill="#5AC0CA" cx="174.11" cy="436.123" r="4.439"/>
		<path id="Trazado_124" fill="#5AC0CA" d="M188.529,445.088c-2.807-0.481-4.692-3.147-4.211-5.954
			c0.125-0.726,0.403-1.416,0.816-2.024C186.787,439.515,187.941,442.228,188.529,445.088z"/>
		<circle id="Elipse_324" fill="#5AC0CA" cx="169.372" cy="449.718" r="4.738"/>
		<path id="Trazado_125" fill="#5AC0CA" d="M112.244,464.836c-0.143,0.309-0.308,0.615-0.462,0.956l-0.011-0.011
			C111.925,465.451,112.09,465.133,112.244,464.836z"/>
	</g>
	<g id="Capa_6" transform="translate(214.615 307.673)">
		<path id="Trazado_126" fill="#FAF6F5" d="M139.697,442.983c-0.286-0.088-2.484-0.573-4.836,3.967l-27.092-15.562
			c-1.04-1.326-1.04-3.191,0-4.518c0.961-1.045,2.508-1.307,3.76-0.637l4.271,2.539L139.697,442.983z"/>
		<path id="Trazado_127" fill="#C8E1ED" d="M115.117,428.365l-3.459,5.255l2.589,1.488l3.489-5.186L115.117,428.365z"/>
	</g>
	<g id="Capa_7" transform="translate(101.284 272.546)">
		<path id="Trazado_128" fill="#F6AB8B" d="M281.721,484.332c-0.013,0.104-0.034,0.208-0.065,0.309
			c-1.033,3.527-10.089,11.045-18.563,18.089c-0.23,0.187-0.451,0.363-0.67,0.549c-2.956,2.352-5.264,4.2-5.968,4.978
			c-0.032,0.031-0.062,0.064-0.088,0.101c-0.031,0.039-0.068,0.073-0.11,0.1c-0.006,0.006-0.01,0.014-0.011,0.022
			c-10.957,9.385-18.265,15.924-30.167,27.848c-0.571,0.571-1.165,1.165-1.758,1.77c-0.474,0.462-0.945,0.944-1.43,1.429
			c-0.483,0.483-0.967,0.989-1.462,1.484c-1.021,1.021-2.044,2.076-3.077,3.143c-0.318,0.33-0.658,0.67-0.988,1.011
			c-4.231,4.22-9.506,8.968-11.979,11.166c-0.12,0.099-0.23,0.199-0.33,0.3l-0.241,0.209l-0.571,0.474
			c-6.833,5.773-14.138,10.964-21.837,15.518c-1.385,0.791-2.154,1.188-2.154,1.188c-12.364-1.67-25.53-16.232-35.5-30.167
			c-6.006-8.45-11.461-17.279-16.331-26.432c-9.254-5.044-14.507-11.462-17.474-16.989c-0.077-0.144-0.165-0.301-0.242-0.462
			c-0.739-1.424-1.386-2.894-1.934-4.4c-0.891-2.338-1.46-4.785-1.692-7.275c-0.549-22.255,1.923-47.257,1.923-47.257
			c0.077-0.22,0.165-0.429,0.253-0.637v-0.013c2.683-6.946,5.7-10.639,8.353-12.552c4-2.899,7.164-1.791,7.164-1.791
			c0.007,0,0.012,0.005,0.012,0.012c0.021,0.011,0.065,0.044,0.121,0.076c0.075,0.044,0.148,0.092,0.22,0.144
			c0.759,0.496,1.544,0.951,2.352,1.363c0.253,0.132,0.528,0.264,0.813,0.399c0.473,0.231,0.758,0.363,0.758,0.363
			c6.481,8.141,12.16,16.889,16.957,26.123c0.4,0.769,0.77,1.517,1.132,2.264c11.748,24.222,8.936,38.652,8.936,38.652l23.079,36.08
			c4.3-2.572,8.794-4.807,13.44-6.683c0.066-0.021,0.132-0.032,0.2-0.055c0.068-0.021,0.165-0.044,0.286-0.077
			c0.056-0.009,0.111-0.024,0.165-0.044c0.07-0.015,0.141-0.033,0.209-0.055c0.517-0.132,1.253-0.319,2.2-0.549
			c0.769-0.188,1.658-0.4,2.682-0.638c3.11-0.735,7.341-1.681,12.331-2.671c0.308-0.055,0.604-0.109,0.89-0.165
			c6.363-1.187,12.354-2.165,15.782-2.715c0.495-0.077,0.923-0.143,1.308-0.2c0.101-0.011,0.2-0.032,0.286-0.044
			c0.188-0.021,0.363-0.055,0.518-0.077c0.153-0.021,0.308-0.044,0.429-0.065c0.088-0.012,0.165-0.022,0.231-0.033
			c0.132-0.021,0.209-0.033,0.209-0.033l0.3-0.1c0.044-0.011,0.1-0.033,0.165-0.055c0.149-0.044,0.296-0.095,0.439-0.154
			c0.132-0.044,0.275-0.101,0.43-0.154c0.011,0,0.021-0.011,0.044-0.011c0.187-0.077,0.385-0.143,0.593-0.231
			c0.1-0.044,0.209-0.088,0.318-0.132l0.066-0.033c0.253-0.109,0.506-0.22,0.747-0.318c0.022-0.011,0.055-0.022,0.077-0.033
			c2.113-0.813,4.014-2.095,5.561-3.748c0.044-0.045,0.084-0.093,0.121-0.143c0.037-0.038,0.07-0.078,0.101-0.121l0.1-0.132
			c0-0.012,0.011-0.012,0.011-0.022l0.044-0.088c1.323-2.769,2.411-5.644,3.253-8.594c0.022-0.088,0.056-0.177,0.077-0.253
			c0.673-2.061,1.147-4.18,1.418-6.33c0.007-0.033,0.01-0.066,0.012-0.101c1.143-7.406,2.6-11.891,4.011-14.584
			c2.352-4.539,4.55-4.055,4.836-3.967c0.01,0.006,0.021,0.01,0.033,0.011c5.15-0.257,10.313,0.112,15.375,1.101
			c0.253,0.044,0.526,0.1,0.813,0.165c0.242,0.044,0.474,0.1,0.7,0.153c0.019-0.003,0.038,0.001,0.055,0.012
			c2.495,0.57,5.737,1.571,7.286,2.065c0.462,0.154,0.77,0.253,0.879,0.275c0.033,0.021,0.044,0.021,0.044,0.021
			c0.507,0.188,0.968,0.363,1.363,0.518l1.429,0.615l0.2,0.088l0.11,0.044c0.024,0.017,0.05,0.031,0.077,0.044l0.065,0.033
			c0.019,0.019,0.033,0.041,0.044,0.065C281.707,483.62,281.782,483.981,281.721,484.332z"/>
		<path id="Trazado_129" fill="#F49F85" d="M310.251,460.704c-0.024,0.815-0.161,1.623-0.407,2.4
			c-0.725,1.399-6.539,3.473-11.5,5.033l-0.021,0.011c-3.847,1.209-7.165,2.1-7.165,2.1l-12.946,11.671c0,0-0.011,0-0.044-0.021
			c-0.11-0.022-0.418-0.121-0.879-0.275c-1.528-0.483-4.682-1.462-7.154-2.033l-0.132-0.032c-0.017-0.011-0.036-0.015-0.055-0.012
			c-0.549-0.132-1.066-0.241-1.518-0.318l12.475-15.475c3.846-5.22,8.056-4.857,8.056-4.857l20.881,0.956
			C310.134,459.935,310.24,460.275,310.251,460.704z"/>
	</g>
	<g id="Capa_8" transform="translate(262.718 305.598)">
		<path id="Trazado_130" fill="#F6AB8B" d="M148.817,427.652c-5.033,1.857-17.32,1.78-17.32,1.78
			c-6.881,6.597-14.534,12.338-22.793,17.1l-0.132-0.032c-0.017-0.011-0.036-0.015-0.055-0.012
			c-0.549-0.132-1.066-0.242-1.517-0.318l12.474-15.475c3.846-5.22,8.056-4.857,8.056-4.857l20.881,0.956
			C148.7,426.883,148.806,427.223,148.817,427.652z"/>
	</g>
	<g id="Capa_39" transform="translate(139.037 301.23)">
		<path id="Trazado_131" fill="#F49F85" d="M118.32,466.748C112.726,456.56,107,443.691,107,443.691
			c0.832-5.916,1.251-11.884,1.253-17.858c0.4,0.769,0.77,1.517,1.132,2.264C121.133,452.319,118.32,466.748,118.32,466.748z"/>
	</g>
	<g id="Capa_40" transform="translate(103.54 274.546)">
		<path id="Trazado_132" fill="#F49F85" d="M180.435,570.382l-0.286,0.44c-1.066,0.6-1.77,0.979-2.033,1.121
			c-0.077,0.044-0.121,0.066-0.121,0.066c-12.364-1.671-25.53-16.232-35.5-30.167c-5.596-7.883-10.718-16.091-15.339-24.58
			c-0.648-1.188-0.989-1.847-0.989-1.847c-13.463-50.531-17.738-65.6-19.166-77.017v-0.011c0.33-0.868,0.682-1.682,1.022-2.451
			v-0.011c2.418-5.386,5.011-8.418,7.33-10.09c0.132,0.55,8.55,36.378,12.825,46.466c4.308,10.166,26.837,53.807,32.331,63.444
			C166.005,545.386,178.094,566.471,180.435,570.382z"/>
	</g>
	<g id="Capa_9" transform="translate(102.059 342.279)">
		<path id="Trazado_133" fill="#3E235A" d="M203.203,487.831v2.846c-0.009,0.176,0.069,0.344,0.209,0.451l-0.638,0.923
			c-1.306,1.27-2.254,2.862-2.747,4.616c-0.01,0.016-0.021,0.03-0.033,0.044c-0.012,0.058-0.02,0.117-0.021,0.176l-0.033,0.231
			v0.011l-0.065,0.528c-0.723,5.021-0.683,10.124,0.12,15.134c-2.718,3.99-4.873,8.335-6.406,12.913
			c-0.242,0.68-0.484,1.361-0.736,2.033c-0.2,0.549-0.407,1.088-0.615,1.625c-0.208,0.536-0.418,1.076-0.637,1.616
			c-0.176,0.462-0.363,0.924-0.56,1.374c-0.177,0.43-0.353,0.856-0.539,1.275c-0.989,2.329-2.033,4.56-3.101,6.714
			c-0.318,0.638-0.637,1.264-0.956,1.879c-0.374,0.714-0.747,1.429-1.121,2.122c-0.911,1.7-1.846,3.341-2.779,4.9
			c-0.912,1.561-1.835,3.055-2.77,4.483c-0.614,0.955-1.23,1.879-1.835,2.77c-0.582,0.868-1.165,1.7-1.735,2.517
			c-2.407,3.385-4.693,6.286-6.683,8.66c-0.242,0.3-0.483,0.573-0.714,0.847c-0.714,0.847-1.4,1.601-2.011,2.301
			c-0.527,0.581-1.012,1.107-1.451,1.58c-1.813,1.936-2.9,2.946-2.9,2.946c-1.241-0.363-2.462-0.769-3.648-1.22
			c-52.239-19.239-52.843-107.774-51.471-138.084c0.11-2.517,0.242-4.627,0.353-6.264c0-0.033,0.011-0.066,0.011-0.11
			c0.121-1.8,0.231-3.011,0.286-3.528c0-0.065,0.011-0.121,0.011-0.187c0.01-0.04,0.013-0.081,0.012-0.121
			c0.516,1.52,1.162,2.992,1.934,4.399c0.077,0.165,0.165,0.319,0.242,0.463c2.967,5.527,8.22,11.945,17.474,16.989
			c0,0,0.341,0.659,0.989,1.847c4.622,8.491,9.745,16.7,15.342,24.584c9.968,13.935,23.134,28.5,35.5,30.167
			c0,0,0.044-0.022,0.121-0.066c0.264-0.143,0.967-0.517,2.033-1.121c7.699-4.554,15.004-9.745,21.837-15.518l0.022,0.011v0.011
			C203.301,487.748,203.203,487.831,203.203,487.831z"/>
	</g>
	<g id="Capa_10" transform="translate(194.965 304.593)">
		<path id="Trazado_134" fill="#FFFFFF" d="M226.858,431.447l-52.059,44.575l-45.137,40.113l-16.484,12.638
			c-0.641,0.179-1.303,0.267-1.968,0.264l-0.274-0.032c-0.107-0.021-0.212-0.059-0.308-0.11c-0.044-0.02-0.085-0.046-0.121-0.077
			c-0.14-0.107-0.218-0.275-0.209-0.451v-2.846c0,0,0.1-0.088,0.285-0.243v-0.011l0.791-0.691c0.105-0.105,0.215-0.206,0.33-0.3
			c2.474-2.2,7.748-6.946,11.979-11.166c0.33-0.341,0.67-0.681,0.989-1.011c1.055-1.088,2.088-2.132,3.076-3.144
			c0.989-1.011,1.956-1.978,2.891-2.911c0.593-0.601,1.187-1.2,1.758-1.769c11.9-11.924,19.21-18.463,30.167-27.848
			c0.001-0.009,0.005-0.017,0.011-0.022c0.077-0.056,0.165-0.133,0.242-0.2c1.846-1.583,3.857-3.264,5.924-4.978
			c0.221-0.188,0.44-0.363,0.67-0.549c8.474-7.045,17.529-14.563,18.563-18.088c0.031-0.102,0.053-0.204,0.065-0.31
			c0.089-0.356,0.016-0.733-0.2-1.032c-0.002-0.016-0.01-0.031-0.021-0.044l-0.3-0.12l-0.2-0.089l-1.429-0.614l-0.275-0.121
			L198,439.897L226.858,431.447z"/>
		<path id="Trazado_135" fill="#252139" d="M239.099,427.536l-13.32,10.814l-0.352,0.318l-0.022,0.022
			c-8.166,7.451-43.366,37.64-64.192,57.115c-1.406,1.318-2.846,2.637-4.318,3.956c-0.473,0.429-0.956,0.856-1.44,1.286
			c-0.055,0.044-0.1,0.088-0.153,0.132c-0.121,0.1-0.242,0.209-0.363,0.318c-20.3,17.926-44.641,35.157-44.641,35.157
			c-0.166,0.101-0.319,0.188-0.474,0.265c-0.011,0-0.021,0.011-0.044,0.011c-0.451,0.176-0.78,0.3-0.956,0.362h-0.011
			c-0.061,0.021-0.123,0.032-0.188,0.033c-0.032,0-0.065,0.012-0.1,0.012c-1.33,0.12-1.528-1.2-1.528-1.968
			c-0.001-0.184,0.011-0.366,0.033-0.549v-0.011l0.033-0.231c0.021-0.077,0.033-0.153,0.055-0.22
			c0.493-1.754,1.44-3.346,2.747-4.616l0.637-0.923c0.036,0.032,0.077,0.058,0.121,0.077c0.097,0.052,0.201,0.089,0.309,0.11
			c0.076,0.011,0.176,0.021,0.274,0.032c0.665,0.003,1.327-0.085,1.968-0.264l16.484-12.638l45.139-40.116l52.06-44.575
			l-28.849,8.451l-12.387,10.363l0.275,0.121c-0.4-0.154-0.857-0.33-1.363-0.518l12.946-11.671c0,0,3.319-0.89,7.165-2.1
			l0.021-0.012h0.033l33.4-10.254c0.387,0.205,0.684,0.546,0.835,0.956C239.027,427.026,239.083,427.279,239.099,427.536z"/>
	</g>
	<g id="Capa_11" transform="translate(64.908 265.436)">
		<path id="Trazado_136" fill="#16162E" d="M165.692,673.344c-0.209,0-0.418-0.011-0.626-0.011
			c-27.453-0.495-40.971-7.748-49.719-19.134c-12.55-16.33-9.715-38.465,0.363-74.346c9.528-23.233,13.111-63.853,13.111-63.853
			c-0.077-57.422-14.21-73.271-16.133-80.776c-1.924-7.506,3.209-9.341,3.209-9.341c17.946-1.286,29.485,22.255,29.485,22.255
			s-2.473,25-1.923,47.257c0.232,2.49,0.802,4.938,1.692,7.275c0.002,0.04-0.002,0.08-0.012,0.12c0,0.066-0.011,0.121-0.011,0.187
			c-0.065,1.275-0.165,2.441-0.286,3.529c0,0.043-0.011,0.077-0.011,0.109c-2.154,18.476-12.023,12.616-12.023,12.616
			c-2.473-1.1-2.538,0.164-2.538,0.164c-1.374,9.452-0.462,28.75-16.761,80.952c-21.244,72.72,50.346,70.4,50.346,70.4
			c-0.198,0.569-0.018,1.202,0.45,1.583C164.716,672.738,165.182,673.078,165.692,673.344z"/>
	</g>
	<g id="Capa_12" transform="translate(121.872 485.468)">
		<path id="Trazado_137" fill="#16162E" d="M227.253,607.81H125.42c17.584-33.157,47.07-31.321,47.07-31.321l-1.231-122.538h-62.235
			c-7.968-4.399,10.166-18,10.166-18c7.968-4.399,19.781-5,19.781-5l0.012-0.012c1.187,0.451,2.407,0.856,3.648,1.22
			c0,0,1.088-1.011,2.9-2.944c0.439-0.474,0.923-1.001,1.451-1.583c4.923-0.77,11.012-2.463,38.7-1.518
			c14.979,0.617,26.166,3.429,34.321,6.737c13.892,5.627,18.98,12.671,18.98,12.671l0.362,8.429h-60.537l0.274,122.725
			C215.159,581.434,227.253,607.81,227.253,607.81z"/>
	</g>
	<g id="Capa_14" transform="translate(161.852 384.455)">
		<path id="Trazado_138" fill="#2FAEE5" d="M219.141,516.501c0,0-1.33,5.913-5.726,6.044c-4.396,0.131-7.144-0.419-11.4,2.329
			c0,0-14.737,8.628-22,8.991c-8.155-3.31-19.342-6.121-34.322-6.737c-27.684-0.944-33.771,0.747-38.699,1.518
			c11.743-13.179,20.84-28.496,26.793-45.114c1.532-4.578,3.688-8.923,6.406-12.913c-0.803-5.01-0.844-10.112-0.121-15.134
			l0.033,0.021c0,0.77,0.2,2.088,1.528,1.967c0.033,0,0.065-0.011,0.1-0.011l0.022,0.022c0,0,0.055-0.022,0.165-0.056h0.011
			c0.176-0.065,0.506-0.187,0.956-0.362c0.022,0,0.033-0.012,0.044-0.012c0.308-0.109,0.67-0.253,1.088-0.418
			s0.891-0.341,1.418-0.56c2.639-1.055,6.601-2.747,11.639-5.165c0.988-0.473,2.032-0.978,3.109-1.517
			c1.132-0.562,2.309-1.154,3.528-1.791c0.868-0.451,1.758-0.923,2.682-1.407c6.562-3.473,14.155-7.847,22.441-13.243
			c1.286-0.824,2.594-1.692,3.923-2.583c0.033-0.021,0.077-0.055,0.11-0.077c0.264-0.165,0.527-0.352,0.79-0.528
			c0.747-0.506,1.507-1.021,2.265-1.55c1.132-0.769,2.274-1.571,3.429-2.385c0,0,0.176,0.1,0.506,0.319
			c0.069,0.044,0.137,0.092,0.2,0.143c0.104,0.068,0.204,0.142,0.3,0.22c0.024,0.021,0.05,0.04,0.077,0.056
			c0.165,0.132,0.363,0.286,0.561,0.462c0.1,0.077,0.209,0.176,0.318,0.274c0.673,0.597,1.312,1.231,1.912,1.9
			c0.637,0.7,1.33,1.539,2.055,2.517c4.989,6.748,11.66,20.529,13.858,47.225c0,0,0.549,8.43,0.747,17.64
			c0,0.231,0.011,0.449,0.011,0.682C220.042,504.588,219.943,512.27,219.141,516.501z"/>
		<path id="Trazado_139" fill="#38ABE2" d="M144.025,456.639c0.418-0.153,0.891-0.352,1.418-0.56
			C144.915,456.299,144.443,456.485,144.025,456.639z"/>
		<path id="Trazado_140" fill="#38ABE2" d="M157.081,450.914c1-0.484,2.032-0.989,3.109-1.517
			C159.114,449.936,158.07,450.441,157.081,450.914z"/>
		<path id="Trazado_141" fill="#38ABE2" d="M188.842,432.956c1.286-0.835,2.6-1.692,3.923-2.583
			C191.436,431.263,190.128,432.131,188.842,432.956z"/>
	</g>
	<g id="Capa_15" transform="translate(197.789 378.522)">
		<path id="Trazado_142" fill="#388CCB" d="M159.993,434.153c-0.758,0.528-1.517,1.044-2.264,1.551
			c-0.265,0.176-0.528,0.362-0.791,0.527c-0.033,0.022-0.077,0.056-0.11,0.077c-1.33,0.891-2.638,1.758-3.923,2.583
			c-8.286,5.4-15.88,9.771-22.441,13.243c-0.923,0.484-1.813,0.956-2.682,1.407c-1.22,0.637-2.4,1.23-3.528,1.791
			c-1.077,0.538-2.121,1.044-3.109,1.517c-5.033,2.418-9,4.11-11.639,5.165c-0.527,0.22-1,0.407-1.418,0.561
			c-0.418,0.165-0.779,0.308-1.088,0.418c0.154-0.077,0.309-0.165,0.474-0.265c0,0,24.343-17.231,44.641-35.157
			c0.121-0.109,0.242-0.22,0.363-0.318c0.055-0.044,0.1-0.088,0.153-0.132c0.484-0.43,0.968-0.857,1.44-1.286
			C156.652,428.12,158.678,430.965,159.993,434.153z"/>
	</g>
	<g id="Capa_16" transform="translate(254.212 382.807)">
		<path id="Trazado_143" fill="#D06182" d="M136.86,489.026l-9.264,10.078l-0.056-0.187c0-0.232-0.011-0.451-0.011-0.682
			c-0.2-9.21-0.747-17.64-0.747-17.64c-2.2-26.695-8.869-40.477-13.858-47.224c-0.725-0.979-1.418-1.813-2.055-2.518
			c-0.601-0.669-1.238-1.304-1.912-1.9c-0.109-0.1-0.22-0.199-0.318-0.274c-0.2-0.176-0.387-0.33-0.561-0.462
			c-0.027-0.016-0.053-0.034-0.077-0.055c-0.096-0.079-0.195-0.152-0.3-0.221c-0.063-0.051-0.131-0.099-0.2-0.143
			c-0.329-0.221-0.506-0.319-0.506-0.319l1.845-1.647l0.011,0.011c0.021,0.021,0.077,0.088,0.153,0.176
			c0.012,0.011,0.022,0.022,0.022,0.033c0.022,0.021,0.044,0.055,0.066,0.077c0.021,0.021,0.021,0.021,0.021,0.032
			c0.101,0.121,0.22,0.275,0.374,0.463c0.033,0.044,0.066,0.076,0.1,0.12c0.034,0.045,0.045,0.056,0.066,0.089l0.066,0.1
			c0.065,0.077,0.132,0.165,0.199,0.253c0.029,0.034,0.056,0.071,0.077,0.11c0.029,0.026,0.055,0.056,0.077,0.088
			c0.066,0.1,0.154,0.209,0.231,0.318c0.077,0.11,0.187,0.242,0.274,0.374c0.018,0.03,0.035,0.06,0.056,0.089l0.032,0.032
			c0.11,0.154,0.221,0.319,0.342,0.484s0.253,0.374,0.399,0.571c0.147,0.196,0.275,0.406,0.429,0.626
			c0.101,0.143,0.2,0.286,0.301,0.439c0.285,0.43,0.582,0.891,0.899,1.374c0.11,0.176,0.22,0.353,0.341,0.538
			c0.144,0.231,0.286,0.462,0.44,0.7c1.209,1.934,2.594,4.3,4.1,7.1c0.221,0.407,0.44,0.813,0.659,1.242
			c0.242,0.451,0.484,0.912,0.726,1.385c0.429,0.847,0.879,1.736,1.33,2.66c0.473,0.956,0.944,1.945,1.429,2.979
			c0.242,0.517,0.495,1.044,0.736,1.583c0.208,0.45,0.417,0.912,0.625,1.385c0.286,0.637,0.582,1.286,0.868,1.956
			c1.77,4.033,3.601,8.561,5.451,13.617c0.528,1.451,1.066,2.934,1.594,4.473c0.265,0.757,0.528,1.537,0.791,2.33
			c0.264,0.793,0.538,1.581,0.801,2.4C134.233,480.079,135.563,484.41,136.86,489.026z"/>
	</g>
	<g id="Capa_20" transform="translate(256.047 340.772)">
		<path id="Trazado_144" fill="#F49F85" d="M307.148,445.472c0,0-16.748,4.682-35.979,8.531c-0.23,0.044-0.462,0.088-0.699,0.132
			h-71.979c0,0-5.22,1.462-6.319,8.792c0,0-30.959,46.894-57.147,68.137c-1.3-4.616-2.627-8.947-3.945-12.99
			c-0.264-0.813-0.527-1.615-0.8-2.399c-0.271-0.784-0.528-1.573-0.791-2.33c-0.528-1.539-1.066-3.022-1.594-4.473
			c-1.846-5.056-3.682-9.583-5.451-13.617c-0.286-0.67-0.582-1.319-0.868-1.956c-0.208-0.473-0.417-0.935-0.626-1.385
			c-0.242-0.538-0.495-1.066-0.736-1.583c-0.483-1.033-0.955-2.022-1.429-2.979c-0.451-0.923-0.899-1.813-1.33-2.66
			c-0.241-0.473-0.483-0.934-0.725-1.385c-0.22-0.429-0.44-0.835-0.659-1.242c-1.506-2.8-2.89-5.165-4.1-7.1
			c-0.154-0.242-0.301-0.474-0.44-0.7c-0.121-0.187-0.23-0.363-0.341-0.539c-0.319-0.484-0.615-0.945-0.9-1.374
			c-0.1-0.154-0.199-0.3-0.3-0.439c-0.154-0.221-0.297-0.429-0.429-0.626c-0.144-0.2-0.275-0.4-0.4-0.571s-0.23-0.33-0.341-0.484
			l-0.033-0.033c-0.02-0.028-0.038-0.058-0.055-0.088c-0.088-0.132-0.188-0.253-0.275-0.374s-0.165-0.22-0.23-0.318
			c-0.022-0.032-0.049-0.062-0.077-0.088c-0.021-0.04-0.048-0.076-0.077-0.11c-0.065-0.088-0.132-0.176-0.2-0.253l-0.065-0.101
			c-0.022-0.032-0.044-0.055-0.066-0.088c-0.021-0.032-0.065-0.077-0.1-0.121c-0.154-0.187-0.275-0.341-0.374-0.462
			c0-0.011-0.012-0.021-0.022-0.032c-0.011-0.012-0.044-0.056-0.065-0.077c0-0.012-0.012-0.022-0.022-0.033
			c-0.077-0.088-0.132-0.154-0.154-0.176l-0.011-0.012c0,0,0.077-0.044,0.242-0.132c0.021-0.011,0.033-0.021,0.055-0.021
			c0.052-0.038,0.107-0.072,0.165-0.101c0.101-0.055,0.22-0.109,0.353-0.187l0.132-0.066c0.039-0.024,0.079-0.046,0.121-0.065
			c0.143-0.077,0.308-0.165,0.483-0.265c0.11-0.055,0.231-0.121,0.353-0.187c0.363-0.2,0.791-0.418,1.253-0.67
			c0.121-0.066,0.242-0.121,0.363-0.188c0.044-0.021,0.076-0.044,0.121-0.065c0.164-0.089,0.341-0.177,0.517-0.275l1.121-0.593
			c0.78-0.418,1.647-0.879,2.583-1.363c0.407-0.22,0.835-0.439,1.264-0.67c0.319-0.165,0.648-0.341,0.989-0.506
			c0.088-0.044,0.176-0.101,0.264-0.144l0.758-0.399c0.154-0.077,0.301-0.154,0.451-0.242c0.033-0.011,0.066-0.033,0.101-0.044
			c0.132-0.077,0.274-0.144,0.418-0.22c0.088-0.044,0.176-0.088,0.264-0.144c0.021,0,0.04-0.008,0.055-0.021
			c0.038-0.017,0.075-0.035,0.11-0.056c0.407-0.209,0.824-0.429,1.242-0.647c0.165-0.077,0.33-0.165,0.495-0.253
			c0.6-0.309,1.209-0.626,1.835-0.945c0.308-0.154,0.626-0.319,0.944-0.484c1.715-0.879,3.528-1.8,5.407-2.758
			c0.429-0.209,0.857-0.429,1.3-0.647c0.443-0.22,0.868-0.44,1.319-0.67c0.066-0.033,0.144-0.066,0.209-0.101
			c0.517-0.267,1.044-0.53,1.583-0.791c0.209-0.109,0.429-0.209,0.637-0.318c0.396-0.188,0.791-0.385,1.188-0.594l0.462-0.23
			c0.154-0.066,0.308-0.154,0.462-0.231c0.033-0.011,0.055-0.011,0.077-0.032c0.024-0.014,0.051-0.024,0.077-0.033
			c0.132-0.066,0.264-0.132,0.385-0.2c0.138-0.058,0.271-0.124,0.4-0.2c0.318-0.143,0.626-0.308,0.944-0.462
			c0.2-0.1,0.4-0.187,0.593-0.286c0.43-0.22,0.868-0.429,1.309-0.647c0.242-0.11,0.495-0.242,0.747-0.363
			c0.075-0.032,0.148-0.069,0.22-0.11c0.033-0.011,0.055-0.021,0.088-0.033c0.791-0.385,1.594-0.779,2.4-1.165
			c0.143-0.076,0.286-0.143,0.439-0.22c0.66-0.308,1.319-0.627,1.979-0.956h0.011c0.659-0.318,1.319-0.637,1.989-0.956
			c0.571-0.264,1.132-0.527,1.7-0.8l1.253-0.593c0.824-0.385,1.658-0.78,2.495-1.165c1.561-0.726,3.127-1.451,4.699-2.176
			c0.945-0.43,1.9-0.857,2.847-1.286c1.1-0.495,2.199-0.979,3.286-1.473c1-0.44,2-0.868,2.988-1.301
			c0.935-0.406,1.857-0.8,2.78-1.199c1.2-0.507,2.385-1,3.561-1.495c0.912-0.374,1.813-0.736,2.7-1.101l0.165-0.065
			c0.495-0.209,1-0.407,1.495-0.594c0.495-0.186,0.979-0.385,1.474-0.582c0.978-0.385,1.955-0.758,2.91-1.12
			c0.463-0.177,0.925-0.342,1.374-0.507c0.418-0.165,0.848-0.318,1.265-0.473c0.026-0.002,0.053-0.01,0.077-0.022
			c0.506-0.187,1.011-0.362,1.506-0.537c0.911-0.319,1.812-0.638,2.69-0.935c2.101-0.691,4.101-1.318,5.99-1.846
			c0.506-0.132,1.011-0.275,1.506-0.4c0.3-0.088,0.593-0.153,0.879-0.23c0.626-0.154,1.242-0.3,1.835-0.43
			c0.748-0.165,1.462-0.308,2.154-0.429c0.418-0.077,0.813-0.143,1.21-0.2c0.397-0.057,0.78-0.1,1.154-0.143
			c2.258,0.284,4.42,1.086,6.318,2.341c1.759,1.077,11.484,5.33,25.893,9.067c14.102,3.703,28.584,5.765,43.159,6.143
			c4.153,0.077,8.385,0.011,12.682-0.242C298.499,443.274,305.37,445.208,307.148,445.472z"/>
		<path id="Trazado_145" fill="none" stroke="#F49F85" stroke-width="0.25" stroke-miterlimit="10" d="M110.539,465.968
			c0.033-0.011,0.066-0.033,0.101-0.044c-0.044,0.021-0.077,0.044-0.121,0.065c-0.121,0.066-0.242,0.121-0.363,0.188
			C110.286,466.114,110.407,466.034,110.539,465.968z"/>
		<path id="Trazado_146" fill="none" stroke="#F49F85" stroke-width="0.25" stroke-miterlimit="10" d="M131.192,455.286
			c0.286-0.144,0.582-0.286,0.879-0.44c-0.451,0.231-0.879,0.451-1.319,0.67c-0.439,0.219-0.867,0.44-1.3,0.648
			C130.023,455.879,130.592,455.582,131.192,455.286z"/>
		<path id="Trazado_147" fill="none" stroke="#F49F85" stroke-width="0.25" stroke-miterlimit="10" d="M143.838,449.055
			c-0.8,0.385-1.6,0.78-2.399,1.165c-0.033,0.011-0.055,0.022-0.088,0.033c0.647-0.319,1.3-0.626,1.944-0.945
			C143.475,449.231,143.664,449.143,143.838,449.055z"/>
	</g>
	<g id="Capa_22" transform="translate(244.859 306.296)">
		<path id="Trazado_148" fill="none" stroke="#F6AB8B" stroke-width="0.25" stroke-miterlimit="10" d="M121.825,500.4
			c-0.044,0.021-0.077,0.044-0.121,0.065l0.021-0.021C121.759,500.433,121.792,500.411,121.825,500.4z"/>
		<path id="Trazado_149" fill="none" stroke="#F6AB8B" stroke-width="0.25" stroke-miterlimit="10" d="M194.45,425.932
			c-5.814,8.374-17.122,26.793-22,49.443c-0.945,0.43-1.9,0.857-2.847,1.286c-1.571,0.726-3.138,1.451-4.699,2.176
			c-0.836,0.386-1.671,0.78-2.495,1.165l-1.253,0.594c-0.571,0.274-1.133,0.539-1.7,0.8c-0.67,0.318-1.33,0.637-1.989,0.956h-0.011
			c-0.659,0.33-1.319,0.648-1.979,0.956c-0.153,0.077-0.3,0.143-0.439,0.22c-0.177,0.088-0.363,0.176-0.539,0.253
			c-0.626,0.308-1.242,0.615-1.857,0.912c-0.032,0.011-0.055,0.021-0.088,0.033c-0.071,0.041-0.145,0.077-0.22,0.109
			c-0.253,0.121-0.506,0.253-0.747,0.363c-0.44,0.22-0.879,0.429-1.308,0.648c-0.2,0.1-0.4,0.187-0.594,0.285
			c-0.318,0.154-0.626,0.319-0.944,0.463c-0.129,0.075-0.263,0.142-0.4,0.199c-0.121,0.066-0.253,0.133-0.385,0.2
			c-0.026,0.009-0.053,0.021-0.077,0.033c-0.022,0.021-0.044,0.021-0.077,0.033c-0.154,0.077-0.308,0.165-0.462,0.23l-0.462,0.231
			c-0.396,0.208-0.791,0.406-1.188,0.593c-0.209,0.11-0.429,0.209-0.637,0.319c-0.538,0.267-1.066,0.53-1.583,0.791
			c-0.066,0.032-0.143,0.065-0.209,0.1c-0.3,0.154-0.593,0.3-0.879,0.44c-0.154,0.076-0.3,0.153-0.44,0.23
			c-0.439,0.22-0.867,0.44-1.3,0.648c-1.879,0.956-3.692,1.879-5.407,2.758c-0.318,0.165-0.637,0.33-0.944,0.484
			c-0.626,0.318-1.231,0.637-1.835,0.944c-0.165,0.088-0.33,0.176-0.495,0.253c-0.418,0.221-0.835,0.44-1.242,0.648
			c-0.035,0.021-0.072,0.039-0.11,0.055c-0.015,0.014-0.034,0.021-0.055,0.022c-0.088,0.055-0.176,0.1-0.264,0.143
			c-0.144,0.077-0.286,0.144-0.418,0.22c-0.033,0.012-0.066,0.033-0.101,0.044c-0.153,0.089-0.3,0.165-0.451,0.242l-0.758,0.4
			c-0.088,0.044-0.176,0.1-0.264,0.143c-0.341,0.165-0.67,0.341-0.989,0.506c-0.429,0.231-0.856,0.451-1.264,0.671
			c-0.935,0.483-1.8,0.944-2.583,1.362l-1.121,0.593c-0.176,0.101-0.352,0.188-0.517,0.275c-0.044,0.022-0.077,0.044-0.121,0.066
			c-0.121,0.065-0.242,0.121-0.363,0.187c-0.462,0.253-0.89,0.474-1.253,0.67c-0.121,0.066-0.242,0.132-0.353,0.188
			c-0.176,0.1-0.341,0.187-0.483,0.264c-0.042,0.02-0.082,0.042-0.121,0.066l-0.132,0.065c-0.132,0.077-0.253,0.132-0.353,0.188
			c-0.058,0.028-0.113,0.062-0.165,0.1c-0.021,0-0.032,0.011-0.055,0.022c-0.165,0.088-0.242,0.132-0.242,0.132l-1.835,1.637
			c-1.153,0.813-2.3,1.616-3.429,2.385c-1.315-3.188-3.342-6.033-5.924-8.318c1.473-1.319,2.912-2.638,4.318-3.956
			c20.826-19.475,56.027-49.663,64.192-57.115l0.022-0.022l0.352-0.318l13.32-10.814
			C190.974,425.843,192.723,425.877,194.45,425.932z"/>
	</g>
	<g id="Capa_44" transform="translate(244.86 306.296)">
		<path id="Trazado_150" fill="#F6AB8B" d="M386.066,454.901c-0.022,0.176-0.044,0.341-0.076,0.506
			c-1.681,10.825-11.232,15.639-13.748,17.078c-0.165,0.1-0.33,0.187-0.506,0.286h-0.012c-3.474,1.727-6.628,4.03-9.33,6.813
			c-2.758,2.968-2.988,7.188-2.934,9.023h-17.3c-3.843-2.927-8.183-5.135-12.812-6.519c-2.91-0.896-5.892-1.542-8.912-1.934
			c-1.33-0.165-2.1-0.209-2.1-0.209c-1.78-0.264-8.649-2.2-14.836-2.33c-4.3,0.253-8.528,0.319-12.682,0.242
			c-14.575-0.378-29.057-2.439-43.158-6.144c-14.407-3.736-24.135-7.989-25.893-9.066c-1.898-1.255-4.061-2.057-6.318-2.341
			c-0.374,0.044-0.758,0.088-1.154,0.143s-0.792,0.121-1.21,0.2c-0.692,0.121-1.406,0.264-2.154,0.429
			c-0.593,0.132-1.209,0.275-1.835,0.43c-0.286,0.076-0.582,0.143-0.879,0.23c-0.495,0.121-1,0.264-1.506,0.4
			c-1.89,0.527-3.89,1.153-5.99,1.846c-0.879,0.3-1.779,0.615-2.69,0.934c-0.495,0.177-1,0.353-1.507,0.538
			c-0.023,0.013-0.05,0.02-0.076,0.022c-0.418,0.153-0.848,0.308-1.265,0.473c-0.448,0.165-0.912,0.33-1.374,0.506
			c-0.956,0.363-1.934,0.736-2.91,1.121c-0.495,0.2-0.979,0.385-1.474,0.582s-1,0.385-1.495,0.593l-0.165,0.066
			c-0.89,0.363-1.791,0.725-2.7,1.1c-1.176,0.495-2.362,0.989-3.561,1.495c-0.923,0.4-1.846,0.791-2.78,1.2
			c-0.989,0.429-1.989,0.857-2.989,1.3c-1.088,0.495-2.187,0.979-3.285,1.474c-0.945,0.429-1.9,0.856-2.847,1.285
			c-1.571,0.726-3.138,1.451-4.7,2.177c-0.834,0.385-1.67,0.779-2.494,1.165l-1.253,0.593c-0.571,0.274-1.133,0.538-1.7,0.8
			c-0.67,0.319-1.33,0.637-1.989,0.956h-0.011c-0.659,0.33-1.318,0.648-1.979,0.956c-0.153,0.077-0.3,0.143-0.439,0.22
			c-0.176,0.088-0.363,0.176-0.539,0.253c-0.626,0.309-1.242,0.615-1.857,0.912c-0.033,0.011-0.055,0.022-0.088,0.033
			c-0.071,0.041-0.145,0.078-0.22,0.11c-0.253,0.12-0.506,0.253-0.747,0.362c-0.44,0.221-0.879,0.43-1.309,0.648
			c-0.199,0.1-0.399,0.187-0.593,0.286c-0.318,0.153-0.626,0.318-0.944,0.462c-0.129,0.075-0.263,0.143-0.4,0.2
			c-0.121,0.065-0.253,0.132-0.385,0.199c-0.026,0.01-0.053,0.021-0.077,0.033c-0.022,0.022-0.044,0.022-0.077,0.033
			c-0.154,0.077-0.308,0.165-0.462,0.231l-0.462,0.23c-0.396,0.209-0.791,0.406-1.188,0.593c-0.209,0.11-0.429,0.209-0.637,0.319
			c-0.539,0.267-1.066,0.53-1.583,0.791c-0.065,0.033-0.143,0.066-0.209,0.1c-0.3,0.154-0.593,0.301-0.879,0.44
			c-0.154,0.077-0.3,0.154-0.44,0.23c-0.439,0.221-0.867,0.44-1.3,0.648c-1.879,0.956-3.692,1.879-5.407,2.758
			c-0.318,0.165-0.637,0.33-0.944,0.484c-0.626,0.318-1.231,0.637-1.835,0.944c-0.165,0.089-0.33,0.177-0.495,0.254
			c-0.418,0.22-0.835,0.439-1.242,0.647c-0.035,0.021-0.072,0.039-0.11,0.055c-0.015,0.015-0.034,0.022-0.055,0.022
			c-0.088,0.055-0.176,0.1-0.264,0.143c-0.144,0.077-0.286,0.144-0.418,0.221c-0.033,0.011-0.066,0.032-0.101,0.044
			c-0.153,0.088-0.3,0.165-0.451,0.242l-0.758,0.399c-0.088,0.044-0.176,0.101-0.264,0.144c-0.341,0.165-0.67,0.341-0.989,0.506
			c-0.429,0.23-0.856,0.451-1.264,0.67c-0.935,0.483-1.8,0.945-2.583,1.363l-1.121,0.593c-0.176,0.1-0.353,0.187-0.517,0.274
			c-0.045,0.022-0.077,0.044-0.121,0.066c-0.121,0.066-0.242,0.121-0.363,0.187c-0.462,0.254-0.89,0.474-1.253,0.671
			c-0.121,0.065-0.242,0.132-0.353,0.187c-0.176,0.1-0.341,0.188-0.483,0.264c-0.042,0.021-0.082,0.042-0.121,0.066l-0.132,0.066
			c-0.133,0.076-0.253,0.132-0.353,0.187c-0.058,0.028-0.113,0.062-0.165,0.101c-0.021,0-0.033,0.011-0.055,0.021
			c-0.165,0.088-0.242,0.132-0.242,0.132l-1.836,1.624c-1.153,0.813-2.3,1.616-3.429,2.385c-1.315-3.188-3.342-6.033-5.924-8.318
			c1.473-1.319,2.912-2.638,4.318-3.956c20.834-19.476,56.034-49.664,64.196-57.115l0.022-0.022l0.352-0.318l13.32-10.814
			c1.77,0.012,3.517,0.045,5.242,0.101c20.229,0.582,40.292,3.864,59.652,9.759c14.089,4.356,27.891,9.594,41.322,15.681
			l0.033,0.011c6.33,2.791,12.463,5.601,18.5,8.319h0.022c4.672,2.11,9.274,4.154,13.848,6.101c0.429,0.176,0.856,0.341,1.285,0.517
			c0.627,0.242,1.231,0.484,1.847,0.714c0.637,0.242,1.286,0.484,1.923,0.7c0.374,0.132,0.748,0.264,1.122,0.385
			c1.209,0.407,2.418,0.77,3.66,1.077c0.252,0.066,0.495,0.132,0.747,0.188c0.517,0.12,1.033,0.23,1.561,0.341
			c0.418,0.077,0.848,0.153,1.286,0.23c0.088,0.011,0.188,0.033,0.275,0.044c0.22,0.033,0.45,0.066,0.681,0.101
			c0.891,0.121,1.791,0.22,2.715,0.286c5.827,0.309,11.663-0.405,17.243-2.11c1.983-0.55,3.926-1.236,5.813-2.055
			c9.506-4.121,12.5-9.814,13.034-11.034c0.076-0.154,0.11-0.231,0.11-0.231c1.407-2.451,2.2-4.473,3.363-4.6
			S386.385,452.297,386.066,454.901z"/>
		<path id="Trazado_151" fill="none" stroke="#F6AB8B" stroke-width="0.25" stroke-miterlimit="10" d="M318.334,479.947
			c0,0-16.749,4.682-35.981,8.528c-0.23,0.044-0.462,0.088-0.699,0.132h-27.797c-3.6-4.979-12.551-14.814-30.947-22.441
			c-5.506-2.274-9.342-3.923-11.979-5.088c0.748-0.165,1.462-0.308,2.154-0.429c0.418-0.077,0.813-0.144,1.21-0.2
			c0.396-0.057,0.78-0.1,1.154-0.143c2.258,0.284,4.42,1.085,6.318,2.341c1.758,1.077,11.484,5.33,25.893,9.066
			c14.102,3.704,28.584,5.766,43.158,6.144c4.154,0.077,8.386,0.011,12.683-0.242C309.685,477.749,316.554,479.683,318.334,479.947z
			"/>
	</g>
	<g id="Capa_21" transform="translate(451.831 310.285)">
		<path id="Trazado_152" fill="#F6AB8B" d="M144.982,440.978c-0.97,0.865-1.63,2.023-1.879,3.3
			c-0.309,1.121-1.418,2.406-2.583,4.176c-0.253,0.385-0.508,0.791-0.758,1.23c-0.703,1.188-1.265,2.453-1.673,3.771
			c-0.419,1.334-0.674,2.714-0.757,4.11c-0.022,0.406-0.055,0.79-0.088,1.153c-0.066,0.747-0.143,1.43-0.23,2.033
			c-0.648,4.616-1.78,5.363-1.78,5.363c-0.231-0.033-0.462-0.066-0.681-0.101c-0.089-0.011-0.188-0.032-0.275-0.044
			c-0.438-0.077-0.868-0.153-1.286-0.23c-0.526-0.11-1.044-0.221-1.561-0.341c-0.253-0.056-0.495-0.121-0.747-0.188
			c-1.242-0.308-2.451-0.67-3.66-1.077c-0.374-0.121-0.748-0.253-1.122-0.385c-0.637-0.22-1.286-0.462-1.923-0.7
			c-0.615-0.23-1.219-0.473-1.847-0.714c-0.429-0.176-0.856-0.341-1.286-0.517c-4.571-1.945-9.188-3.979-13.847-6.101
			c1.813,0.088,5.601-0.154,13.023-4.748c1.004-0.622,1.969-1.305,2.89-2.044c5.967-4.66,10.363-11.155,11.671-14.243
			c1.506-3.571,1.101-5.1,1.101-5.1c0-4.495,2.473-3.693,2.473-3.693c1.923,1.056,0.736,3.363,0.736,3.363
			c0.779-0.473,3.406,0.615,2.076,2.583c1.12-0.131,2.134,0.67,2.266,1.789c0.019,0.158,0.019,0.317,0,0.475
			c2.648,0.418,1.1,3.801,1.187,3.814C148.345,438.143,144.982,440.978,144.982,440.978z"/>
	</g>
	<g id="Capa_43" transform="translate(466.965 337.903)">
		<path id="Trazado_153" fill="#F49F85" d="M122.957,425.833c-0.42,1.334-0.674,2.714-0.757,4.109
			c-0.022,0.407-0.055,0.791-0.088,1.154c-0.065,0.747-0.143,1.429-0.231,2.033c-0.647,4.616-1.779,5.363-1.779,5.363
			c-0.231-0.033-0.462-0.066-0.682-0.101c-0.088-0.011-0.187-0.032-0.274-0.044c-0.439-0.077-0.868-0.153-1.286-0.23
			c-0.526-0.11-1.044-0.221-1.561-0.342c-0.252-0.055-0.495-0.12-0.747-0.187c-1.242-0.308-2.451-0.67-3.66-1.077
			c-0.374-0.121-0.748-0.253-1.122-0.385c-0.637-0.22-1.286-0.462-1.923-0.7c-0.615-0.23-1.22-0.473-1.847-0.714
			C110.463,433.438,117.869,430.361,122.957,425.833z"/>
	</g>
	<g id="Capa_18" transform="translate(377.301 189.289)">
		<path id="Trazado_154" fill="#16162E" d="M294.928,542.112l-175.839-0.979c0,0-10.616-46.52-12.089-89.381
			c0,0,0.329-18.814,16.484-20.145c0,0,87.194-8.067,152.035-5.132c0,0,28.937,0,29.3,23.44
			C305.184,473.358,299.697,529.156,294.928,542.112z"/>
	</g>
	<g id="Capa_24" transform="translate(389.389 304.586)">
		<path id="Trazado_155" fill="#D1E0F3" d="M243.595,457.213l-2.132-0.1c0.032-0.165,0.056-0.33,0.077-0.506
			c0.318-2.601-0.407-4.694-1.583-4.55c-1.177,0.144-1.955,2.152-3.363,4.6c0,0-0.033,0.077-0.11,0.231l-17.11-0.759l-17.166-0.757
			c0.253-0.439,0.506-0.846,0.758-1.23c1.165-1.77,2.273-3.056,2.583-4.177c0.249-1.275,0.909-2.435,1.879-3.3
			c0,0,3.363-2.835-0.561-3.065c-0.088-0.012,1.463-3.4-1.187-3.814c0.127-1.12-0.679-2.131-1.798-2.258
			c-0.155-0.018-0.313-0.018-0.467,0.001c1.33-1.966-1.301-3.054-2.077-2.583c0,0,1.187-2.308-0.736-3.364
			c0,0-2.473-0.8-2.473,3.693c0,0,0.407,1.528-1.101,5.1c-1.308,3.089-5.699,9.584-11.671,14.244l-34.431-1.529l-0.033-0.011
			c-13.432-6.088-27.232-11.326-41.322-15.683c-1.128-3.789-1.987-7.652-2.571-11.563l175.839,0.978
			C285.225,459.84,243.595,457.213,243.595,457.213z"/>
	</g>
	<g id="Capa_19" transform="translate(463.763 312.93)">
		<path id="Trazado_156" fill="#3C3055" d="M117.898,431.283c-0.001,3.01-2.44,5.449-5.45,5.448c-3.009-0.001-5.448-2.44-5.447-5.45
			c0-3.009,2.439-5.447,5.448-5.447C111.85,430.96,115.009,431.282,117.898,431.283z"/>
	</g>
	<g id="Capa_25" transform="translate(481.846 334.134)">
		<path id="Trazado_157" fill="none" d="M130.991,438.383l-22.452-1.386l-1.539-0.1c0.089-0.6,0.166-1.286,0.231-2.033
			c0.033-0.363,0.066-0.747,0.088-1.154c0.084-1.396,0.339-2.775,0.757-4.109c0.407-1.318,0.969-2.584,1.672-3.771l17.166,0.759
			C126.914,426.589,127.562,435.054,130.991,438.383z"/>
	</g>
	<g id="Capa_28" transform="translate(497.315 353.232)">
		<path id="Trazado_158" fill="#C3E2F7" d="M115.447,441.665h-8.439c-0.055-1.835,0.176-6.056,2.934-9.023
			c2.701-2.784,5.856-5.088,9.33-6.813h0.012C119.282,425.828,121.788,434.778,115.447,441.665z"/>
	</g>
	<g id="Capa_29" transform="translate(465.767 362.55)">
		<path id="Trazado_159" fill="#C3E2F7" d="M121.256,432.351h-13.717c-1.027-2.158-0.674-4.72,0.9-6.519
			C113.07,427.215,117.411,429.423,121.256,432.351z"/>
	</g>
	<g id="Capa_26" transform="translate(480.065 345.2)">
		<path id="Trazado_160" fill="none" d="M132.771,427.317c-1.888,0.818-3.83,1.505-5.813,2.055
			c-5.581,1.705-11.417,2.419-17.243,2.11c-0.923-0.066-1.823-0.165-2.715-0.286c0,0,1.132-0.747,1.779-5.363l1.539,0.1
			L132.771,427.317z"/>
	</g>
	<g id="Capa_27" transform="translate(340.944 369.07)">
		<path id="Trazado_161" fill="#16162E" d="M332.843,433.253v10.353H107l0.274-8.979c1.101-7.33,6.319-8.792,6.319-8.792h208.534
			C331.744,425.833,332.843,433.253,332.843,433.253z"/>
		<rect id="Rectángulo_73" x="163.6" y="443.6" fill="#D1E0F3" width="39.015" height="271.268"/>
		<rect id="Rectángulo_74" x="202.746" y="443.6" fill="#B4C2D1" width="48.314" height="271.268"/>
		<rect id="Rectángulo_75" x="251.061" y="443.6" fill="#D1E0F3" width="39.648" height="271.267"/>
		<rect id="Rectángulo_76" x="290.71" y="443.601" fill="#B4C2D1" width="22.902" height="271.266"/>
		<rect id="Rectángulo_77" x="124.586" y="443.6" fill="#B4C2D1" width="39.014" height="271.268"/>
		<rect id="Rectángulo_78" x="124.586" y="714.868" fill="#16162E" width="189.027" height="11.72"/>
	</g>
</g>
</svg>
