<?xml version="1.0" encoding="utf-8"?>
<!-- Generator: Adobe Illustrator 16.0.0, SVG Export Plug-In . SVG Version: 6.00 Build 0)  -->
<!DOCTYPE svg PUBLIC "-//W3C//DTD SVG 1.1//EN" "http://www.w3.org/Graphics/SVG/1.1/DTD/svg11.dtd">
<svg version="1.1" id="Capa_1" xmlns="http://www.w3.org/2000/svg" xmlns:xlink="http://www.w3.org/1999/xlink" x="0px" y="0px"
	 width="1420px" height="789px" viewBox="0 0 1420 789" enable-background="new 0 0 1420 789" xml:space="preserve">
<rect id="Rectángulo_79" x="2.839" fill="#FFFFFF" width="1418" height="755.277"/>
<linearGradient id="SVGID_1_" gradientUnits="userSpaceOnUse" x1="683.8276" y1="599.4014" x2="1324.6099" y2="279.7785" gradientTransform="matrix(1 0 0 1 16.6797 -51.9199)">
	<stop  offset="0" style="stop-color:#43045F"/>
	<stop  offset="1" style="stop-color:#15162E"/>
</linearGradient>
<path opacity="0.2" fill="url(#SVGID_1_)" enable-background="new    " d="M1425.839,0h-2H597.283v58.716v23.953l0.214,227.98
	c0,116.36-12.433,289.978,152.293,321.695l676.049,152.311V0L1425.839,0z"/>
<linearGradient id="SVGID_2_" gradientUnits="userSpaceOnUse" x1="687.478" y1="589.1846" x2="1321.3628" y2="273.0022" gradientTransform="matrix(1 0 0 1 16.6797 -51.9199)">
	<stop  offset="0" style="stop-color:#43045F"/>
	<stop  offset="1" style="stop-color:#15162E"/>
</linearGradient>
<path fill="url(#SVGID_2_)" d="M597.283,0v32.14v24.322l0.214,231.512c0,118.159-12.433,294.467,152.293,326.675l674.049,154.211V0
	H597.283z"/>
<g id="vector" transform="translate(464.092 43.175)">
	<g id="Capa_30" transform="translate(139.039 123.825)">
		<path id="Trazado_42" fill="#20B099" d="M565.624,255.54c-0.026,95-63.819,179.23-158.134,208.795
			c-0.046,0.01-0.09,0.023-0.132,0.043c-22.979,7.136-46.982,10.769-71.141,10.76c-2.308,0-4.604-0.034-6.891-0.104
			c-72.043-2.104-138.876-36.461-180.5-92.789c-2.341-3.166-4.599-6.4-6.771-9.7c-16.332-24.747-27.29-52.39-32.224-81.279
			c9.968,13.341,23.134,27.282,35.5,28.878c0,0,10.462-5.154,23.991-15.985l0.571-0.454l0.239-0.197
			c0.105-0.102,0.216-0.198,0.33-0.288c2.476-2.107,7.748-6.648,11.979-10.688c0.33-0.326,0.67-0.651,0.988-0.968
			c1.056-1.041,2.089-2.04,3.075-3.01c0.495-0.471,0.989-0.957,1.463-1.419c0.475-0.465,0.956-0.927,1.431-1.372
			c0.593-0.573,1.187-1.147,1.758-1.691c11.899-11.415,19.21-17.674,30.167-26.658c0.001-0.009,0.005-0.016,0.011-0.02
			c0.042-0.025,0.079-0.059,0.11-0.097c0.025-0.034,0.056-0.065,0.088-0.098c0.7-0.745,3.011-2.514,5.967-4.764
			c0.221-0.182,0.44-0.349,0.67-0.525c8.476-6.745,17.529-13.94,18.563-17.315c0.03-0.098,0.054-0.194,0.063-0.298
			c0.06-0.337-0.021-0.684-0.22-0.967c-0.011-0.022-0.024-0.044-0.044-0.063l-0.064-0.031c-0.025-0.014-0.053-0.026-0.076-0.043
			l-0.109-0.043l-0.2-0.084l-1.429-0.588c-0.4-0.146-0.857-0.315-1.363-0.496c0,0-0.011,0-0.044-0.021
			c-0.11-0.021-0.418-0.115-0.879-0.264c-1.55-0.479-4.792-1.436-7.286-1.979c-0.017-0.01-0.036-0.014-0.055-0.012
			c-0.231-0.052-0.462-0.104-0.7-0.147c-0.286-0.063-0.56-0.114-0.813-0.157c-5.063-0.945-10.226-1.297-15.375-1.053
			c-0.013,0-0.022-0.004-0.032-0.011c-0.286-0.083-2.484-0.548-4.836,3.798c-1.407,2.576-2.868,6.868-4.014,13.962
			c0,0-22.167,9.956-32.508,10.215c0,0-5.406,1.411-9.166-2.45c0,0-20.419-19.117-31.047-56.463c0,0-6.273,1.357-5.856-4.681
			l12.178,0.831c6.164,2.855,13.278,3.171,19.691,0.873c0,0,4.945-0.126,5.363-0.926l-6.55,0.055l6.594-1.496l0.363-2.756
			c0,0,12.913,1.705,14.836-1.588l-0.43-11.477c-3.823,1.262-10.077,2.179-19.814,0.831c0,0,16.122-6.754,15.485-12.539
			c0,0-6.507,8.774-20.882,5.438c5.885-5.891,8.106-14.305,5.856-22.165c-4.308-12.805-14.979-14.741-14.979-14.741
			s-0.275-1.011-0.615-2.811c17.688-24.316,40.308-44.978,66.511-60.754C321.723,5.051,463.384,36.177,530.7,139.015
			c4.795,7.324,9.134,14.913,12.995,22.727v0.022C558.185,191.081,565.675,223.112,565.624,255.54z"/>
	</g>
	<g id="Audifonos" transform="translate(130.649 164.454)">
		<path id="Trazado_43" fill="#FFFFFF" d="M154.379,34.203l22.308,0.694l8.72,61.126l-6.491,34.405l-15.762,9.16l-43.563-2.325
			l-9.751-32.792l3.822-30.666l17.279-33.497L154.379,34.203z"/>
	</g>
	<g id="Capa_31" transform="translate(123.333 275.107)">
		<path id="Trazado_44" fill="#15162E" d="M173.383,121.788c0,0-0.769,0.287-2.107,0.841c-3.896,1.625-7.681,3.479-11.331,5.555
			l-23.079-34.539c0,0,2.813-13.814-8.937-37c-5.002-9.648-11.063-18.757-18.09-27.171c2.291,0.997,4.714,1.69,7.2,2.061
			c4.357,6.709,8.344,13.633,11.944,20.74c1.689,3.293,3.438,6.881,5.187,10.743c0,0,4.8,13.401,5.627,26.551
			c0,0,0.341,4.673,3.572,2.042c0,0,2.6-2.63,2.956-11.836c0,0,0.526-23.554-3.418-36.178l1.646-0.097
			c0,0,4.165,14.648,5.135,24.377c0,0,0.132,18.177-0.824,24.542c-0.313,2.306-0.428,4.63-0.341,6.953L173.383,121.788z"/>
	</g>
	<g id="Capa_5" transform="translate(130.531 258.16)">
		<path id="Trazado_45" fill="#F6AB8B" d="M191.67,53.383c-1.923,3.293-14.836,1.589-14.836,1.589l-0.363,2.756l-6.594,1.496
			l6.55-0.054c-0.418,0.801-5.362,0.927-5.362,0.927c-6.412,2.297-13.528,1.98-19.692-0.874l-7.66-0.525l-4.519-0.306
			c0,0-1.791,0.757-1.835,2.051l-1.646,0.098c3.945,12.625,3.418,36.178,3.418,36.178c-0.353,9.206-2.956,11.836-2.956,11.836
			c-3.23,2.63-3.572-2.043-3.572-2.043c-0.821-13.147-5.627-26.551-5.627-26.551c-1.747-3.861-3.494-7.448-5.187-10.743
			c-3.604-7.106-7.589-14.027-11.946-20.733c0.549,0.072,1.101,0.136,1.67,0.179h0.012c6.318,0.442,13.748-1.693,19.539-11.194
			c0.418,0.254,0.824,0.497,1.231,0.716c14.342,8.112,24.222,4.69,29.431,1.246c1.629-1.048,3.08-2.325,4.311-3.787
			c6.107,1.418,10.8,0.651,14.166-0.706c2.624-1,4.937-2.632,6.715-4.733c0.637,5.786-15.485,12.542-15.485,12.542
			c9.737,1.344,15.99,0.432,19.815-0.831L191.67,53.383z"/>
		<path id="Trazado_46" fill="#F6AB8B" d="M212.804,113.886l-42.245,18.01c-6.5-9.457-19.813-32.444-25.508-68.827
			c10.627,37.346,31.047,56.463,31.047,56.463c3.76,3.86,9.166,2.45,9.166,2.45C192.538,121.797,205.648,116.831,212.804,113.886z"
			/>
	</g>
	<g id="Capa_41" transform="translate(189.91 343.376)">
		<path id="Trazado_47" fill="#F49F85" d="M158.393,26.555c0,0.032-0.005,0.064-0.011,0.097c-0.347,2.044-0.819,4.068-1.418,6.061
			c-0.021,0.072-0.055,0.158-0.077,0.242c-0.918,2.799-2.004,5.545-3.253,8.226l-0.044,0.085c0,0.01-0.011,0.01-0.011,0.02
			l-0.101,0.128c-0.029,0.041-0.063,0.079-0.102,0.116c-0.037,0.048-0.077,0.094-0.121,0.137c-1.581,1.544-3.473,2.765-5.561,3.588
			c-0.022,0.011-0.058,0.021-0.077,0.031c-0.242,0.097-0.495,0.2-0.747,0.305l-0.066,0.031c-0.107,0.043-0.22,0.085-0.316,0.127
			c-0.209,0.084-0.407,0.146-0.596,0.222c-0.021,0-0.03,0.011-0.044,0.011c-0.151,0.053-0.3,0.104-0.429,0.147
			c-0.144,0.056-0.291,0.103-0.438,0.145c-0.065,0.021-0.12,0.044-0.164,0.055l-0.303,0.096c0,0-0.074,0.011-0.209,0.031
			c-0.064,0.011-0.144,0.021-0.229,0.032c-0.121,0.021-0.265,0.042-0.43,0.062c-0.178,0.022-0.354,0.043-0.519,0.074
			c-0.088,0.01-0.187,0.032-0.286,0.042c-0.385,0.055-0.813,0.116-1.308,0.191c-5.715,0.79-11.067,1.704-15.782,2.6
			c-0.286,0.053-0.583,0.104-0.89,0.158c-3.363,0.607-6.825,1.282-10.034,1.966c-1.305-1.571-2.526-3.202-3.66-4.89l42.245-18.013
			l0.912-0.382l0.582-0.24l1.055-0.455l0.891-0.382c0.199-0.084,0.373-0.156,0.539-0.231l0.431-0.191l0.176-0.073l0.242-0.104
			L158.393,26.555z"/>
		<path id="Trazado_48" fill="none" stroke="#F8C995" stroke-width="0.25" stroke-miterlimit="10" d="M114.839,51.572
			c3.209-0.683,6.671-1.357,10.034-1.967c-4.989,0.946-9.221,1.854-12.331,2.558c-1.021,0.23-1.912,0.432-2.682,0.608l-0.022-0.053
			c0.846-0.2,1.727-0.41,2.627-0.619C113.235,51.92,114.026,51.751,114.839,51.572z"/>
		<path id="Trazado_49" fill="none" stroke="#F8C995" stroke-width="0.25" stroke-miterlimit="10" d="M125.763,49.442
			c4.716-0.893,10.067-1.808,15.782-2.598C138.116,47.375,132.123,48.312,125.763,49.442z"/>
		<path id="Trazado_50" fill="none" stroke="#F8C995" stroke-width="0.25" stroke-miterlimit="10" d="M153.26,41.663
			c-1.547,1.583-3.447,2.811-5.561,3.588C149.787,44.427,151.679,43.207,153.26,41.663z"/>
		<path id="Trazado_51" fill="none" stroke="#F8C995" stroke-width="0.25" stroke-miterlimit="10" d="M153.634,41.178
			c1.249-2.681,2.335-5.426,3.253-8.226C156.045,35.776,154.956,38.528,153.634,41.178z"/>
		<path id="Trazado_52" fill="none" stroke="#F8C995" stroke-width="0.25" stroke-miterlimit="10" d="M158.382,26.65
			c-0.271,2.058-0.745,4.088-1.418,6.061C157.56,30.719,158.035,28.694,158.382,26.65z"/>
	</g>
	<g id="Capa_38" transform="translate(158.05 287.613)">
		<path id="Trazado_53" fill="#F49F85" d="M146.699,107.333c-0.813,0.182-1.6,0.35-2.374,0.527c-0.898,0.211-1.779,0.42-2.627,0.619
			c-0.758,0.192-1.482,0.384-2.176,0.576c-0.068,0.021-0.14,0.038-0.209,0.053c-0.054,0.02-0.108,0.033-0.165,0.041
			c-0.121,0.032-0.209,0.055-0.286,0.074c-0.077,0.021-0.132,0.032-0.2,0.053l-24.854-22.414c-0.086-2.323,0.026-4.647,0.341-6.953
			c0.956-6.364,0.824-24.544,0.824-24.544c-0.969-9.733-5.133-24.378-5.133-24.378c0.043-1.294,1.834-2.051,1.834-2.051
			c-0.418,6.037,5.857,4.681,5.857,4.681c5.693,36.376,19.014,59.367,25.508,68.827
			C144.173,104.132,145.394,105.764,146.699,107.333z"/>
	</g>
	<g id="Capa_37" transform="translate(175.723 142.28)">
		<path id="Trazado_54" fill="#1E6CAF" d="M148.26,156.524c-1.797,0.008-3.263-1.38-3.271-3.101
			c-0.007-1.418,0.989-2.664,2.422-3.026c-0.272-0.146-0.52-0.339-0.725-0.567c-0.492,1.333-1.689,2.312-3.143,2.566
			c1.562,0.847,2.109,2.744,1.228,4.239c-0.884,1.496-2.866,2.021-4.428,1.176c-0.464-0.252-0.855-0.608-1.144-1.038
			c-0.467,1.663-2.254,2.649-3.988,2.2c-1.427-0.367-2.414-1.607-2.409-3.019c-0.002-0.22,0.021-0.438,0.077-0.654
			c-2.149,1.226-4.369,2.333-6.649,3.314c9.737,1.348,15.99,0.433,19.815-0.83c1.147-0.368,2.256-0.852,3.3-1.442
			C148.997,156.461,148.63,156.524,148.26,156.524z M210.497,117.187c0.418-18.273-18.959-16.696-18.959-16.696
			c6.451-7.364,6.597-18.673,6.597-18.673c0.021-0.706,0.001-1.411-0.066-2.114c-0.12-1.362-0.453-2.699-0.989-3.966
			c-1.334-2.979-3.822-5.348-6.943-6.605c-1.192-0.521-2.438-0.923-3.716-1.199c-0.88-0.205-1.771-0.353-2.673-0.442
			c-0.462-0.042-0.725-0.055-0.725-0.055c-0.1-0.86-0.22-1.693-0.363-2.514c-0.435-2.529-1.097-5.016-1.978-7.438
			c-0.498-1.354-1.07-2.681-1.714-3.977c-0.43-0.862-0.881-1.684-1.354-2.462c-0.132-0.22-0.264-0.43-0.397-0.641
			c-0.606-0.97-1.269-1.908-1.979-2.809c-6.759-8.784-10.594-10.32-15.3-11.541c-2.045-0.484-4.137-0.763-6.242-0.831
			c-1.229-0.082-2.462-0.098-3.692-0.041c-2.544,0.085-5.064,0.493-7.5,1.209C126.887,41,122.566,56.917,122.566,56.917
			c-15.946,21.586-13.022,46.617-11.473,54.883c0.341,1.799,0.613,2.809,0.613,2.809s10.671,1.936,14.979,14.741
			c2.25,7.862,0.026,16.275-5.858,22.165c6.11,1.42,10.801,0.653,14.166-0.703c1.288-0.511,2.51-1.165,3.641-1.947v-0.011
			c-0.014-0.127-0.022-0.243-0.022-0.37c-0.005-1.983,1.521-3.667,3.572-3.944c-0.842-0.748-0.893-2.008-0.109-2.814
			c0.781-0.806,2.099-0.852,2.939-0.105c0.426,0.379,0.667,0.91,0.665,1.467c0.001,0.758-0.452,1.449-1.165,1.778
			c0.91,0.4,1.637,1.102,2.044,1.977c0.434-0.595,1.123-0.973,1.879-1.031c-1.493-0.503-2.276-2.073-1.748-3.501
			c0.403-1.095,1.48-1.826,2.692-1.83c1.357,0.005,2.528,0.916,2.813,2.188c0.163-0.976,0.872-1.783,1.846-2.104
			c-1.037-0.51-1.76-1.465-1.939-2.569c0.031-0.132,0.046-0.265,0.044-0.401c0.002-0.177-0.023-0.354-0.077-0.525v-0.02
			c0.216-1.936,2.03-3.338,4.052-3.132c1.49,0.152,2.734,1.152,3.148,2.533c0.59-1.521,2.354-2.295,3.94-1.732
			c1.131,0.401,1.91,1.399,1.992,2.55c0.576-1.629,2.424-2.501,4.124-1.949c0.846,0.273,1.535,0.869,1.909,1.644
			c0.631-1.566,2.469-2.345,4.104-1.742c1.084,0.4,1.854,1.336,2.006,2.438h0.063c0.11-1.712,1.647-3.014,3.438-2.908
			c1.493,0.087,2.729,1.14,2.993,2.55c0.221-0.534,0.599-0.994,1.089-1.326c-0.947-0.563-1.525-1.552-1.528-2.62
			c0.004-1.692,1.439-3.062,3.207-3.058c1.769,0.005,3.196,1.378,3.193,3.071c-0.004,1.017-0.531,1.965-1.411,2.533
			c0.715,0.433,1.208,1.129,1.36,1.925c0.525-1.021,1.558-1.716,2.736-1.851c-1.511-0.227-2.544-1.583-2.307-3.028
			c0.234-1.447,1.651-2.435,3.164-2.21c1.511,0.226,2.543,1.583,2.307,3.028c-0.187,1.137-1.118,2.031-2.307,2.209
			c1.926,0.225,3.297,1.901,3.062,3.746c-0.114,0.896-0.601,1.709-1.348,2.259c1.188,0.498,2.077,1.483,2.418,2.682
			c0.388-0.37,0.914-0.577,1.462-0.576c0.313-0.001,0.622,0.071,0.899,0.21c0.013,0,0.022,0.002,0.031,0.013h0.014
			c0.315,0.147,0.59,0.373,0.791,0.651c0.063,0.093,0.118,0.192,0.164,0.294c0.02,0.029,0.032,0.062,0.045,0.097
			c0.092,0.232,0.141,0.479,0.143,0.726v0.01c0.006,0.539-0.126,1.069-0.385,1.547c0.814-0.646,1.564-1.365,2.242-2.146
			c-2.836,7.343-9.693,6.04-10.52,12.951c-0.824,6.932,5.771,4.828,5.771,4.828c1.835-0.096,1.923,2.714,1.923,2.714
			c1.011,0,0.824-1.231,0.824-1.231c-0.302-1.799-1.944-3.108-3.849-3.063c-5.308,0-3.209-3.334-3.209-3.334
			c0.824-2.545,7.792-7.889,7.792-7.889c9.616-8.764,2.563-16.569,2.563-16.569C209.529,126.402,210.497,117.187,210.497,117.187z
			 M139.336,150.714c-0.829,0.791-1.721,1.522-2.659,2.189c0.878,0.16,1.646,0.663,2.121,1.389c0.301-1.056,1.152-1.884,2.253-2.188
			C140.351,151.809,139.755,151.327,139.336,150.714L139.336,150.714z"/>
	</g>
	<g id="Capa_32" transform="translate(175.721 143.579)">
		<path id="Trazado_55" fill="#214E70" d="M137.379,137.383c0.196,0,0.395-0.029,0.581-0.086c-0.043,0.831-0.133,1.672-0.254,2.527
			c-0.106-0.021-0.219-0.032-0.328-0.032c-1.147,0.002-2.077,0.895-2.074,1.994c0.002,0.934,0.682,1.74,1.635,1.941
			c-0.495,1.972-1.142,3.904-1.935,5.786c-3.704,1.438-7.76,1.842-11.692,1.168c-0.832-0.114-1.658-0.267-2.474-0.464
			c0.683-0.637,1.305-1.33,1.858-2.07c0.698-0.898,1.33-1.844,1.892-2.829c0.647-1.148,1.198-2.344,1.646-3.577
			c1.355-3.832,1.65-7.937,0.857-11.91v-0.01c-0.11-0.579-0.244-1.168-0.4-1.767c-0.154-0.454-0.319-0.905-0.483-1.328
			c-0.487-1.252-1.079-2.465-1.77-3.629c-0.533-0.906-1.131-1.779-1.791-2.608c-2.677-3.523-6.537-6.059-10.936-7.179
			c0,0-0.274-1.01-0.614-2.809c-1.297-7.144-1.602-14.42-0.9-21.64c0.165-1.818,0.418-3.69,0.747-5.608
			c0.495-2.854,1.17-5.679,2.022-8.458c0.481-1.598,1.044-3.217,1.681-4.838c1.005-2.556,2.18-5.046,3.517-7.459
			c0.9-1.641,1.893-3.271,2.989-4.881h0.011c0.44-0.671,0.912-1.341,1.407-1.998c0,0,4.319-15.918,19.938-20.526
			c-2.188,2.125-10.078,11.487-15.85,40.313c-0.904,0.41-1.481,1.281-1.481,2.241c-0.005,0.644,0.261,1.259,0.733,1.714
			c-0.505,2.788-0.986,5.744-1.449,8.867c-0.192-0.051-0.395-0.076-0.595-0.074c-1.305-0.005-2.366,1.001-2.374,2.252
			c-0.006,1.249,1.048,2.267,2.354,2.273c-0.603,4.586-1.154,9.521-1.627,14.837c3.674,2.494,6.863,5.586,9.429,9.132
			c-0.306,0.217-0.485,0.561-0.483,0.926c-0.002,0.643,0.541,1.167,1.215,1.168c0.003,0,0.005,0,0.007,0
			c0.209,0.003,0.415-0.052,0.593-0.158c1.724,2.694,3.037,5.61,3.9,8.659c-1.03,0.481-1.459,1.667-0.957,2.653
			c0.33,0.65,1.003,1.077,1.757,1.113c0.121,0.8,0.209,1.628,0.264,2.473c-0.185-0.056-0.377-0.084-0.571-0.084
			c-1.147,0.023-2.062,0.936-2.034,2.037c0.022,1.066,0.922,1.926,2.034,1.95L137.379,137.383L137.379,137.383z"/>
	</g>
	<g id="Capa_3" transform="translate(95.523 136.381)">
		<path id="Trazado_56" fill="#1B74AE" d="M191.673,61.356l-0.103,0.126c-0.088,0.097-0.164,0.191-0.239,0.287
			c-0.022,0.031-0.045,0.054-0.066,0.084c-0.088,0.105-0.176,0.222-0.286,0.348c-0.033,0.048-0.068,0.095-0.107,0.139
			c-0.121,0.145-0.242,0.294-0.354,0.442c-1.125,1.362-2.151,2.797-3.077,4.291c-0.058,0.073-0.107,0.15-0.152,0.231
			c-6.552,9.712-17.913,30.319-16.121,54.183c-6.372,3.718-10.893,9.755-12.521,16.728c-1.105,7.738,1.64,15.527,7.418,21.039
			c-5.792,9.502-13.221,11.636-19.54,11.193h-0.011c-0.571-0.042-1.121-0.105-1.67-0.179c-2.486-0.373-4.909-1.066-7.2-2.062
			c0,0-0.286-0.126-0.758-0.348c-0.231-0.104-0.506-0.242-0.813-0.4c-0.671-0.325-1.494-0.765-2.353-1.283
			c-0.07-0.049-0.146-0.096-0.22-0.136c-0.058-0.031-0.103-0.063-0.121-0.074c0-0.007-0.005-0.012-0.011-0.012l-0.552-2.366
			c-17.856-6.837-10.166-20.378-10.166-20.378c-4.525-0.661-6.867-6.048-6.867-6.048c-3.021-16.569,8.301-23.806,8.301-23.806
			c-20.955-10.643-13.848-30.872-9.405-39.708c0.728-1.477,1.543-2.914,2.439-4.303c10.793-14.686,21.101-15.927,25.179-15.737
			c0.464,0.013,0.927,0.055,1.385,0.126c0.063,0.019,0.123,0.029,0.188,0.031l0.011,0.01c0.033,0,0.063,0.01,0.1,0.01
			c0.11,0.032,0.165,0.042,0.165,0.042v-0.01c5.146-9.068,10.759-13.729,15.529-16.082c0.253-0.126,0.495-0.242,0.734-0.348
			c0.266-0.126,0.538-0.243,0.791-0.349c0.45-0.179,0.892-0.346,1.318-0.495l0.563-0.191c0.119-0.032,0.239-0.062,0.36-0.105
			c0.484-0.136,0.945-0.253,1.388-0.358c0.088-0.02,0.164-0.03,0.253-0.052c0.492-0.116,0.967-0.192,1.418-0.252l0.495-0.063
			c0.3-0.031,0.579-0.052,0.846-0.074c0.187-0.02,0.363-0.02,0.527-0.031c0.923-0.044,1.848,0.009,2.759,0.157
			c0.01,0.007,0.021,0.01,0.031,0.012h0.021c0.286,0.084,0.561,0.158,0.835,0.252c0.275,0.095,0.56,0.168,0.824,0.253
			c0.769,0.252,1.506,0.505,2.209,0.766c0.561,0.21,1.1,0.43,1.616,0.66c0.151,0.074,0.308,0.139,0.462,0.213
			C195.004,45.765,191.673,61.356,191.673,61.356z"/>
	</g>
	<g id="Capa_4" transform="translate(108.332 144.271)">
		<ellipse id="Elipse_101" fill="#293785" cx="130.527" cy="135.912" rx="1.605" ry="1.539"/>
		<ellipse id="Elipse_102" fill="#293785" cx="130.164" cy="141.99" rx="1.619" ry="1.549"/>
		<ellipse id="Elipse_103" fill="#444058" cx="129.65" cy="148.081" rx="1.618" ry="1.55"/>
		<ellipse id="Elipse_104" fill="#444058" cx="129.65" cy="153.58" rx="1.618" ry="1.55"/>
		<ellipse id="Elipse_105" fill="#293785" cx="123.325" cy="153.58" rx="1.619" ry="1.55"/>
		<ellipse id="Elipse_106" fill="#293785" cx="123.656" cy="147.727" rx="1.619" ry="1.55"/>
		<ellipse id="Elipse_107" fill="#293785" cx="124.025" cy="141.573" rx="1.618" ry="1.55"/>
		<ellipse id="Elipse_108" fill="#293785" cx="124.334" cy="135.62" rx="1.397" ry="1.338"/>
		<ellipse id="Elipse_109" fill="#293785" cx="118.145" cy="135.62" rx="1.396" ry="1.338"/>
		<ellipse id="Elipse_110" fill="#293785" cx="117.585" cy="141.362" rx="1.397" ry="1.337"/>
		<ellipse id="Elipse_111" fill="#293785" cx="117.585" cy="147.05" rx="1.397" ry="1.338"/>
		<path id="Trazado_57" fill="#293785" d="M118.518,153.787c0.002,0.409-0.191,0.797-0.525,1.054
			c-0.771-0.357-1.523-0.75-2.254-1.179c0.07-0.733,0.75-1.272,1.516-1.204C117.972,152.521,118.52,153.099,118.518,153.787
			L118.518,153.787z"/>
		<ellipse id="Elipse_112" fill="#293785" cx="111.236" cy="147.05" rx="1.396" ry="1.338"/>
		<ellipse id="Elipse_113" fill="#293785" cx="111.945" cy="141.362" rx="1.396" ry="1.337"/>
		<ellipse id="Elipse_114" fill="#293785" cx="111.945" cy="134.573" rx="0.984" ry="0.943"/>
		<ellipse id="Elipse_115" fill="#293785" cx="112.221" cy="128.868" rx="0.985" ry="0.943"/>
		<ellipse id="Elipse_116" fill="#293785" cx="118.522" cy="129.275" rx="1.351" ry="1.293"/>
		<ellipse id="Elipse_117" fill="#293785" cx="130.782" cy="130.161" rx="1.672" ry="1.6"/>
		<ellipse id="Elipse_118" fill="#293785" cx="124.712" cy="129.526" rx="1.239" ry="1.187"/>
		<ellipse id="Elipse_119" fill="#293785" cx="130.888" cy="124.657" rx="1.268" ry="1.213"/>
		<ellipse id="Elipse_120" fill="#293785" cx="136.477" cy="136.173" rx="1.99" ry="1.906"/>
		<ellipse id="Elipse_121" fill="#444058" cx="136.243" cy="142.167" rx="1.992" ry="1.907"/>
		<ellipse id="Elipse_122" fill="#444058" cx="135.648" cy="148.439" rx="2.267" ry="2.17"/>
		<ellipse id="Elipse_123" fill="#444058" cx="135.073" cy="154.047" rx="2.895" ry="2.771"/>
		<path id="Trazado_58" fill="#444058" d="M144.61,160.183c-1.896,1.088-3.986,1.821-6.165,2.167
			c-0.997-1.499-0.536-3.488,1.027-4.44c0.404-0.248,0.859-0.409,1.337-0.472c0.204,0.034,0.415,0.051,0.625,0.052
			c0.157,0.002,0.316-0.012,0.474-0.042C143.33,157.707,144.419,158.809,144.61,160.183z"/>
		<path id="Trazado_59" fill="#444058" d="M137.749,160.047c0.006,1.418-1.188,2.572-2.671,2.577
			c-1.48,0.005-2.687-1.139-2.691-2.557c-0.005-1.419,1.19-2.572,2.672-2.577c0.005,0,0.009,0,0.013,0
			C136.546,157.489,137.745,158.633,137.749,160.047z"/>
		<path id="Trazado_60" fill="#444058" d="M141.907,157.448c-0.156,0.03-0.314,0.043-0.474,0.042
			c-0.211-0.001-0.42-0.019-0.627-0.052c0.155-0.029,0.313-0.044,0.475-0.042C141.491,157.396,141.7,157.414,141.907,157.448z"/>
		<path id="Trazado_61" fill="#444058" d="M153.261,151.356c-1.778,3.076-4.209,5.763-7.132,7.89
			c-0.953-0.895-1.487-2.12-1.481-3.398c0.001-0.314,0.028-0.628,0.088-0.938c-0.282,1.335-1.415,2.351-2.824,2.536
			c-0.207-0.033-0.416-0.051-0.626-0.052c-0.159-0.002-0.317,0.013-0.473,0.042c-1.826-0.332-3.025-2.016-2.682-3.764
			c0.231-1.17,1.118-2.121,2.307-2.475c-1.264-0.92-1.506-2.646-0.544-3.853c0.408-0.515,0.993-0.875,1.652-1.017
			c-1.815-0.472-2.892-2.264-2.397-4.003c0.358-1.272,1.482-2.213,2.851-2.383c0.344,0.127,0.708,0.193,1.076,0.192
			c0.153,0,0.309-0.011,0.462-0.032h0.012c1.778,0.579,2.73,2.427,2.126,4.129c-0.4,1.132-1.421,1.962-2.652,2.162
			c1.141,0.351,1.936,1.337,2,2.483c-0.005-1.951,1.229-3.709,3.12-4.439C149.388,147.025,151.125,149.37,153.261,151.356z"/>
		<path id="Trazado_62" fill="#444058" d="M143.533,140.1c-0.153,0.021-0.309,0.032-0.462,0.032
			c-0.368,0.001-0.733-0.064-1.076-0.192c0.146-0.02,0.291-0.031,0.438-0.031C142.809,139.908,143.181,139.973,143.533,140.1z"/>
		<path id="Trazado_63" fill="#444058" d="M146.016,138.08c-0.362,1.065-1.317,1.846-2.475,2.02h-0.009
			c-0.153,0.021-0.309,0.032-0.462,0.032c-0.368,0.001-0.733-0.064-1.076-0.192c-1.598-0.57-2.41-2.269-1.815-3.798
			c0.596-1.528,2.37-2.308,3.97-1.739c0.638,0.227,1.18,0.651,1.541,1.202c0.012,0,0.012,0,0,0.013
			C145.751,136.442,145.859,137.265,146.016,138.08z"/>
		<path id="Trazado_64" fill="#444058" d="M145.93,129.875c-0.065,0.287-0.089,0.442-0.089,0.442
			c-0.064,0.525-0.12,1.053-0.165,1.568c-0.72,1.05-2.192,1.343-3.291,0.653c-1.098-0.69-1.401-2.099-0.683-3.151
			c0.721-1.049,2.194-1.341,3.292-0.652C145.427,129.008,145.756,129.407,145.93,129.875L145.93,129.875z"/>
		<path id="Trazado_65" fill="#323473" d="M219.531,135.606c0.002,0.135-0.013,0.27-0.044,0.4c-0.229,1.245-1.469,2.075-2.769,1.855
			c-1.299-0.22-2.166-1.404-1.938-2.649c0.229-1.243,1.468-2.074,2.767-1.855c0.932,0.157,1.677,0.823,1.903,1.702v0.02
			C219.507,135.249,219.533,135.428,219.531,135.606z"/>
		<ellipse id="Elipse_124" fill="#323473" cx="216.828" cy="129.358" rx="2.08" ry="1.991"/>
		<ellipse id="Elipse_125" fill="#323473" cx="217.241" cy="123.586" rx="2.08" ry="1.991"/>
		<ellipse id="Elipse_126" fill="#293785" cx="217.7" cy="117.621" rx="1.736" ry="1.662"/>
		<ellipse id="Elipse_127" fill="#293785" cx="217.701" cy="111.919" rx="1.564" ry="1.498"/>
		<ellipse id="Elipse_128" fill="#293785" cx="217.757" cy="105.899" rx="1.565" ry="1.499"/>
		<ellipse id="Elipse_129" fill="#293785" cx="217.757" cy="99.522" rx="1.222" ry="1.169"/>
		<path id="Trazado_66" fill="#43405F" d="M216.981,143.969c-0.066,0.009-0.136,0.012-0.2,0.01
			c-0.322,0.002-0.645-0.052-0.945-0.158c0.073-0.008,0.146-0.012,0.221-0.01C216.372,143.808,216.684,143.863,216.981,143.969z"/>
		<path id="Trazado_67" fill="#43405F" d="M216.981,143.969c-0.066,0.009-0.136,0.012-0.2,0.01
			c-0.322,0.002-0.645-0.052-0.945-0.158c0.073-0.008,0.146-0.012,0.221-0.01C216.372,143.808,216.684,143.863,216.981,143.969z"/>
		<path id="Trazado_68" fill="#444058" d="M206.033,146.865v0.01c0.105-0.071,0.21-0.148,0.308-0.232
			C206.246,146.726,206.143,146.801,206.033,146.865z M201.923,152.319c-0.229,0.147-0.462,0.296-0.689,0.432
			c0.229-0.136,0.462-0.287,0.698-0.419c0.057-0.042,0.109-0.074,0.178-0.117c-0.06,0.036-0.119,0.078-0.188,0.109L201.923,152.319z
			 M216.748,154.351c0.566-0.193,1.065-0.537,1.44-0.987c-0.449,0.37-0.932,0.701-1.438,0.992L216.748,154.351z"/>
		<ellipse id="Elipse_130" fill="#323473" cx="211.002" cy="135.144" rx="2.08" ry="1.991"/>
		<ellipse id="Elipse_131" fill="#323473" cx="211.415" cy="129.372" rx="2.08" ry="1.991"/>
		<ellipse id="Elipse_132" fill="#323473" cx="211.415" cy="123.406" rx="1.736" ry="1.661"/>
		<ellipse id="Elipse_133" fill="#373C7C" cx="211.416" cy="117.704" rx="1.565" ry="1.499"/>
		<ellipse id="Elipse_134" fill="#293785" cx="212.388" cy="111.684" rx="1.564" ry="1.498"/>
		<ellipse id="Elipse_135" fill="#194D90" cx="211.93" cy="105.306" rx="1.223" ry="1.169"/>
		<ellipse id="Elipse_136" fill="#293785" cx="211.93" cy="99.761" rx="0.771" ry="0.738"/>
		<path id="Trazado_69" fill="#323473" d="M206.846,141.089c0.008,1.097-0.92,1.993-2.065,1.998c-0.003,0-0.006,0-0.009,0
			c-0.149,0.004-0.299-0.014-0.44-0.052c0.339-1.287,0.596-2.588,0.77-3.903C206.106,139.279,206.849,140.112,206.846,141.089z"/>
		<path id="Trazado_70" fill="#252D60" d="M205.098,139.132c-0.174,1.315-0.431,2.617-0.77,3.903
			c-1.122-0.236-1.832-1.296-1.587-2.37c0.209-0.913,1.052-1.563,2.027-1.565C204.881,139.099,204.991,139.11,205.098,139.132z"/>
		<path id="Trazado_71" fill="#323473" d="M206.846,134.703c0.006,0.881-0.605,1.655-1.492,1.893
			c0.071-1.269,0.067-2.539-0.014-3.808C206.236,133.027,206.854,133.812,206.846,134.703z"/>
		<path id="Trazado_72" fill="#252D60" d="M205.352,136.596v0.01c-0.188,0.057-0.387,0.086-0.582,0.086
			c-1.15-0.025-2.063-0.938-2.037-2.039c0.022-1.066,0.922-1.926,2.037-1.948c0.191,0,0.386,0.028,0.568,0.084
			C205.422,134.055,205.426,135.328,205.352,136.596z"/>
		<path id="Trazado_73" fill="#323473" d="M207.263,128.328c0.002,1.098-0.928,1.995-2.076,1.998
			c-0.036,0.002-0.073-0.002-0.109-0.011c-0.182-1.271-0.449-2.529-0.8-3.767c0.28-0.139,0.595-0.211,0.912-0.21
			C206.333,126.343,207.261,127.231,207.263,128.328z"/>
		<path id="Trazado_74" fill="#252D60" d="M205.076,130.315c-1.145-0.059-2.021-0.99-1.963-2.085
			c0.039-0.723,0.482-1.367,1.163-1.683C204.627,127.787,204.893,129.045,205.076,130.315z"/>
		<ellipse id="Elipse_137" fill="#323473" cx="205.184" cy="123.054" rx="1.735" ry="1.662"/>
		<ellipse id="Elipse_138" fill="#293785" cx="206.158" cy="116.206" rx="1.564" ry="1.499"/>
		<ellipse id="Elipse_139" fill="#252D60" cx="197.068" cy="147.341" rx="2.08" ry="1.991"/>
		<ellipse id="Elipse_140" fill="#252D60" cx="198.391" cy="141.094" rx="1.668" ry="1.596"/>
		<path id="Trazado_75" fill="#252D60" d="M191.13,148.937c0.003,0.389-0.148,0.766-0.429,1.052
			c-0.832-0.113-1.658-0.267-2.474-0.464c0.682-0.638,1.303-1.332,1.855-2.073C190.717,147.698,191.13,148.286,191.13,148.937z"/>
		<ellipse id="Elipse_141" fill="#252D60" cx="198.805" cy="134.078" rx="2.079" ry="1.991"/>
		<path id="Trazado_76" fill="#252D60" d="M194.518,142.687c0,1.097-0.93,1.987-2.073,1.988c-0.002,0-0.003,0-0.004,0
			c-0.156-0.002-0.313-0.02-0.462-0.054c0.646-1.147,1.197-2.343,1.646-3.576C194.184,141.42,194.518,142.034,194.518,142.687z"/>
		<ellipse id="Elipse_142" fill="#252D60" cx="198.391" cy="127.181" rx="1.202" ry="1.152"/>
		<path id="Trazado_77" fill="#252D60" d="M195.363,127.696c0.005,0.596-0.333,1.146-0.879,1.431c-0.11-0.578-0.243-1.167-0.4-1.767
			c-0.154-0.455-0.318-0.905-0.482-1.328h0.021c0.957-0.002,1.736,0.738,1.741,1.653
			C195.363,127.69,195.363,127.692,195.363,127.696z"/>
		<path id="Trazado_78" fill="#252D60" d="M193.152,120.795c-0.001,0.763-0.545,1.428-1.319,1.609
			c-0.533-0.906-1.131-1.779-1.791-2.608c0.323-0.416,0.832-0.66,1.374-0.662C192.374,119.136,193.149,119.879,193.152,120.795z"/>
		<ellipse id="Elipse_143" fill="#252D60" cx="195.322" cy="116.123" rx="1.257" ry="1.203"/>
		<ellipse id="Elipse_144" fill="#252D60" cx="199.32" cy="121.745" rx="1.563" ry="1.499"/>
		<ellipse id="Elipse_145" fill="#293785" cx="206.158" cy="110.635" rx="1.564" ry="1.498"/>
		<ellipse id="Elipse_146" fill="#293785" cx="206.158" cy="104.958" rx="1.221" ry="1.169"/>
		<ellipse id="Elipse_147" fill="#293785" cx="205.698" cy="99.522" rx="0.771" ry="0.739"/>
		<path id="Trazado_79" fill="#252D60" d="M200.372,117.891c-0.178,0.105-0.384,0.161-0.593,0.158
			c-0.672,0.002-1.22-0.518-1.22-1.162c0-0.002,0-0.004,0-0.006c-0.003-0.364,0.178-0.708,0.481-0.926
			C199.493,116.567,199.944,117.218,200.372,117.891z"/>
		<path id="Trazado_80" fill="#293785" d="M200.999,116.882c0.004,0.422-0.237,0.811-0.626,1.01
			c-0.429-0.669-0.879-1.326-1.33-1.934c0.532-0.391,1.295-0.298,1.704,0.212C200.911,116.373,201,116.622,200.999,116.882
			L200.999,116.882z"/>
		<ellipse id="Elipse_148" fill="#293785" cx="199.779" cy="111.447" rx="0.771" ry="0.739"/>
		<ellipse id="Elipse_149" fill="#293785" cx="201" cy="109.136" rx="0.771" ry="0.739"/>
		<ellipse id="Elipse_150" fill="#293785" cx="199.779" cy="104.957" rx="0.771" ry="0.739"/>
		<path id="Trazado_81" fill="#43405F" d="M219.531,135.606c0.002,0.135-0.013,0.27-0.044,0.4c-0.041-0.186-0.062-0.376-0.056-0.568
			c0-0.126,0.012-0.242,0.021-0.358C219.507,135.251,219.533,135.428,219.531,135.606z"/>
		<ellipse id="Elipse_151" fill="#43405F" cx="223.114" cy="129.155" rx="2.08" ry="1.991"/>
		<ellipse id="Elipse_152" fill="#43405F" cx="223.527" cy="123.382" rx="2.08" ry="1.991"/>
		<ellipse id="Elipse_153" fill="#293785" cx="223.986" cy="117.417" rx="1.734" ry="1.662"/>
		<ellipse id="Elipse_154" fill="#293785" cx="223.987" cy="111.715" rx="1.563" ry="1.498"/>
		<ellipse id="Elipse_155" fill="#194D90" cx="224.043" cy="105.694" rx="1.565" ry="1.499"/>
		<ellipse id="Elipse_156" fill="#293785" cx="224.043" cy="99.317" rx="1.221" ry="1.169"/>
		<ellipse id="Elipse_157" fill="#43405F" cx="229.354" cy="129.358" rx="2.08" ry="1.991"/>
		<ellipse id="Elipse_158" fill="#43405F" cx="229.768" cy="123.586" rx="2.079" ry="1.991"/>
		<ellipse id="Elipse_159" fill="#43405F" cx="229.768" cy="117.621" rx="1.734" ry="1.662"/>
		<ellipse id="Elipse_160" fill="#293785" cx="230.227" cy="111.919" rx="1.563" ry="1.498"/>
		<ellipse id="Elipse_161" fill="#293785" cx="230.283" cy="105.899" rx="1.564" ry="1.499"/>
		<ellipse id="Elipse_162" fill="#293785" cx="232.852" cy="102.169" rx="0.813" ry="0.778"/>
		<ellipse id="Elipse_163" fill="#293785" cx="230.696" cy="99.929" rx="1.221" ry="1.169"/>
		<ellipse id="Elipse_164" fill="#293785" cx="227.776" cy="98.761" rx="0.844" ry="0.808"/>
		<ellipse id="Elipse_165" fill="#43405F" cx="235.669" cy="130.323" rx="2.08" ry="1.991"/>
		<ellipse id="Elipse_166" fill="#43405F" cx="236.082" cy="124.55" rx="2.08" ry="1.991"/>
		<ellipse id="Elipse_167" fill="#43405F" cx="236.082" cy="118.586" rx="1.736" ry="1.662"/>
		<ellipse id="Elipse_168" fill="#293785" cx="236.542" cy="112.883" rx="1.565" ry="1.499"/>
		<ellipse id="Elipse_169" fill="#293785" cx="236.597" cy="106.863" rx="1.564" ry="1.498"/>
		<ellipse id="Elipse_170" fill="#194D90" cx="236.598" cy="100.486" rx="1.222" ry="1.169"/>
		<path id="Trazado_82" fill="#43405F" d="M268.365,143.687c-0.021-0.112-0.056-0.222-0.102-0.327
			c-0.011-0.033-0.023-0.066-0.045-0.097c-0.044-0.102-0.099-0.203-0.164-0.294c-0.2-0.279-0.474-0.503-0.791-0.652h-0.012
			c-0.009-0.01-0.021-0.013-0.033-0.013c-0.275-0.14-0.586-0.211-0.897-0.21c-0.548-0.002-1.074,0.206-1.462,0.576
			c-0.341-1.198-1.23-2.183-2.418-2.682c1.539-1.131,1.827-3.243,0.646-4.716c-0.573-0.717-1.425-1.18-2.358-1.29
			c1.511-0.227,2.544-1.583,2.308-3.03c-0.236-1.448-1.653-2.436-3.165-2.21s-2.545,1.583-2.309,3.029
			c0.187,1.138,1.117,2.032,2.309,2.211c-1.182,0.132-2.211,0.829-2.737,1.851c-0.152-0.796-0.646-1.493-1.36-1.925
			c1.464-0.946,1.85-2.852,0.858-4.254c-0.986-1.4-2.978-1.77-4.44-0.822c-1.466,0.945-1.853,2.851-0.861,4.252
			c0.256,0.362,0.591,0.669,0.979,0.898c-0.488,0.331-0.866,0.792-1.089,1.326c-0.214-1.145-1.077-2.08-2.24-2.42h-0.012
			c-0.363,0.149-0.758,0.224-1.152,0.221c-0.321,0-0.643-0.05-0.945-0.147c-1.19,0.427-2.006,1.486-2.077,2.703h-0.065
			c-0.169-1.259-1.146-2.283-2.438-2.557c1.683-0.464,2.651-2.144,2.167-3.753c-0.482-1.611-2.238-2.539-3.921-2.075
			c-1.681,0.463-2.651,2.144-2.167,3.753c0.318,1.06,1.214,1.872,2.338,2.118c-0.958,0.254-1.731,0.93-2.088,1.817
			c-0.753-1.561-2.686-2.242-4.314-1.522c-0.812,0.358-1.433,1.019-1.719,1.828c-0.115-1.617-1.58-2.839-3.271-2.727
			c-1.202,0.08-2.245,0.824-2.664,1.907c-0.563-1.872-2.604-2.952-4.558-2.414c-1.438,0.396-2.483,1.587-2.645,3.013v0.021
			c0.053,0.17,0.079,0.348,0.077,0.525c0.002,0.135-0.015,0.268-0.044,0.4c0.185,1.106,0.91,2.061,1.954,2.569
			c-0.975,0.322-1.684,1.131-1.847,2.104c-0.317-1.483-1.834-2.438-3.384-2.134c-1.333,0.263-2.289,1.388-2.287,2.689
			c-0.005,1.165,0.765,2.205,1.912,2.585c-0.756,0.06-1.444,0.436-1.879,1.031c-0.407-0.875-1.134-1.579-2.044-1.977
			c0.713-0.329,1.166-1.019,1.165-1.777c0-1.098-0.931-1.988-2.076-1.989c-1.146,0-2.078,0.89-2.078,1.988
			c0,0.551,0.238,1.077,0.659,1.453c-2.053,0.276-3.577,1.962-3.572,3.945c0,0.126,0.012,0.243,0.022,0.369
			c0.107-0.063,0.213-0.138,0.308-0.22c1.043-0.726,1.976-1.585,2.771-2.557c0.163,1.525-0.837,3.124-2.387,4.64
			c0.418,0.613,1.016,1.097,1.714,1.389c-1.099,0.303-1.95,1.133-2.253,2.188c-0.475-0.727-1.241-1.229-2.12-1.389
			c-0.627,0.452-1.285,0.883-1.957,1.305c-0.064,0.042-0.119,0.074-0.177,0.114c-0.241,0.138-0.473,0.289-0.698,0.421
			c-0.318,0.191-0.639,0.383-0.955,0.557c-2.149,1.225-4.369,2.332-6.649,3.314c9.737,1.347,15.99,0.433,19.815-0.831
			c1.147-0.368,2.256-0.852,3.3-1.441h0.011c0.509-0.289,0.991-0.619,1.44-0.988l0.011-0.011c0.188-0.152,0.364-0.317,0.528-0.495
			c0.272,4.64,7.867,6.222,7.867,6.222c2.571,1.841,0.969,3.682,0.969,3.682c-1.058,1.315-2.52,3.598-2.52,3.598
			c-0.923,3.072,0.638,2.454,0.638,2.454c0.09-2.454,1.286-3.241,1.286-3.241c0.994-1.84,2.956-3.018,5.12-3.072
			c4.583-1.745,0.824-5.871,0.824-5.871c-3.473-4.731,1.2-8.068,1.2-8.068c3.108-2.368,8.242-0.958,8.242-0.958
			c13.221,5.723,21.848,1.105,25.672-1.957c0.259-0.478,0.391-1.009,0.385-1.547v-0.01
			C268.414,143.952,268.397,143.818,268.365,143.687z M218.295,145.055c-0.296-0.491-0.757-0.873-1.308-1.084
			c1.336-0.091,2.427-1.056,2.627-2.325c0.096,0.433,0.302,0.839,0.6,1.177c-0.981,0.395-1.7,1.23-1.917,2.23L218.295,145.055
			L218.295,145.055z M224.995,140.195c-0.194-0.54-0.569-1.001-1.065-1.314c1.291-0.273,2.324-1.197,2.699-2.411
			c0.252,0.673,0.753,1.234,1.407,1.579c-1.341,0.141-2.5,0.96-3.035,2.146L224.995,140.195L224.995,140.195z"/>
		<ellipse id="Elipse_171" fill="#43405F" cx="241.992" cy="124.347" rx="2.08" ry="1.991"/>
		<ellipse id="Elipse_172" fill="#43405F" cx="241.992" cy="118.381" rx="1.735" ry="1.662"/>
		<ellipse id="Elipse_173" fill="#293785" cx="242.452" cy="112.68" rx="1.564" ry="1.499"/>
		<ellipse id="Elipse_174" fill="#293785" cx="242.508" cy="106.659" rx="1.565" ry="1.498"/>
		<ellipse id="Elipse_175" fill="#293785" cx="242.508" cy="100.282" rx="1.223" ry="1.169"/>
		<path id="Trazado_83" fill="#43405F" d="M250.779,130.276c-0.006,1.137-0.712,2.164-1.8,2.617h-0.014
			c-0.363,0.15-0.757,0.225-1.151,0.222c-1.645,0.004-2.979-1.266-2.981-2.838c-0.004-1.573,1.323-2.85,2.965-2.854
			c1.645-0.004,2.979,1.266,2.981,2.838C250.779,130.267,250.779,130.272,250.779,130.276z"/>
		<ellipse id="Elipse_176" fill="#43405F" cx="248.443" cy="124.143" rx="2.08" ry="1.991"/>
		<ellipse id="Elipse_177" fill="#43405F" cx="248.443" cy="118.179" rx="1.734" ry="1.662"/>
		<ellipse id="Elipse_178" fill="#293785" cx="248.903" cy="112.476" rx="1.563" ry="1.499"/>
		<ellipse id="Elipse_179" fill="#293785" cx="248.959" cy="106.456" rx="1.565" ry="1.499"/>
		<ellipse id="Elipse_180" fill="#293785" cx="246.707" cy="103.112" rx="1.221" ry="1.169"/>
		<ellipse id="Elipse_181" fill="#43405F" cx="254.807" cy="126.009" rx="2.079" ry="1.991"/>
		<ellipse id="Elipse_182" fill="#43405F" cx="254.807" cy="120.045" rx="1.735" ry="1.661"/>
		<ellipse id="Elipse_183" fill="#293785" cx="255.266" cy="113.212" rx="1.735" ry="1.663"/>
		<ellipse id="Elipse_184" fill="#293785" cx="262.498" cy="112.68" rx="2.535" ry="2.427"/>
		<ellipse id="Elipse_185" fill="#293785" cx="267.541" cy="114.091" rx="2.123" ry="2.033"/>
		<ellipse id="Elipse_186" fill="#293785" cx="272.972" cy="119.021" rx="2.122" ry="2.033"/>
		<ellipse id="Elipse_187" fill="#293785" cx="270.48" cy="123.366" rx="1.299" ry="1.244"/>
		<path id="Trazado_84" fill="#293785" d="M274.391,127.062c-0.26,0.147-0.556,0.224-0.855,0.221
			c-0.971,0.002-1.76-0.75-1.763-1.679c-0.002-0.93,0.781-1.685,1.754-1.688c0.795-0.002,1.491,0.506,1.7,1.24L274.391,127.062z"/>
		<ellipse id="Elipse_188" fill="#293785" cx="273.7" cy="113.601" rx="1.611" ry="1.543"/>
		<ellipse id="Elipse_189" fill="#293785" cx="271.275" cy="110.008" rx="1.61" ry="1.543"/>
		<path id="Trazado_85" fill="#293785" d="M276.217,106.698c-0.455,0.612-1.19,0.976-1.978,0.977
			c-1.325,0.002-2.402-1.024-2.404-2.293c-0.002-1.038,0.724-1.947,1.769-2.22C274.673,104.193,275.556,105.388,276.217,106.698z"/>
		<ellipse id="Elipse_190" fill="#293785" cx="266.275" cy="106.922" rx="1.61" ry="1.543"/>
		<ellipse id="Elipse_191" fill="#194D90" cx="261.116" cy="101.246" rx="1.611" ry="1.543"/>
		<ellipse id="Elipse_192" fill="#293785" cx="261.116" cy="106.922" rx="1.611" ry="1.543"/>
		<ellipse id="Elipse_193" fill="#293785" cx="268.477" cy="103.112" rx="1.611" ry="1.543"/>
		<ellipse id="Elipse_194" fill="#293785" cx="254.339" cy="106.66" rx="1.612" ry="1.543"/>
		<ellipse id="Elipse_195" fill="#293785" cx="257.563" cy="109.745" rx="1.61" ry="1.543"/>
		<ellipse id="Elipse_196" fill="#194D90" cx="255.216" cy="100.86" rx="1.612" ry="1.543"/>
		<ellipse id="Elipse_197" fill="#194D90" cx="255.951" cy="87.391" rx="2.162" ry="2.069"/>
		<ellipse id="Elipse_198" fill="#194D90" cx="261.117" cy="87.127" rx="2.162" ry="2.07"/>
		<ellipse id="Elipse_199" fill="#194D90" cx="261.117" cy="81.825" rx="2.162" ry="2.07"/>
		<path id="Trazado_86" fill="#194D90" d="M265.455,77.715c-0.249,0.107-0.519,0.161-0.791,0.158
			c-1.191,0.007-2.165-0.91-2.173-2.053c-0.008-1.077,0.852-1.979,1.973-2.071C265,75.016,265.335,76.353,265.455,77.715z"/>
		<ellipse id="Elipse_200" fill="#194D90" cx="258.555" cy="73.172" rx="2.162" ry="2.069"/>
		<path id="Trazado_87" fill="#194D90" d="M257.521,67.143c-0.813,0.831-2.179,0.874-3.046,0.096
			c-0.381-0.339-0.616-0.801-0.671-1.295C255.084,66.22,256.329,66.621,257.521,67.143z"/>
		<ellipse id="Elipse_201" fill="#194D90" cx="253.604" cy="92.55" rx="2.161" ry="2.069"/>
		<ellipse id="Elipse_202" fill="#194D90" cx="259.176" cy="93.732" rx="2.162" ry="2.069"/>
		<ellipse id="Elipse_203" fill="#194D90" cx="247.93" cy="89.459" rx="2.161" ry="2.069"/>
		<ellipse id="Elipse_204" fill="#194D90" cx="251.121" cy="84.537" rx="2.162" ry="2.069"/>
		<ellipse id="Elipse_205" fill="#194D90" cx="254.339" cy="79.082" rx="2.162" ry="2.07"/>
		<ellipse id="Elipse_206" fill="#194D90" cx="252.177" cy="71.104" rx="2.162" ry="2.069"/>
		<ellipse id="Elipse_207" fill="#194D90" cx="248.444" cy="76.394" rx="2.162" ry="2.069"/>
		<ellipse id="Elipse_208" fill="#194D90" cx="245.275" cy="81.963" rx="2.162" ry="2.069"/>
		<ellipse id="Elipse_209" fill="#194D90" cx="242.508" cy="86.798" rx="1.543" ry="1.477"/>
		<ellipse id="Elipse_210" fill="#194D90" cx="239.362" cy="91.527" rx="1.543" ry="1.477"/>
		<ellipse id="Elipse_211" fill="#293785" cx="236.598" cy="95.673" rx="1.543" ry="1.477"/>
		<ellipse id="Elipse_212" fill="#194D90" cx="230.605" cy="94.198" rx="1.189" ry="1.14"/>
		<ellipse id="Elipse_213" fill="#194D90" cx="225.914" cy="90.05" rx="1.191" ry="1.14"/>
		<ellipse id="Elipse_214" fill="#194D90" cx="225.552" cy="94.871" rx="1.191" ry="1.14"/>
		<ellipse id="Elipse_215" fill="#293785" cx="221.63" cy="96.01" rx="1.191" ry="1.14"/>
		<ellipse id="Elipse_216" fill="#194D90" cx="218.574" cy="94.198" rx="1.189" ry="1.14"/>
		<ellipse id="Elipse_217" fill="#194D90" cx="220.439" cy="89.195" rx="1.189" ry="1.14"/>
		<ellipse id="Elipse_218" fill="#194D90" cx="212.354" cy="93.179" rx="1.189" ry="1.14"/>
		<ellipse id="Elipse_219" fill="#194D90" cx="214.862" cy="86.197" rx="1.189" ry="1.14"/>
		<ellipse id="Elipse_220" fill="#194D90" cx="223.155" cy="83.101" rx="1.19" ry="1.14"/>
		<ellipse id="Elipse_221" fill="#194D90" cx="226.455" cy="77.533" rx="1.544" ry="1.478"/>
		<ellipse id="Elipse_222" fill="#194D90" cx="229.061" cy="72.178" rx="1.544" ry="1.478"/>
		<ellipse id="Elipse_223" fill="#194D90" cx="232.781" cy="67.556" rx="1.544" ry="1.478"/>
		<ellipse id="Elipse_224" fill="#194D90" cx="224.722" cy="69.307" rx="1.544" ry="1.478"/>
		<ellipse id="Elipse_225" fill="#194D90" cx="220.439" cy="74.324" rx="1.544" ry="1.478"/>
		<ellipse id="Elipse_226" fill="#194D90" cx="217.383" cy="79.894" rx="1.544" ry="1.478"/>
		<ellipse id="Elipse_227" fill="#194D90" cx="227.198" cy="64.433" rx="1.544" ry="1.478"/>
		<ellipse id="Elipse_228" fill="#194D90" cx="230.606" cy="59.468" rx="1.544" ry="1.479"/>
		<ellipse id="Elipse_229" fill="#194D90" cx="235.783" cy="61.974" rx="1.544" ry="1.478"/>
		<ellipse id="Elipse_230" fill="#194D90" cx="221.983" cy="60.945" rx="1.521" ry="1.456"/>
		<ellipse id="Elipse_231" fill="#194D90" cx="218.649" cy="66.078" rx="1.521" ry="1.456"/>
		<ellipse id="Elipse_232" fill="#194D90" cx="224.722" cy="56.382" rx="0.978" ry="0.935"/>
		<ellipse id="Elipse_233" fill="#194D90" cx="227.023" cy="52.454" rx="0.977" ry="0.935"/>
		<ellipse id="Elipse_234" fill="#194D90" cx="229.719" cy="48.462" rx="0.979" ry="0.935"/>
		<ellipse id="Elipse_235" fill="#194D90" cx="232.024" cy="43.966" rx="0.977" ry="0.936"/>
		<ellipse id="Elipse_236" fill="#194D90" cx="234.238" cy="39.439" rx="0.977" ry="0.936"/>
		<ellipse id="Elipse_237" fill="#194D90" cx="229.408" cy="37.025" rx="0.977" ry="0.936"/>
		<ellipse id="Elipse_238" fill="#194D90" cx="224.175" cy="36.001" rx="0.979" ry="0.936"/>
		<ellipse id="Elipse_239" fill="#194D90" cx="222.941" cy="48.462" rx="0.977" ry="0.935"/>
		<ellipse id="Elipse_240" fill="#194D90" cx="227.516" cy="40.682" rx="0.978" ry="0.935"/>
		<ellipse id="Elipse_241" fill="#194D90" cx="224.911" cy="44.364" rx="0.978" ry="0.935"/>
		<ellipse id="Elipse_242" fill="#194D90" cx="221.089" cy="40.372" rx="0.979" ry="0.935"/>
		<ellipse id="Elipse_243" fill="#194D90" cx="233.842" cy="54.514" rx="1.818" ry="1.74"/>
		<ellipse id="Elipse_244" fill="#194D90" cx="236.336" cy="49.396" rx="1.818" ry="1.74"/>
		<ellipse id="Elipse_245" fill="#194D90" cx="238.763" cy="44.823" rx="1.817" ry="1.74"/>
		<ellipse id="Elipse_246" fill="#194D90" cx="238.763" cy="56.792" rx="1.817" ry="1.74"/>
		<ellipse id="Elipse_247" fill="#194D90" cx="241.32" cy="51.898" rx="1.816" ry="1.74"/>
		<path id="Trazado_88" fill="#194D90" d="M244.607,48.416c-0.207,0.077-0.428,0.117-0.648,0.117
			c-1.001-0.001-1.812-0.777-1.813-1.736c0-0.44,0.173-0.865,0.481-1.189C243.342,46.509,244.002,47.447,244.607,48.416z"/>
		<ellipse id="Elipse_248" fill="#194D90" cx="233.842" cy="88.911" rx="1.553" ry="1.486"/>
		<ellipse id="Elipse_249" fill="#194D90" cx="236.945" cy="83.837" rx="2.101" ry="2.011"/>
		<ellipse id="Elipse_250" fill="#194D90" cx="240.256" cy="78.404" rx="2.103" ry="2.011"/>
		<ellipse id="Elipse_251" fill="#194D90" cx="245.047" cy="71.161" rx="2.103" ry="2.011"/>
		<path id="Trazado_89" fill="#194D90" d="M251.135,65.502c-0.376,1.148-1.65,1.788-2.853,1.427
			c-1.199-0.361-1.867-1.583-1.491-2.731s1.653-1.788,2.854-1.428c0.141,0.042,0.274,0.097,0.402,0.163
			c0.146,0.821,0.267,1.652,0.363,2.514C250.41,65.448,250.673,65.459,251.135,65.502z"/>
		<ellipse id="Elipse_252" fill="#194D90" cx="244.072" cy="59.798" rx="2.271" ry="2.176"/>
		<path id="Trazado_90" fill="#194D90" d="M248.069,55.496c-0.359,0.206-0.771,0.315-1.188,0.316c-1.255,0-2.271-0.976-2.271-2.176
			c0-1.008,0.722-1.884,1.746-2.118C246.999,52.815,247.571,54.141,248.069,55.496z"/>
		<ellipse id="Elipse_253" fill="#194D90" cx="241.32" cy="65.129" rx="2.271" ry="2.176"/>
		<ellipse id="Elipse_254" fill="#194D90" cx="238.141" cy="70.003" rx="2.272" ry="2.176"/>
		<ellipse id="Elipse_255" fill="#194D90" cx="235.055" cy="74.839" rx="2.272" ry="2.176"/>
		<ellipse id="Elipse_256" fill="#194D90" cx="231.504" cy="80.415" rx="1.542" ry="1.476"/>
		<ellipse id="Elipse_257" fill="#194D90" cx="228.74" cy="85.848" rx="1.542" ry="1.476"/>
		<ellipse id="Elipse_258" fill="#194D90" cx="244.072" cy="94.619" rx="2.162" ry="2.07"/>
		<ellipse id="Elipse_259" fill="#293785" cx="249.555" cy="98.755" rx="2.162" ry="2.069"/>
		<ellipse id="Elipse_260" fill="#43405F" cx="260.716" cy="125.6" rx="2.08" ry="1.99"/>
		<ellipse id="Elipse_261" fill="#293785" cx="261.175" cy="119.635" rx="1.736" ry="1.662"/>
		<ellipse id="Elipse_262" fill="#43405F" cx="266.364" cy="137.322" rx="2.539" ry="2.429"/>
		<ellipse id="Elipse_263" fill="#43405F" cx="266.328" cy="131.577" rx="2.08" ry="1.991"/>
		<path id="Trazado_91" fill="#43405F" d="M274.063,138.645c-0.879,0.927-2.375,0.998-3.346,0.158
			c-0.969-0.842-1.043-2.273-0.165-3.202c0.45-0.476,1.093-0.745,1.764-0.743c0.375-0.006,0.745,0.081,1.074,0.251
			C273.822,136.245,274.049,137.44,274.063,138.645z"/>
		<ellipse id="Elipse_264" fill="#43405F" cx="266.742" cy="125.805" rx="2.08" ry="1.991"/>
		<ellipse id="Elipse_265" fill="#293785" cx="266.742" cy="119.84" rx="1.735" ry="1.663"/>
		<ellipse id="Elipse_266" fill="#293785" cx="143.69" cy="124.869" rx="1.831" ry="1.752"/>
		<path id="Trazado_92" fill="#293785" d="M152.369,118.271c-0.759,0.797-1.464,1.641-2.11,2.525
			c-1.026-0.198-1.692-1.157-1.484-2.143c0.207-0.983,1.209-1.621,2.235-1.421C151.612,117.346,152.118,117.733,152.369,118.271z"/>
		<path id="Trazado_93" fill="#444058" d="M141.907,157.448c-0.156,0.03-0.314,0.043-0.474,0.042
			c-0.211-0.001-0.42-0.019-0.627-0.052c0.155-0.029,0.313-0.044,0.475-0.042C141.491,157.396,141.7,157.414,141.907,157.448z"/>
		<path id="Trazado_94" fill="#444058" d="M131.774,160.046c0.001,0.819-0.395,1.591-1.067,2.095
			c-1.477-0.291-2.924-0.698-4.329-1.221c-0.493-1.388,0.282-2.897,1.732-3.369c1.449-0.473,3.024,0.269,3.52,1.658
			c0.099,0.268,0.146,0.553,0.148,0.837H131.774L131.774,160.046z"/>
		<ellipse id="Elipse_267" fill="#293785" cx="137.033" cy="130.161" rx="1.992" ry="1.907"/>
		<ellipse id="Elipse_268" fill="#293785" cx="137.382" cy="125.026" rx="1.624" ry="1.555"/>
		<path id="Trazado_95" fill="#444058" d="M267.268,142.32c0.348,0.101,0.635,0.338,0.791,0.652
			C267.858,142.693,267.586,142.468,267.268,142.32z"/>
		<path id="Trazado_96" fill="#444058" d="M268.225,143.266c-0.046-0.102-0.101-0.203-0.164-0.294
			c0.029,0.034,0.058,0.074,0.075,0.116C268.171,143.146,268.2,143.206,268.225,143.266z"/>
		<path id="Trazado_97" fill="#444058" d="M201.932,152.335c-0.24,0.137-0.474,0.288-0.698,0.419
			c0.229-0.136,0.462-0.287,0.689-0.431L201.932,152.335z"/>
		<path id="Trazado_98" fill="#444058" d="M218.188,153.367c-0.375,0.452-0.874,0.794-1.44,0.987
			C217.257,154.065,217.739,153.735,218.188,153.367z"/>
		<path id="Trazado_99" fill="#1E6CAF" d="M220.221,142.824c-0.984,0.394-1.705,1.229-1.923,2.23
			c-0.296-0.491-0.757-0.873-1.308-1.084c1.336-0.091,2.427-1.056,2.627-2.325C219.714,142.08,219.922,142.487,220.221,142.824z"/>
		<path id="Trazado_100" fill="#1E6CAF" d="M228.045,138.049c-1.344,0.139-2.506,0.958-3.044,2.144
			c-0.193-0.539-0.568-1.001-1.063-1.314c1.289-0.273,2.322-1.197,2.697-2.411C226.888,137.144,227.388,137.706,228.045,138.049z"/>
		<path id="Trazado_101" fill="#444058" d="M248.025,132.757c-0.396,0-0.787,0.071-1.154,0.21c0.305,0.099,0.624,0.148,0.945,0.148
			c0.396,0.003,0.789-0.072,1.151-0.222C248.665,132.799,248.346,132.753,248.025,132.757z"/>
		<ellipse id="Elipse_269" fill="#555273" cx="251.902" cy="139.736" rx="1.465" ry="1.402"/>
		<ellipse id="Elipse_270" fill="#555273" cx="257.58" cy="140.175" rx="1.465" ry="1.402"/>
		<ellipse id="Elipse_271" fill="#555273" cx="251.902" cy="146.355" rx="1.188" ry="1.139"/>
		<ellipse id="Elipse_272" fill="#555273" cx="257.58" cy="146.794" rx="1.088" ry="1.042"/>
		<ellipse id="Elipse_273" fill="#555273" cx="262.302" cy="145.752" rx="1.089" ry="1.042"/>
		<ellipse id="Elipse_274" fill="#555273" cx="231.977" cy="139.736" rx="1.465" ry="1.402"/>
		<ellipse id="Elipse_275" fill="#555273" cx="244.072" cy="140.465" rx="0.974" ry="0.933"/>
		<ellipse id="Elipse_276" fill="#555273" cx="238.723" cy="140.174" rx="0.975" ry="0.932"/>
		<ellipse id="Elipse_277" fill="#555273" cx="220.108" cy="146.225" rx="0.907" ry="0.869"/>
		<ellipse id="Elipse_278" fill="#555273" cx="263.826" cy="141.333" rx="2.038" ry="1.951"/>
		<ellipse id="Elipse_279" fill="#555273" cx="225.2" cy="144.52" rx="1.221" ry="1.169"/>
		<ellipse id="Elipse_280" fill="#555273" cx="218.932" cy="151.047" rx="1.175" ry="1.125"/>
	</g>
	<g id="Capa_36" transform="translate(156.666 166.504)">
		<path id="Trazado_102" fill="#214E70" d="M116.256,88.02c0.044,0.474,0.077,0.726,0.077,0.726
			c-0.913,0.231-1.807,0.529-2.671,0.894c-0.4,0.158-0.791,0.329-1.154,0.486c-0.6,0.272-1.143,0.546-1.569,0.757
			c-0.563,0.288-0.912,0.473-0.912,0.473c-0.395-5.426-0.157-10.876,0.698-16.252c1.932-0.099,3.414-1.674,3.313-3.523
			c-0.068-1.249-0.857-2.357-2.048-2.875c0.527-2.178,1.132-4.292,1.791-6.333c0.524,0.257,1.106,0.39,1.7,0.388
			c0.595,0.002,1.183-0.131,1.714-0.388c-1.38,8.298-1.717,16.725-1,25.101c0.001,0.071,0.009,0.141,0.021,0.21
			C116.238,87.809,116.245,87.912,116.256,88.02z"/>
		<path id="Trazado_103" fill="#214E70" d="M120.684,48.773l-0.329,0.945c-0.146,0.432-0.275,0.853-0.407,1.262
			c-0.615,1.914-1.146,3.828-1.594,5.724c-0.541-0.588-1.268-0.994-2.066-1.157c1-2.431,2.055-4.715,3.132-6.84
			c0.273,0.064,0.555,0.098,0.835,0.098C120.399,48.806,120.543,48.795,120.684,48.773z"/>
		<path id="Trazado_104" fill="#214E70" d="M128.29,34.115c-1.971,2.745-3.681,5.654-5.11,8.69c-0.104-0.127-0.229-0.245-0.36-0.348
			c1.187-2.009,2.316-3.774,3.33-5.28c0.045-0.082,0.096-0.158,0.151-0.232C127.037,35.851,127.707,34.903,128.29,34.115z"/>
	</g>
	<g id="Capa_34" transform="translate(95.593 136.381)">
		<ellipse id="Elipse_281" fill="#5AC0CA" cx="125.639" cy="101.531" rx="4.485" ry="4.295"/>
		<ellipse id="Elipse_282" fill="#5AC0CA" cx="130.407" cy="110.121" rx="4.075" ry="3.9"/>
		<ellipse id="Elipse_283" fill="#5AC0CA" cx="139.01" cy="106.22" rx="4.53" ry="4.339"/>
		<ellipse id="Elipse_284" fill="#5AC0CA" cx="148.716" cy="101.881" rx="4.531" ry="4.339"/>
		<ellipse id="Elipse_285" fill="#5AC0CA" cx="157.973" cy="97.234" rx="4.211" ry="4.032"/>
		<ellipse id="Elipse_286" fill="#5AC0CA" cx="162.185" cy="106.219" rx="4.026" ry="3.856"/>
		<ellipse id="Elipse_287" fill="#5AC0CA" cx="153.249" cy="110.56" rx="4.028" ry="3.856"/>
		<ellipse id="Elipse_288" fill="#5AC0CA" cx="143.586" cy="114.416" rx="3.479" ry="3.33"/>
		<ellipse id="Elipse_289" fill="#5AC0CA" cx="134.613" cy="118.878" rx="3.479" ry="3.33"/>
		<ellipse id="Elipse_290" fill="#5AC0CA" cx="125.528" cy="123.077" rx="3.296" ry="3.155"/>
		<path id="Trazado_105" fill="#5AC0CA" d="M119.29,127.475c-0.008,1.738-1.48,3.146-3.3,3.146c-0.251-0.002-0.502-0.03-0.747-0.085
			c0.083-2.099,0.438-4.18,1.055-6.197C117.99,124.49,119.285,125.847,119.29,127.475z"/>
		<ellipse id="Elipse_291" fill="#5AC0CA" cx="120.877" cy="135.818" rx="2.402" ry="2.299"/>
		<ellipse id="Elipse_292" fill="#5AC0CA" cx="129.897" cy="131.971" rx="2.814" ry="2.694"/>
		<ellipse id="Elipse_293" fill="#5AC0CA" cx="139.252" cy="127.47" rx="3.229" ry="3.089"/>
		<ellipse id="Elipse_294" fill="#5AC0CA" cx="148.157" cy="123.144" rx="3.229" ry="3.089"/>
		<ellipse id="Elipse_295" fill="#5AC0CA" cx="157.492" cy="118.879" rx="3.229" ry="3.089"/>
		<ellipse id="Elipse_296" fill="#5AC0CA" cx="166.854" cy="114.417" rx="2.951" ry="2.825"/>
		<path id="Trazado_106" fill="#3C7592" d="M176.988,113.185c-1.515,0.576-3.229-0.135-3.828-1.585
			c-0.6-1.451,0.145-3.091,1.657-3.665c0.345-0.132,0.712-0.198,1.083-0.198c0.35-0.001,0.695,0.06,1.021,0.179L176.988,113.185z"/>
		<ellipse id="Elipse_297" fill="#5AC0CA" cx="167.266" cy="93.204" rx="3.979" ry="3.811"/>
		<path id="Trazado_107" fill="#3C7592" d="M179.428,86.825c-0.462,1.914-0.849,3.805-1.154,5.67
			c-0.531,0.258-1.118,0.391-1.714,0.388c-0.591,0.002-1.174-0.132-1.7-0.388c0.77-2.378,1.616-4.662,2.506-6.827
			C178.165,85.832,178.888,86.237,179.428,86.825z"/>
		<path id="Trazado_108" fill="#5AC0CA" d="M177.362,85.668c-0.89,2.167-1.736,4.448-2.506,6.827
			c-1.885-0.895-2.656-3.081-1.724-4.886C173.91,86.11,175.654,85.308,177.362,85.668z"/>
		<path id="Trazado_109" fill="#3C7592" d="M175.12,101.879c0,1.783-1.459,3.253-3.316,3.346c0.328-2.189,0.769-4.327,1.264-6.396
			C174.316,99.371,175.12,100.565,175.12,101.879z"/>
		<path id="Trazado_110" fill="#5AC0CA" d="M173.065,98.829c-0.495,2.07-0.936,4.21-1.265,6.396
			c-0.063,0.007-0.125,0.011-0.188,0.009c-1.938-0.003-3.504-1.506-3.501-3.36c0.003-1.851,1.568-3.349,3.501-3.351
			C172.115,98.521,172.611,98.626,173.065,98.829z"/>
		<path id="Trazado_111" fill="#3C7592" d="M184.252,72.927c-0.778,1.6-1.463,3.23-2.089,4.86c-0.132,0.368-0.264,0.736-0.404,1.105
			c-0.145,0.02-0.286,0.03-0.432,0.031c-0.28,0-0.562-0.031-0.835-0.096c1.132-2.283,2.286-4.365,3.4-6.25
			C184.027,72.682,184.147,72.8,184.252,72.927z"/>
		<path id="Trazado_112" fill="#5AC0CA" d="M183.89,72.58c-1.11,1.885-2.267,3.968-3.4,6.25c-2.056-0.442-3.348-2.396-2.886-4.365
			c0.392-1.666,1.937-2.851,3.721-2.852C182.279,71.606,183.198,71.953,183.89,72.58z"/>
		<ellipse id="Elipse_298" fill="#5AC0CA" cx="162.678" cy="84.255" rx="4.462" ry="4.272"/>
		<ellipse id="Elipse_299" fill="#5AC0CA" cx="171.936" cy="79.983" rx="4.187" ry="4.008"/>
		<ellipse id="Elipse_300" fill="#5AC0CA" cx="167.749" cy="71.044" rx="4.463" ry="4.272"/>
		<path id="Trazado_113" fill="#5AC0CA" d="M120.763,105.825c0.001,1.627-0.976,3.112-2.506,3.818
			c-2.224-1.775-4.089-3.921-5.509-6.334c1.448-1.892,4.226-2.301,6.199-0.914C120.091,103.196,120.764,104.471,120.763,105.825
			L120.763,105.825z"/>
		<path id="Trazado_114" fill="#5AC0CA" d="M116.333,96.945c-0.003,2.368-2.011,4.286-4.481,4.284
			c-0.056,0.002-0.11-0.002-0.164-0.012c-1.117-2.57-1.742-5.309-1.847-8.088c0.621-0.304,1.312-0.462,2.011-0.462
			C114.322,92.663,116.329,94.579,116.333,96.945z"/>
		<ellipse id="Elipse_301" fill="#5AC0CA" cx="176.673" cy="66.976" rx="4.188" ry="4.008"/>
		<path id="Trazado_115" fill="#5AC0CA" d="M176.593,37.516c-0.519-0.23-1.058-0.452-1.616-0.66c-0.7-0.263-1.44-0.516-2.209-0.765
			c-0.266-0.086-0.549-0.169-0.824-0.254c-0.275-0.084-0.549-0.168-0.835-0.251h-0.021c-0.013-0.002-0.022-0.005-0.032-0.011
			c-0.911-0.149-1.836-0.202-2.759-0.158c-0.166,0.01-0.343,0.01-0.527,0.03c-0.266,0.021-0.549,0.042-0.848,0.074l-0.493,0.063
			c-0.011,0.045-0.016,0.091-0.014,0.136c-0.002,0.198,0.015,0.394,0.044,0.589c-0.454-0.228-0.942-0.388-1.448-0.474
			c-0.089,0.021-0.165,0.031-0.255,0.052c-0.438,0.105-0.898,0.222-1.386,0.358c-0.121,0.042-0.241,0.074-0.36,0.105l-0.563,0.191
			c-0.429,0.147-0.868,0.316-1.318,0.494c-0.254,0.105-0.526,0.222-0.791,0.349c-0.24,0.105-0.482,0.221-0.734,0.348
			c-0.705,0.852-1.115,1.892-1.176,2.976c-0.705-0.451-1.504-0.748-2.344-0.873c-3.879,2.726-8.076,7.084-11.987,13.993h-0.022
			v-0.011c-0.056-0.003-0.11-0.016-0.165-0.031c-0.037-0.003-0.073-0.01-0.107-0.02c-0.058-0.012-0.121-0.021-0.188-0.031
			c-0.458-0.071-0.921-0.113-1.385-0.126c-4.077-0.191-14.386,1.052-25.179,15.737c0,0-0.848,1.254-1.944,3.356
			c-0.012,0.012-0.021,0.026-0.021,0.042c-0.144,0.295-0.309,0.588-0.463,0.916c-1.289,2.568-2.357,5.231-3.199,7.962
			c0.23,0.044,0.467,0.072,0.699,0.084c-0.369,0.709-0.563,1.492-0.56,2.283c0.001,2.858,2.421,5.174,5.407,5.175
			c0.152,0,0.309-0.01,0.462-0.031c-0.744,0.865-1.151,1.95-1.154,3.072c0,2.638,2.232,4.776,4.989,4.776
			c2.756,0,4.989-2.138,4.989-4.776c0-0.116,0-0.221-0.013-0.338c1.08,1.254,2.688,1.979,4.385,1.979
			c0.243,0.004,0.486-0.015,0.728-0.054c-1.989,1.721-2.146,4.659-0.348,6.564c1.799,1.904,4.866,2.052,6.856,0.332
			c1.989-1.721,2.146-4.66,0.348-6.563c-0.922-0.977-2.23-1.533-3.604-1.532c-0.121,0-0.242,0-0.363,0.012
			c1.319-1.033,2.083-2.581,2.077-4.211c0.002-0.205-0.013-0.409-0.044-0.61c1.035,0.974,2.427,1.52,3.878,1.524
			c-1.082,0.922-1.698,2.243-1.691,3.63c-0.005,2.713,2.291,4.915,5.125,4.92c2.834,0.004,5.136-2.192,5.141-4.906
			c0.004-2.646-2.184-4.819-4.945-4.916c1.245-1.008,1.961-2.491,1.954-4.052c0.002-0.05-0.002-0.098-0.011-0.145
			c0.931,0.855,2.148,1.367,3.438,1.441c-1.729,2.162-1.3,5.258,0.96,6.914c2.262,1.656,5.493,1.244,7.225-0.919
			c1.729-2.163,1.3-5.259-0.96-6.913c-0.744-0.545-1.632-0.887-2.563-0.985c0.832-0.954,1.287-2.157,1.286-3.398
			c0.002-0.288-0.022-0.579-0.077-0.862c2.192,1.559,5.289,1.121,6.917-0.977s1.171-5.063-1.021-6.621
			c-0.854-0.606-1.891-0.937-2.951-0.936c-0.063-0.002-0.125,0.003-0.188,0.012c1.216-1,1.946-2.435,2.022-3.967
			c0.85,0.539,1.848,0.824,2.868,0.82c2.892,0.002,5.235-2.241,5.238-5.009c0.003-2.556-2.005-4.704-4.656-4.985
			c0.824-0.967,1.274-2.18,1.272-3.431c0.002-0.432-0.054-0.863-0.165-1.284c1.87,1.873,4.974,1.94,6.929,0.15
			c1.957-1.79,2.025-4.759,0.155-6.633c-0.923-0.925-2.198-1.448-3.532-1.45c-0.063-0.001-0.126,0.002-0.188,0.011
			c1.097-0.99,1.719-2.371,1.719-3.814c0.002-0.198-0.013-0.394-0.044-0.59c0.78,0.389,1.648,0.592,2.528,0.59
			c2.24,0,4.261-1.292,5.121-3.271v-0.011C176.901,37.642,176.747,37.58,176.593,37.516z M120.435,80.02
			c-0.854-0.684-1.911-1.097-3.022-1.179c0.41-0.757,0.625-1.598,0.626-2.451c0.002-0.088-0.002-0.176-0.011-0.264
			c0.741,0.898,1.77,1.54,2.925,1.827C120.644,78.603,120.468,79.304,120.435,80.02L120.435,80.02z M124.985,89.018
			c-0.939-1.02-2.294-1.604-3.715-1.601c-0.088-0.001-0.177,0.003-0.265,0.012c0.768-0.811,1.236-1.836,1.342-2.926
			c0.891,0.787,2.017,1.289,3.22,1.432c-0.415,0.76-0.63,1.605-0.626,2.462c-0.002,0.206,0.013,0.412,0.044,0.615V89.018z
			 M129.785,75.646c-0.662-0.448-1.414-0.76-2.209-0.915c0.213-0.498,0.335-1.028,0.363-1.567c0.731,0.294,1.514,0.462,2.308,0.495
			c-0.271,0.63-0.428,1.302-0.46,1.983L129.785,75.646z M134.623,83.983c0,0.184,0.013,0.366,0.033,0.547
			c-0.826-0.8-1.896-1.331-3.055-1.515c0.395-0.703,0.63-1.477,0.689-2.272c0.82,0.588,1.784,0.965,2.803,1.093
			C134.781,82.512,134.621,83.244,134.623,83.983z M143.986,79.975c-0.002,0.049,0.002,0.1,0.011,0.148
			c-0.719-0.66-1.61-1.118-2.583-1.328c0.429-0.753,0.676-1.586,0.728-2.441c0.792,0.489,1.688,0.799,2.627,0.905
			C144.252,78.081,143.983,79.019,143.986,79.975L143.986,79.975z M148.085,66.215c-0.731-0.333-1.527-0.518-2.341-0.547
			c0.524-0.722,0.893-1.537,1.077-2.398c0.606,0.257,1.252,0.421,1.912,0.484C148.315,64.512,148.091,65.357,148.085,66.215
			L148.085,66.215z M151.493,49.551c0.82,0.667,1.823,1.096,2.893,1.232c-0.536,0.664-0.896,1.445-1.045,2.272
			c-0.733-0.589-1.604-0.999-2.539-1.199C151.213,51.149,151.451,50.36,151.493,49.551L151.493,49.551z M153.032,75.315
			c0,0.18,0.012,0.357,0.033,0.535c-0.731-0.568-1.604-0.95-2.528-1.115c0.677-0.961,1.035-2.094,1.033-3.253
			c0.746,0.323,1.556,0.488,2.374,0.485c0.19,0,0.382-0.01,0.571-0.032c-0.952,0.89-1.487,2.11-1.484,3.383L153.032,75.315z
			 M157.483,61.86c-0.788-0.573-1.715-0.941-2.693-1.073c0.455-0.721,0.74-1.53,0.835-2.368c0.843,0.595,1.849,0.938,2.893,0.989
			C157.944,60.119,157.585,60.968,157.483,61.86L157.483,61.86z M163.022,49.498c-0.001,0.318,0.033,0.635,0.1,0.945
			c-0.859-0.944-2.045-1.567-3.341-1.756c0.754-0.924,1.175-2.056,1.2-3.229c0.879,0.539,1.901,0.824,2.944,0.821
			c0.152,0,0.309-0.011,0.463-0.021C163.507,47.126,163.016,48.288,163.022,49.498L163.022,49.498z"/>
		<ellipse id="Elipse_302" fill="#5AC0CA" cx="185.567" cy="62.275" rx="3.867" ry="3.702"/>
		<ellipse id="Elipse_303" fill="#3C7592" cx="208.884" cy="62.97" rx="2.858" ry="2.738"/>
		<ellipse id="Elipse_304" fill="#5AC0CA" cx="213.206" cy="71.681" rx="2.86" ry="2.738"/>
		<ellipse id="Elipse_305" fill="#5AC0CA" cx="222.377" cy="66.976" rx="2.058" ry="1.968"/>
		<ellipse id="Elipse_306" fill="#5AC0CA" cx="231.975" cy="62.969" rx="2.056" ry="1.969"/>
		<ellipse id="Elipse_307" fill="#5AC0CA" cx="227.352" cy="54.68" rx="2.056" ry="1.969"/>
		<ellipse id="Elipse_308" fill="#5AC0CA" cx="218.12" cy="58.618" rx="2.057" ry="1.969"/>
		<ellipse id="Elipse_309" fill="#3C7592" cx="213.798" cy="49.885" rx="2.057" ry="1.969"/>
		<ellipse id="Elipse_310" fill="#5AC0CA" cx="222.377" cy="45.948" rx="2.058" ry="1.968"/>
		<path id="Trazado_116" fill="#5AC0CA" d="M233.829,41.128v0.053c0.049,0.978-0.742,1.809-1.764,1.855
			c-1.021,0.044-1.89-0.711-1.938-1.69c-0.003-0.055-0.003-0.109,0-0.165c-0.003-0.032,0.002-0.063,0.013-0.095
			C231.37,41.031,232.601,41.046,233.829,41.128z"/>
		<ellipse id="Elipse_311" fill="#3C7592" cx="203.968" cy="75.977" rx="2.463" ry="2.358"/>
		<path id="Trazado_117" fill="#5AC0CA" d="M210.453,84.848c-0.002,1.359-1.151,2.46-2.571,2.462
			c-0.691,0.003-1.355-0.268-1.836-0.747c0.242-1.357,0.495-2.68,0.747-3.956c1.287-0.577,2.816-0.044,3.419,1.188
			C210.372,84.125,210.455,84.484,210.453,84.848L210.453,84.848z"/>
		<path id="Trazado_118" fill="#3C7592" d="M206.794,82.606c-0.254,1.273-0.507,2.599-0.746,3.956
			c-0.477-0.454-0.74-1.071-0.735-1.714C205.31,83.887,205.887,83.016,206.794,82.606z"/>
		<ellipse id="Elipse_312" fill="#5AC0CA" cx="217.606" cy="80.797" rx="2.572" ry="2.462"/>
		<ellipse id="Elipse_313" fill="#5AC0CA" cx="226.575" cy="76.49" rx="2.572" ry="2.462"/>
		<ellipse id="Elipse_314" fill="#5AC0CA" cx="221.863" cy="89.26" rx="2.046" ry="1.959"/>
		<ellipse id="Elipse_315" fill="#5AC0CA" cx="213.205" cy="93.778" rx="2.046" ry="1.958"/>
		<ellipse id="Elipse_316" fill="#5AC0CA" cx="217.606" cy="102.508" rx="2.046" ry="1.959"/>
		<ellipse id="Elipse_317" fill="#5AC0CA" cx="208.061" cy="106.879" rx="2.046" ry="1.958"/>
		<ellipse id="Elipse_318" fill="#3C7592" cx="198.88" cy="111.172" rx="2.047" ry="1.959"/>
		<ellipse id="Elipse_319" fill="#3C7592" cx="203.249" cy="119.379" rx="2.047" ry="1.958"/>
		<ellipse id="Elipse_320" fill="#3C7592" cx="194.787" cy="102.151" rx="2.366" ry="2.265"/>
		<path id="Trazado_119" fill="#5AC0CA" d="M206.376,97.622c-0.003,1.254-1.063,2.265-2.373,2.263h-0.021
			c0.2-1.525,0.407-3.008,0.615-4.45C205.64,95.69,206.373,96.59,206.376,97.622z"/>
		<path id="Trazado_120" fill="#3C7592" d="M204.595,95.43c-0.209,1.441-0.418,2.926-0.615,4.45
			c-1.305-0.005-2.358-1.023-2.354-2.272c0.009-1.249,1.069-2.258,2.374-2.252C204.203,95.354,204.402,95.379,204.595,95.43z"/>
		<ellipse id="Elipse_321" fill="#3C7592" cx="199.52" cy="89.26" rx="2.366" ry="2.265"/>
		<path id="Trazado_121" fill="#3C7592" d="M198.21,79.988c-0.007,1.582-1.353,2.858-3.005,2.852
			c-0.79-0.003-1.547-0.306-2.104-0.84c0.481-1.6,1.044-3.219,1.681-4.84c0.146-0.021,0.293-0.032,0.44-0.032
			C196.871,77.128,198.208,78.409,198.21,79.988z"/>
		<path id="Trazado_122" fill="#3C7592" d="M193.231,93.2c0.004,1.549-1.282,2.819-2.9,2.861c0.165-1.817,0.418-3.69,0.747-5.606
			C192.353,90.809,193.23,91.927,193.231,93.2z"/>
		<path id="Trazado_123" fill="#3C7592" d="M203.123,67.456c-0.002,1.576-1.34,2.853-2.985,2.851c-0.002,0-0.002,0-0.002,0
			c-0.666,0.005-1.313-0.21-1.836-0.609c0.899-1.641,1.892-3.271,2.988-4.881h0.012C202.401,65.271,203.117,66.307,203.123,67.456z"
			/>
		<ellipse id="Elipse_322" fill="#5AC0CA" cx="181.701" cy="53.895" rx="4.188" ry="4.009"/>
		<ellipse id="Elipse_323" fill="#5AC0CA" cx="176.949" cy="45.252" rx="4.439" ry="4.249"/>
		<path id="Trazado_124" fill="#5AC0CA" d="M191.368,53.834c-2.807-0.46-4.691-3.012-4.211-5.698
			c0.125-0.696,0.403-1.355,0.816-1.938C189.626,48.5,190.78,51.097,191.368,53.834z"/>
		<ellipse id="Elipse_324" fill="#5AC0CA" cx="172.21" cy="58.267" rx="4.738" ry="4.535"/>
		<path id="Trazado_125" fill="#5AC0CA" d="M115.083,72.738c-0.143,0.296-0.308,0.589-0.462,0.916l-0.011-0.01
			C114.764,73.327,114.929,73.022,115.083,72.738z"/>
	</g>
	<g id="Capa_6" transform="translate(214.615 307.673)">
		<path id="Trazado_126" fill="#FAF6F5" d="M142.536,44.499c-0.286-0.085-2.484-0.549-4.836,3.797l-27.092-14.896
			c-1.041-1.27-1.041-3.054,0-4.325c0.961-1,2.508-1.25,3.76-0.609l4.271,2.43L142.536,44.499z"/>
		<path id="Trazado_127" fill="#C8E1ED" d="M117.956,30.505l-3.459,5.031l2.589,1.424l3.489-4.964L117.956,30.505z"/>
	</g>
	<g id="Capa_7" transform="translate(101.284 272.546)">
		<path id="Trazado_128" fill="#F6AB8B" d="M284.56,85.581c-0.013,0.102-0.033,0.199-0.063,0.296
			c-1.033,3.377-10.089,10.574-18.563,17.316c-0.229,0.18-0.45,0.348-0.67,0.525c-2.956,2.251-5.264,4.021-5.968,4.765
			c-0.032,0.03-0.063,0.062-0.088,0.098c-0.031,0.036-0.068,0.069-0.11,0.096c-0.006,0.006-0.01,0.015-0.011,0.021
			c-10.957,8.983-18.265,15.243-30.167,26.658c-0.571,0.546-1.165,1.115-1.758,1.694c-0.475,0.442-0.945,0.903-1.431,1.369
			c-0.482,0.463-0.968,0.946-1.462,1.419c-1.021,0.978-2.045,1.987-3.076,3.009c-0.318,0.316-0.658,0.642-0.988,0.967
			c-4.231,4.041-9.506,8.586-11.979,10.689c-0.119,0.096-0.229,0.189-0.329,0.287l-0.24,0.2l-0.571,0.454
			c-6.833,5.525-14.138,10.495-21.837,14.854c-1.385,0.758-2.154,1.137-2.154,1.137c-12.363-1.599-25.529-15.538-35.5-28.878
			c-6.006-8.088-11.461-16.54-16.331-25.303c-9.254-4.828-14.507-10.972-17.474-16.262c-0.077-0.14-0.165-0.289-0.242-0.442
			c-0.739-1.364-1.386-2.771-1.934-4.213c-0.893-2.239-1.46-4.582-1.692-6.965c-0.549-21.303,1.923-45.237,1.923-45.237
			c0.077-0.21,0.165-0.411,0.253-0.61v-0.011c2.685-6.649,5.7-10.185,8.354-12.016c4-2.775,7.164-1.715,7.164-1.715
			c0.007,0,0.012,0.006,0.012,0.012c0.021,0.011,0.064,0.042,0.121,0.073c0.075,0.042,0.146,0.088,0.22,0.137
			c0.759,0.475,1.544,0.91,2.354,1.305c0.253,0.126,0.526,0.253,0.813,0.381c0.474,0.222,0.758,0.348,0.758,0.348
			c6.481,7.793,12.16,16.167,16.957,25.007c0.4,0.736,0.771,1.452,1.133,2.167c11.747,23.188,8.937,37,8.937,37l23.079,34.537
			c4.3-2.463,8.794-4.602,13.438-6.396c0.066-0.021,0.133-0.03,0.2-0.055c0.068-0.019,0.165-0.041,0.286-0.072
			c0.056-0.01,0.111-0.021,0.165-0.042c0.07-0.015,0.141-0.032,0.209-0.053c0.517-0.127,1.253-0.306,2.2-0.525
			c0.769-0.181,1.657-0.384,2.682-0.61c3.11-0.703,7.341-1.609,12.331-2.557c0.309-0.055,0.604-0.104,0.891-0.158
			c6.362-1.136,12.354-2.074,15.781-2.6c0.495-0.073,0.923-0.137,1.31-0.191c0.101-0.01,0.199-0.03,0.285-0.042
			c0.188-0.021,0.362-0.053,0.519-0.074c0.153-0.02,0.308-0.041,0.429-0.062c0.088-0.012,0.165-0.021,0.231-0.032
			c0.132-0.02,0.209-0.031,0.209-0.031l0.3-0.096c0.044-0.011,0.1-0.031,0.165-0.053c0.148-0.044,0.296-0.092,0.438-0.146
			c0.133-0.043,0.274-0.099,0.431-0.147c0.011,0,0.021-0.011,0.044-0.011c0.187-0.074,0.385-0.138,0.593-0.222
			c0.101-0.042,0.209-0.084,0.318-0.126l0.064-0.032c0.253-0.104,0.507-0.21,0.747-0.305c0.022-0.011,0.056-0.021,0.077-0.031
			c2.113-0.778,4.015-2.005,5.562-3.588c0.044-0.043,0.084-0.09,0.121-0.137c0.036-0.037,0.069-0.075,0.102-0.116l0.1-0.127
			c0-0.012,0.012-0.012,0.012-0.021l0.044-0.085c1.323-2.651,2.411-5.403,3.254-8.226c0.021-0.085,0.056-0.171,0.076-0.242
			c0.674-1.974,1.146-4.002,1.418-6.06c0.008-0.032,0.011-0.063,0.013-0.098c1.143-7.09,2.6-11.382,4.011-13.962
			c2.353-4.344,4.55-3.881,4.836-3.797c0.011,0.006,0.021,0.01,0.033,0.01c5.149-0.244,10.312,0.107,15.375,1.054
			c0.253,0.043,0.525,0.096,0.813,0.158c0.241,0.043,0.475,0.096,0.699,0.146c0.021-0.002,0.038,0.002,0.056,0.013
			c2.495,0.545,5.736,1.503,7.286,1.977c0.462,0.147,0.771,0.242,0.879,0.265c0.033,0.02,0.045,0.02,0.045,0.02
			c0.507,0.181,0.968,0.348,1.361,0.497l1.43,0.588l0.2,0.085l0.109,0.042c0.023,0.017,0.05,0.029,0.077,0.041l0.064,0.031
			c0.02,0.02,0.032,0.039,0.044,0.062C284.546,84.899,284.621,85.246,284.56,85.581z"/>
		<path id="Trazado_129" fill="#F49F85" d="M313.09,62.962c-0.022,0.781-0.161,1.554-0.407,2.298
			c-0.725,1.339-6.539,3.324-11.5,4.818l-0.021,0.01c-3.849,1.157-7.165,2.01-7.165,2.01l-12.946,11.172c0,0-0.011,0-0.044-0.021
			c-0.109-0.021-0.418-0.115-0.879-0.264c-1.528-0.462-4.683-1.4-7.154-1.947l-0.132-0.029c-0.017-0.012-0.036-0.016-0.055-0.014
			c-0.549-0.125-1.066-0.229-1.52-0.303l12.477-14.814c3.846-4.998,8.056-4.649,8.056-4.649l20.881,0.916
			C312.973,62.227,313.079,62.553,313.09,62.962z"/>
	</g>
	<g id="Capa_8" transform="translate(262.718 305.598)">
		<path id="Trazado_130" fill="#F6AB8B" d="M151.656,29.91c-5.033,1.778-17.319,1.705-17.319,1.705
			c-6.882,6.314-14.533,11.81-22.793,16.369l-0.133-0.029c-0.017-0.012-0.036-0.016-0.055-0.012
			c-0.549-0.127-1.066-0.232-1.518-0.305l12.475-14.814c3.846-4.997,8.056-4.649,8.056-4.649l20.881,0.915
			C151.539,29.175,151.645,29.501,151.656,29.91z"/>
	</g>
	<g id="Capa_39" transform="translate(139.037 301.23)">
		<path id="Trazado_131" fill="#F49F85" d="M121.159,67.524c-5.594-9.754-11.32-22.072-11.32-22.072
			c0.832-5.663,1.251-11.375,1.253-17.094c0.4,0.735,0.771,1.451,1.133,2.167C123.972,53.709,121.159,67.524,121.159,67.524z"/>
	</g>
	<g id="Capa_40" transform="translate(103.54 274.546)">
		<path id="Trazado_132" fill="#F49F85" d="M183.274,167.867l-0.286,0.422c-1.066,0.574-1.771,0.938-2.033,1.074
			c-0.077,0.042-0.121,0.063-0.121,0.063c-12.364-1.6-25.53-15.538-35.5-28.878c-5.596-7.547-10.718-15.403-15.339-23.529
			c-0.648-1.138-0.989-1.769-0.989-1.769c-13.463-48.372-17.737-62.796-19.166-73.725v-0.01c0.33-0.832,0.684-1.611,1.022-2.346
			v-0.012c2.418-5.155,5.011-8.059,7.33-9.658c0.132,0.527,8.55,34.822,12.825,44.479c4.308,9.732,26.837,51.508,32.329,60.733
			C168.844,143.941,180.932,164.125,183.274,167.867z"/>
	</g>
	<g id="Capa_9" transform="translate(102.059 342.279)">
		<path id="Trazado_133" fill="#15162E" d="M206.041,85.95v2.725c-0.01,0.168,0.068,0.329,0.209,0.433l-0.639,0.884
			c-1.306,1.216-2.254,2.739-2.747,4.419c-0.01,0.015-0.021,0.029-0.032,0.043c-0.013,0.055-0.021,0.111-0.021,0.168l-0.033,0.223
			v0.01l-0.063,0.506c-0.725,4.806-0.685,9.691,0.12,14.486c-2.72,3.82-4.873,7.979-6.406,12.361
			c-0.242,0.651-0.484,1.302-0.736,1.946c-0.2,0.525-0.407,1.042-0.614,1.556c-0.209,0.513-0.419,1.029-0.638,1.546
			c-0.176,0.441-0.362,0.886-0.56,1.315c-0.178,0.412-0.354,0.819-0.539,1.221c-0.989,2.229-2.033,4.364-3.103,6.427
			c-0.316,0.61-0.637,1.21-0.956,1.798c-0.374,0.684-0.746,1.369-1.121,2.032c-0.909,1.627-1.846,3.197-2.777,4.691
			c-0.912,1.494-1.835,2.924-2.771,4.291c-0.612,0.914-1.229,1.798-1.835,2.652c-0.582,0.832-1.165,1.627-1.734,2.409
			c-2.406,3.24-4.692,6.017-6.684,8.289c-0.242,0.286-0.481,0.55-0.714,0.81c-0.714,0.812-1.4,1.534-2.011,2.204
			c-0.527,0.556-1.013,1.058-1.451,1.513c-1.813,1.853-2.9,2.817-2.9,2.817c-1.24-0.346-2.462-0.735-3.646-1.167
			c-52.239-18.417-52.844-103.169-51.472-132.183c0.109-2.408,0.241-4.429,0.354-5.997c0-0.03,0.011-0.063,0.011-0.104
			c0.121-1.723,0.231-2.884,0.286-3.379c0-0.063,0.012-0.114,0.012-0.178c0.011-0.038,0.014-0.077,0.013-0.115
			c0.516,1.454,1.161,2.863,1.934,4.211c0.077,0.158,0.165,0.305,0.242,0.443c2.967,5.289,8.22,11.434,17.474,16.262
			c0,0,0.342,0.631,0.989,1.769c4.622,8.128,9.745,15.986,15.342,23.533c9.969,13.34,23.134,27.282,35.5,28.878
			c0,0,0.044-0.021,0.121-0.063c0.265-0.137,0.967-0.493,2.033-1.072c7.699-4.358,15.004-9.329,21.837-14.855l0.021,0.012v0.011
			C206.14,85.871,206.041,85.95,206.041,85.95z"/>
	</g>
	<g id="Capa_10" transform="translate(194.965 304.593)">
		<path id="Trazado_134" fill="#FFFFFF" d="M229.697,33.587l-52.059,42.672L132.5,114.656l-16.482,12.097
			c-0.643,0.172-1.305,0.256-1.969,0.253l-0.273-0.029c-0.107-0.021-0.212-0.058-0.309-0.105c-0.045-0.02-0.086-0.044-0.12-0.073
			c-0.142-0.103-0.22-0.265-0.209-0.433v-2.725c0,0,0.1-0.084,0.284-0.231v-0.011l0.79-0.662c0.105-0.101,0.217-0.197,0.33-0.287
			c2.476-2.107,7.748-6.648,11.979-10.688c0.33-0.326,0.67-0.651,0.988-0.968c1.056-1.041,2.089-2.041,3.075-3.01
			c0.989-0.968,1.956-1.894,2.893-2.787c0.593-0.574,1.187-1.148,1.758-1.692c11.899-11.415,19.21-17.674,30.167-26.657
			c0.001-0.01,0.005-0.017,0.011-0.021c0.077-0.055,0.165-0.128,0.242-0.191c1.846-1.516,3.857-3.124,5.924-4.764
			c0.222-0.182,0.44-0.349,0.67-0.525c8.476-6.745,17.529-13.941,18.563-17.316c0.031-0.098,0.053-0.194,0.063-0.297
			c0.089-0.34,0.018-0.7-0.198-0.988c-0.002-0.014-0.012-0.027-0.021-0.042l-0.3-0.114l-0.2-0.085l-1.429-0.587l-0.275-0.116
			l12.386-9.92L229.697,33.587z"/>
		<path id="Trazado_135" fill="#252139" d="M241.938,29.842l-13.32,10.352l-0.352,0.304l-0.022,0.021
			c-8.166,7.133-43.366,36.032-64.191,54.674c-1.405,1.262-2.847,2.524-4.317,3.787c-0.474,0.411-0.956,0.819-1.44,1.231
			c-0.055,0.042-0.1,0.085-0.151,0.126c-0.121,0.096-0.242,0.2-0.363,0.304c-20.3,17.162-44.641,33.654-44.641,33.654
			c-0.166,0.099-0.319,0.183-0.476,0.255c-0.011,0-0.021,0.012-0.044,0.012c-0.451,0.167-0.779,0.287-0.956,0.346h-0.011
			c-0.062,0.021-0.123,0.031-0.188,0.032c-0.03,0-0.063,0.011-0.1,0.011c-1.33,0.115-1.528-1.146-1.528-1.884
			c-0.001-0.176,0.013-0.35,0.033-0.525v-0.009l0.033-0.223c0.021-0.074,0.033-0.146,0.055-0.211
			c0.493-1.679,1.44-3.202,2.747-4.419l0.638-0.884c0.035,0.03,0.076,0.055,0.12,0.073c0.099,0.05,0.201,0.086,0.311,0.104
			c0.076,0.012,0.176,0.021,0.273,0.03c0.664,0.003,1.326-0.081,1.968-0.253l16.483-12.097l45.14-38.401l52.061-42.671l-28.85,8.09
			l-12.389,9.922l0.275,0.116c-0.4-0.147-0.857-0.316-1.363-0.498l12.946-11.171c0,0,3.319-0.852,7.165-2.01l0.021-0.012h0.033
			l33.4-9.816c0.387,0.196,0.684,0.522,0.835,0.915C241.866,29.355,241.922,29.596,241.938,29.842z"/>
	</g>
	<g id="Capa_11" transform="translate(64.908 265.436)">
		<path id="Trazado_136" fill="#16162E" d="M168.531,266.819c-0.209,0-0.418-0.01-0.626-0.01
			c-27.453-0.474-40.973-7.418-49.721-18.317c-12.55-15.632-9.715-36.82,0.363-71.168c9.528-22.24,13.111-61.124,13.111-61.124
			c-0.077-54.967-14.21-70.14-16.134-77.323c-1.925-7.186,3.209-8.942,3.209-8.942c17.945-1.231,29.484,21.304,29.484,21.304
			s-2.473,23.932-1.923,45.236c0.232,2.384,0.802,4.728,1.692,6.966c0.002,0.038-0.002,0.077-0.014,0.113
			c0,0.062-0.011,0.117-0.011,0.18c-0.064,1.221-0.165,2.337-0.286,3.379c0,0.041-0.011,0.073-0.011,0.104
			c-2.154,17.687-12.023,12.076-12.023,12.076c-2.473-1.053-2.537,0.157-2.537,0.157c-1.373,9.048-0.463,27.521-16.762,77.49
			c-21.244,69.613,50.348,67.394,50.348,67.394c-0.198,0.543-0.02,1.15,0.448,1.516
			C167.555,266.238,168.021,266.565,168.531,266.819z"/>
	</g>
	<g id="Capa_12" transform="translate(121.872 485.468)">
		<path id="Trazado_137" fill="#16162E" d="M230.092,194.681H128.259c17.584-31.739,47.07-29.982,47.07-29.982l-1.23-117.301
			h-62.234c-7.969-4.211,10.166-17.231,10.166-17.231c7.968-4.21,19.78-4.785,19.78-4.785l0.013-0.012
			c1.187,0.432,2.406,0.82,3.646,1.167c0,0,1.088-0.966,2.9-2.816c0.438-0.455,0.923-0.959,1.451-1.516
			c4.923-0.737,11.012-2.36,38.7-1.455c14.979,0.592,26.165,3.283,34.319,6.45c13.894,5.386,18.98,12.129,18.98,12.129l0.361,8.068
			h-60.537l0.273,117.48C217.998,169.432,230.092,194.681,230.092,194.681z"/>
	</g>
	<g id="Capa_14" transform="translate(161.852 384.455)">
		<path id="Trazado_138" fill="#2FAEE5" d="M221.98,111.592c0,0-1.33,5.66-5.726,5.786c-4.396,0.125-7.146-0.401-11.4,2.229
			c0,0-14.737,8.259-22,8.607c-8.155-3.169-19.342-5.86-34.321-6.45c-27.685-0.903-33.771,0.717-38.698,1.455
			c11.741-12.617,20.84-27.278,26.793-43.187c1.53-4.383,3.688-8.541,6.405-12.361c-0.804-4.794-0.845-9.68-0.121-14.486l0.032,0.02
			c0,0.738,0.2,1.999,1.528,1.882c0.033,0,0.065-0.009,0.1-0.009l0.022,0.021c0,0,0.055-0.021,0.165-0.055h0.011
			c0.176-0.062,0.506-0.18,0.956-0.346c0.022,0,0.033-0.013,0.044-0.013c0.309-0.104,0.67-0.242,1.088-0.4s0.893-0.326,1.418-0.535
			c2.64-1.01,6.603-2.63,11.64-4.944c0.987-0.452,2.031-0.937,3.108-1.453c1.132-0.538,2.311-1.104,3.528-1.713
			c0.868-0.433,1.758-0.885,2.682-1.347c6.563-3.326,14.155-7.513,22.441-12.678c1.286-0.789,2.594-1.621,3.923-2.473
			c0.033-0.021,0.077-0.053,0.11-0.074c0.264-0.157,0.525-0.337,0.79-0.505c0.746-0.484,1.507-0.977,2.265-1.484
			c1.132-0.735,2.273-1.503,3.429-2.283c0,0,0.177,0.095,0.506,0.306c0.069,0.042,0.139,0.088,0.2,0.138
			c0.104,0.064,0.204,0.135,0.3,0.21c0.024,0.021,0.052,0.038,0.077,0.054c0.165,0.127,0.363,0.274,0.563,0.442
			c0.1,0.073,0.209,0.168,0.316,0.262c0.674,0.572,1.313,1.179,1.912,1.82c0.638,0.671,1.33,1.473,2.056,2.408
			c4.988,6.46,11.659,19.652,13.857,45.207c0,0,0.549,8.069,0.747,16.886c0,0.221,0.011,0.431,0.011,0.653
			C222.881,100.188,222.782,107.542,221.98,111.592z"/>
		<path id="Trazado_139" fill="#38ABE2" d="M146.864,54.288c0.418-0.146,0.893-0.336,1.418-0.535
			C147.754,53.963,147.282,54.142,146.864,54.288z"/>
		<path id="Trazado_140" fill="#38ABE2" d="M159.92,48.809c1-0.465,2.03-0.947,3.107-1.453
			C161.952,47.872,160.909,48.356,159.92,48.809z"/>
		<path id="Trazado_141" fill="#38ABE2" d="M191.681,31.618c1.286-0.8,2.6-1.621,3.923-2.473
			C194.275,29.997,192.967,30.828,191.681,31.618z"/>
	</g>
	<g id="Capa_15" transform="translate(197.789 378.522)">
		<path id="Trazado_142" fill="#388CCB" d="M162.832,33.017c-0.758,0.506-1.517,0.999-2.264,1.485
			c-0.267,0.168-0.528,0.346-0.791,0.504c-0.033,0.021-0.077,0.055-0.11,0.074c-1.33,0.852-2.638,1.682-3.923,2.473
			c-8.286,5.169-15.88,9.354-22.441,12.677c-0.923,0.464-1.813,0.916-2.682,1.348c-1.22,0.609-2.4,1.175-3.528,1.713
			c-1.077,0.515-2.121,1.001-3.107,1.453c-5.033,2.314-9,3.934-11.641,4.944c-0.525,0.21-1,0.39-1.418,0.537
			c-0.418,0.158-0.777,0.295-1.088,0.4c0.154-0.073,0.311-0.158,0.476-0.255c0,0,24.343-16.493,44.641-33.655
			c0.121-0.103,0.242-0.21,0.363-0.304c0.055-0.042,0.1-0.084,0.151-0.126c0.484-0.412,0.97-0.82,1.44-1.231
			C159.491,27.243,161.515,29.966,162.832,33.017z"/>
	</g>
	<g id="Capa_16" transform="translate(254.212 382.807)">
		<path id="Trazado_143" fill="#D06182" d="M139.699,85.362l-9.264,9.647l-0.058-0.179c0-0.223-0.011-0.434-0.011-0.654
			c-0.2-8.816-0.747-16.885-0.747-16.885c-2.2-25.555-8.869-38.747-13.856-45.206c-0.727-0.938-1.419-1.735-2.057-2.409
			c-0.601-0.641-1.237-1.249-1.912-1.82c-0.107-0.096-0.22-0.189-0.316-0.262c-0.2-0.168-0.389-0.315-0.563-0.442
			c-0.025-0.016-0.053-0.032-0.077-0.053c-0.096-0.075-0.193-0.145-0.3-0.211c-0.063-0.05-0.131-0.096-0.2-0.138
			c-0.328-0.213-0.506-0.306-0.506-0.306l1.847-1.577l0.011,0.011c0.021,0.02,0.077,0.084,0.152,0.168
			c0.013,0.011,0.021,0.021,0.021,0.032c0.021,0.02,0.044,0.053,0.066,0.074c0.021,0.02,0.021,0.02,0.021,0.028
			c0.102,0.116,0.22,0.265,0.374,0.444c0.033,0.042,0.066,0.072,0.1,0.114c0.034,0.042,0.046,0.054,0.066,0.086l0.066,0.096
			c0.063,0.074,0.132,0.157,0.197,0.241c0.029,0.033,0.058,0.068,0.077,0.106c0.029,0.023,0.056,0.053,0.077,0.084
			c0.066,0.096,0.154,0.2,0.231,0.304c0.075,0.105,0.187,0.232,0.272,0.358c0.02,0.029,0.035,0.058,0.058,0.085l0.03,0.031
			c0.11,0.146,0.223,0.305,0.343,0.463s0.254,0.358,0.398,0.547c0.147,0.188,0.275,0.389,0.429,0.6
			c0.103,0.136,0.2,0.271,0.303,0.42c0.283,0.411,0.582,0.853,0.897,1.314c0.11,0.169,0.22,0.339,0.341,0.516
			c0.146,0.221,0.286,0.44,0.44,0.67c1.209,1.852,2.594,4.116,4.1,6.796c0.223,0.392,0.44,0.779,0.659,1.189
			c0.242,0.433,0.484,0.873,0.728,1.326c0.429,0.811,0.879,1.663,1.33,2.546c0.473,0.915,0.942,1.862,1.429,2.853
			c0.242,0.493,0.495,1,0.734,1.515c0.209,0.431,0.418,0.873,0.625,1.325c0.286,0.61,0.582,1.231,0.868,1.874
			c1.771,3.859,3.603,8.194,5.451,13.034c0.528,1.389,1.066,2.809,1.594,4.282c0.267,0.724,0.528,1.471,0.791,2.229
			c0.266,0.761,0.538,1.514,0.803,2.298C137.072,76.796,138.402,80.943,139.699,85.362z"/>
	</g>
	<g id="Capa_20" transform="translate(256.047 340.772)">
		<path id="Trazado_144" fill="#F49F85" d="M309.987,45.467c0,0-16.748,4.48-35.979,8.166c-0.229,0.041-0.462,0.084-0.698,0.126
			h-71.98c0,0-5.22,1.398-6.318,8.416c0,0-30.959,44.889-57.146,65.223c-1.3-4.418-2.627-8.564-3.945-12.435
			c-0.264-0.777-0.525-1.544-0.8-2.296c-0.271-0.75-0.527-1.505-0.791-2.229c-0.527-1.474-1.064-2.894-1.594-4.282
			c-1.847-4.84-3.683-9.174-5.451-13.035c-0.286-0.642-0.582-1.263-0.868-1.872c-0.208-0.452-0.417-0.896-0.626-1.326
			c-0.241-0.514-0.495-1.021-0.734-1.516c-0.483-0.988-0.955-1.936-1.431-2.852c-0.45-0.883-0.897-1.735-1.33-2.546
			c-0.239-0.453-0.481-0.894-0.725-1.326c-0.22-0.41-0.439-0.799-0.659-1.189c-1.506-2.68-2.89-4.943-4.1-6.796
			c-0.154-0.232-0.302-0.454-0.44-0.67c-0.121-0.181-0.229-0.349-0.341-0.517c-0.319-0.464-0.615-0.904-0.899-1.314
			c-0.101-0.147-0.198-0.288-0.301-0.42c-0.153-0.213-0.297-0.411-0.429-0.6c-0.146-0.19-0.275-0.384-0.4-0.547
			s-0.229-0.315-0.341-0.464l-0.033-0.031c-0.02-0.026-0.037-0.055-0.055-0.084c-0.088-0.126-0.188-0.243-0.275-0.358
			c-0.087-0.116-0.164-0.21-0.229-0.304c-0.021-0.031-0.049-0.061-0.077-0.084c-0.021-0.039-0.048-0.073-0.077-0.106
			c-0.064-0.084-0.132-0.167-0.199-0.241l-0.064-0.098c-0.022-0.03-0.044-0.052-0.066-0.084c-0.021-0.03-0.063-0.074-0.1-0.116
			c-0.154-0.179-0.275-0.326-0.374-0.442c0-0.01-0.013-0.019-0.022-0.028c-0.011-0.014-0.044-0.056-0.063-0.074
			c0-0.012-0.013-0.021-0.022-0.032c-0.076-0.084-0.132-0.147-0.153-0.168l-0.012-0.012c0,0,0.077-0.042,0.242-0.127
			c0.021-0.011,0.033-0.02,0.056-0.02c0.053-0.037,0.106-0.07,0.164-0.098c0.103-0.054,0.222-0.104,0.354-0.18l0.132-0.063
			c0.039-0.022,0.079-0.044,0.121-0.063c0.143-0.074,0.309-0.158,0.482-0.255c0.109-0.052,0.23-0.115,0.354-0.178
			c0.363-0.192,0.791-0.4,1.253-0.642c0.121-0.063,0.242-0.115,0.363-0.181c0.044-0.021,0.075-0.042,0.121-0.063
			c0.163-0.086,0.341-0.17,0.517-0.264l1.121-0.567c0.78-0.399,1.646-0.842,2.583-1.305c0.407-0.211,0.835-0.42,1.265-0.641
			c0.318-0.158,0.647-0.326,0.988-0.483c0.088-0.043,0.176-0.098,0.265-0.14l0.758-0.382c0.153-0.073,0.302-0.147,0.451-0.23
			c0.032-0.012,0.065-0.032,0.102-0.043c0.132-0.073,0.273-0.139,0.418-0.21c0.088-0.043,0.176-0.084,0.264-0.139
			c0.021,0,0.04-0.008,0.056-0.021c0.038-0.018,0.074-0.034,0.109-0.055c0.407-0.2,0.824-0.411,1.242-0.619
			c0.165-0.073,0.33-0.157,0.495-0.242c0.6-0.296,1.209-0.599,1.835-0.905c0.308-0.146,0.626-0.306,0.943-0.464
			c1.716-0.84,3.527-1.723,5.406-2.64c0.431-0.2,0.857-0.41,1.301-0.618c0.442-0.212,0.867-0.422,1.318-0.642
			c0.066-0.03,0.146-0.063,0.209-0.098c0.519-0.255,1.044-0.508,1.583-0.756c0.209-0.104,0.43-0.201,0.638-0.306
			c0.396-0.181,0.791-0.37,1.188-0.569l0.462-0.22c0.154-0.063,0.309-0.147,0.462-0.222c0.033-0.011,0.056-0.011,0.077-0.031
			c0.024-0.012,0.051-0.021,0.077-0.03c0.132-0.063,0.264-0.127,0.385-0.192c0.139-0.056,0.271-0.117,0.4-0.189
			c0.316-0.137,0.626-0.295,0.942-0.442c0.2-0.096,0.4-0.18,0.594-0.274c0.431-0.21,0.868-0.41,1.31-0.618
			c0.242-0.105,0.495-0.23,0.747-0.349c0.075-0.03,0.147-0.066,0.22-0.104c0.033-0.011,0.056-0.021,0.088-0.031
			c0.791-0.368,1.595-0.745,2.4-1.115c0.143-0.072,0.286-0.138,0.438-0.211c0.659-0.295,1.318-0.6,1.979-0.916h0.011
			c0.659-0.304,1.319-0.609,1.989-0.915c0.57-0.253,1.132-0.504,1.7-0.766l1.253-0.567c0.824-0.368,1.658-0.746,2.495-1.115
			c1.561-0.694,3.127-1.388,4.698-2.082c0.944-0.411,1.899-0.82,2.848-1.231c1.1-0.474,2.198-0.938,3.285-1.409
			c1-0.423,2-0.832,2.987-1.247c0.937-0.388,1.857-0.765,2.78-1.147c1.2-0.486,2.385-0.957,3.562-1.43
			c0.912-0.357,1.813-0.706,2.699-1.055l0.165-0.063c0.495-0.199,1-0.39,1.495-0.568s0.979-0.368,1.475-0.557
			c0.979-0.368,1.955-0.727,2.91-1.072c0.463-0.17,0.925-0.328,1.373-0.486c0.418-0.158,0.85-0.304,1.267-0.452
			c0.024-0.002,0.053-0.01,0.076-0.02c0.507-0.182,1.012-0.349,1.507-0.516c0.91-0.307,1.812-0.61,2.688-0.895
			c2.103-0.661,4.103-1.261,5.99-1.766c0.506-0.128,1.011-0.266,1.506-0.385c0.3-0.084,0.593-0.146,0.879-0.22
			c0.626-0.147,1.242-0.287,1.835-0.412c0.748-0.157,1.463-0.295,2.154-0.41c0.418-0.074,0.813-0.137,1.21-0.192
			c0.397-0.054,0.78-0.095,1.154-0.137c2.258,0.272,4.42,1.04,6.317,2.241c1.76,1.032,11.483,5.103,25.894,8.68
			c14.102,3.545,28.584,5.519,43.159,5.88c4.151,0.074,8.385,0.011,12.682-0.23C301.338,43.362,308.209,45.213,309.987,45.467z"/>
		<path id="Trazado_145" fill="none" stroke="#F49F85" stroke-width="0.25" stroke-miterlimit="10" d="M113.378,65.086
			c0.033-0.011,0.066-0.031,0.103-0.041c-0.044,0.02-0.077,0.041-0.121,0.062c-0.121,0.063-0.242,0.116-0.363,0.181
			C113.125,65.226,113.246,65.15,113.378,65.086z"/>
		<path id="Trazado_146" fill="none" stroke="#F49F85" stroke-width="0.25" stroke-miterlimit="10" d="M134.031,54.861
			c0.286-0.139,0.582-0.273,0.879-0.421c-0.451,0.221-0.879,0.432-1.318,0.641c-0.438,0.209-0.866,0.421-1.301,0.62
			C132.862,55.429,133.431,55.145,134.031,54.861z"/>
		<path id="Trazado_147" fill="none" stroke="#F49F85" stroke-width="0.25" stroke-miterlimit="10" d="M146.676,48.896
			c-0.801,0.369-1.601,0.747-2.398,1.115c-0.033,0.011-0.055,0.022-0.088,0.031c0.646-0.307,1.3-0.599,1.943-0.904
			C146.314,49.064,146.503,48.98,146.676,48.896z"/>
	</g>
	<g id="Capa_22" transform="translate(244.859 306.296)">
		<path id="Trazado_148" fill="none" stroke="#F6AB8B" stroke-width="0.25" stroke-miterlimit="10" d="M124.664,99.521
			c-0.044,0.02-0.077,0.041-0.121,0.062l0.021-0.021C124.598,99.552,124.631,99.53,124.664,99.521z"/>
		<path id="Trazado_149" fill="none" stroke="#F6AB8B" stroke-width="0.25" stroke-miterlimit="10" d="M197.289,28.235
			c-5.814,8.016-17.122,25.647-22,47.329c-0.945,0.412-1.9,0.82-2.849,1.231c-1.569,0.695-3.138,1.389-4.697,2.082
			c-0.837,0.37-1.673,0.747-2.495,1.115l-1.253,0.57c-0.571,0.261-1.134,0.515-1.7,0.765c-0.67,0.305-1.33,0.609-1.989,0.915h-0.011
			c-0.659,0.315-1.319,0.619-1.979,0.915c-0.151,0.074-0.3,0.138-0.438,0.212c-0.177,0.083-0.363,0.167-0.539,0.241
			c-0.626,0.295-1.242,0.59-1.857,0.873c-0.031,0.011-0.055,0.021-0.088,0.031c-0.07,0.04-0.145,0.074-0.22,0.104
			c-0.253,0.115-0.506,0.242-0.747,0.349c-0.44,0.211-0.879,0.41-1.308,0.621c-0.2,0.095-0.4,0.179-0.596,0.271
			c-0.316,0.147-0.626,0.306-0.942,0.443c-0.13,0.071-0.265,0.136-0.4,0.189c-0.121,0.063-0.253,0.128-0.385,0.191
			c-0.026,0.009-0.054,0.021-0.077,0.031c-0.021,0.021-0.044,0.021-0.077,0.032c-0.153,0.074-0.308,0.158-0.462,0.22l-0.462,0.223
			c-0.396,0.198-0.791,0.389-1.188,0.565c-0.21,0.106-0.43,0.201-0.638,0.307c-0.538,0.256-1.065,0.508-1.583,0.758
			c-0.064,0.03-0.143,0.063-0.209,0.097c-0.3,0.146-0.593,0.286-0.879,0.421c-0.153,0.072-0.3,0.145-0.439,0.22
			c-0.438,0.211-0.866,0.423-1.301,0.621c-1.879,0.916-3.69,1.798-5.406,2.641c-0.317,0.157-0.638,0.315-0.943,0.463
			c-0.626,0.305-1.231,0.61-1.835,0.904c-0.165,0.084-0.33,0.168-0.495,0.242c-0.418,0.212-0.835,0.421-1.242,0.621
			c-0.035,0.019-0.071,0.036-0.109,0.052c-0.016,0.014-0.033,0.021-0.056,0.021c-0.088,0.053-0.176,0.095-0.264,0.137
			c-0.145,0.073-0.286,0.138-0.418,0.21c-0.033,0.013-0.066,0.032-0.102,0.042c-0.152,0.086-0.301,0.157-0.45,0.231l-0.759,0.384
			c-0.089,0.042-0.177,0.096-0.265,0.136c-0.341,0.158-0.67,0.327-0.989,0.485c-0.429,0.221-0.854,0.433-1.264,0.643
			c-0.936,0.462-1.8,0.902-2.583,1.302l-1.121,0.568c-0.176,0.098-0.352,0.181-0.517,0.264c-0.044,0.021-0.077,0.043-0.121,0.063
			c-0.121,0.063-0.242,0.116-0.363,0.18c-0.462,0.242-0.89,0.453-1.253,0.641c-0.121,0.064-0.242,0.127-0.354,0.181
			c-0.177,0.097-0.342,0.18-0.482,0.254c-0.042,0.018-0.082,0.039-0.121,0.063l-0.132,0.063c-0.132,0.072-0.253,0.126-0.354,0.181
			c-0.058,0.025-0.111,0.059-0.165,0.095c-0.021,0-0.03,0.011-0.055,0.021c-0.165,0.084-0.242,0.126-0.242,0.126l-1.835,1.567
			c-1.151,0.778-2.3,1.547-3.429,2.283c-1.315-3.052-3.342-5.776-5.924-7.962c1.473-1.263,2.912-2.526,4.316-3.787
			c20.826-18.643,56.027-47.54,64.192-54.674l0.022-0.021l0.352-0.304l13.32-10.352C193.813,28.149,195.562,28.182,197.289,28.235z"
			/>
	</g>
	<g id="Capa_44" transform="translate(244.86 306.296)">
		<path id="Trazado_150" fill="#F6AB8B" d="M388.903,55.966c-0.021,0.168-0.043,0.326-0.074,0.484
			c-1.683,10.361-11.232,14.969-13.748,16.349c-0.165,0.095-0.33,0.179-0.507,0.272h-0.013c-3.474,1.653-6.628,3.857-9.33,6.521
			c-2.758,2.842-2.986,6.881-2.934,8.638h-17.3c-3.843-2.802-8.185-4.915-12.813-6.241c-2.908-0.857-5.892-1.476-8.912-1.851
			c-1.328-0.158-2.1-0.2-2.1-0.2c-1.78-0.252-8.648-2.106-14.836-2.23c-4.3,0.242-8.528,0.307-12.682,0.232
			c-14.575-0.362-29.059-2.336-43.158-5.882c-14.407-3.576-24.136-7.647-25.895-8.679c-1.896-1.201-4.061-1.97-6.316-2.24
			c-0.374,0.04-0.759,0.083-1.154,0.135c-0.396,0.054-0.792,0.117-1.21,0.192c-0.692,0.115-1.406,0.253-2.154,0.411
			c-0.593,0.125-1.209,0.263-1.835,0.411c-0.286,0.072-0.582,0.137-0.879,0.22c-0.495,0.117-1,0.253-1.506,0.384
			c-1.89,0.505-3.89,1.104-5.99,1.768c-0.879,0.286-1.777,0.588-2.688,0.893c-0.495,0.171-1,0.34-1.507,0.515
			c-0.023,0.014-0.052,0.02-0.076,0.021c-0.418,0.145-0.85,0.295-1.267,0.452c-0.446,0.158-0.911,0.315-1.374,0.484
			c-0.955,0.348-1.934,0.705-2.908,1.073c-0.495,0.191-0.979,0.368-1.476,0.557s-1,0.368-1.495,0.566l-0.165,0.063
			c-0.89,0.349-1.791,0.693-2.698,1.053c-1.178,0.474-2.362,0.947-3.563,1.432c-0.923,0.383-1.846,0.757-2.78,1.148
			c-0.987,0.41-1.987,0.82-2.987,1.244c-1.09,0.474-2.188,0.938-3.285,1.411c-0.945,0.411-1.9,0.819-2.849,1.229
			c-1.569,0.696-3.138,1.389-4.698,2.085c-0.834,0.368-1.67,0.745-2.494,1.115l-1.253,0.567c-0.571,0.262-1.134,0.515-1.7,0.765
			c-0.67,0.307-1.33,0.61-1.989,0.916h-0.011c-0.659,0.314-1.318,0.621-1.979,0.915c-0.151,0.074-0.3,0.137-0.438,0.211
			c-0.176,0.083-0.363,0.168-0.539,0.241c-0.626,0.297-1.242,0.589-1.857,0.874c-0.032,0.011-0.055,0.021-0.088,0.031
			c-0.069,0.04-0.145,0.075-0.22,0.105c-0.253,0.113-0.506,0.242-0.747,0.346c-0.439,0.213-0.879,0.413-1.309,0.621
			c-0.199,0.096-0.399,0.179-0.595,0.273c-0.316,0.146-0.626,0.304-0.942,0.442c-0.129,0.072-0.265,0.138-0.4,0.191
			c-0.121,0.063-0.253,0.126-0.385,0.19c-0.026,0.009-0.053,0.02-0.077,0.03c-0.021,0.021-0.044,0.021-0.077,0.032
			c-0.153,0.073-0.308,0.157-0.462,0.22l-0.462,0.222c-0.396,0.2-0.791,0.39-1.188,0.567c-0.21,0.104-0.431,0.2-0.639,0.306
			c-0.539,0.256-1.064,0.507-1.583,0.758c-0.063,0.031-0.143,0.062-0.209,0.096c-0.3,0.146-0.593,0.288-0.879,0.422
			c-0.154,0.073-0.3,0.146-0.438,0.219c-0.439,0.215-0.867,0.424-1.302,0.622c-1.879,0.916-3.69,1.798-5.405,2.641
			c-0.318,0.158-0.639,0.314-0.944,0.464c-0.626,0.304-1.23,0.609-1.835,0.902c-0.165,0.086-0.33,0.171-0.495,0.243
			c-0.418,0.212-0.835,0.421-1.242,0.619c-0.035,0.021-0.071,0.038-0.109,0.054c-0.016,0.016-0.033,0.021-0.056,0.021
			c-0.088,0.052-0.176,0.095-0.264,0.136c-0.146,0.074-0.286,0.139-0.418,0.213c-0.033,0.011-0.066,0.029-0.103,0.041
			c-0.151,0.084-0.3,0.158-0.449,0.231l-0.76,0.382c-0.088,0.043-0.176,0.097-0.264,0.14c-0.341,0.156-0.67,0.325-0.989,0.483
			c-0.429,0.221-0.854,0.432-1.264,0.641c-0.935,0.462-1.8,0.904-2.583,1.305l-1.121,0.568c-0.176,0.095-0.353,0.179-0.517,0.262
			c-0.045,0.021-0.077,0.042-0.121,0.063c-0.121,0.063-0.242,0.116-0.363,0.18c-0.462,0.243-0.89,0.454-1.253,0.641
			c-0.121,0.063-0.242,0.128-0.354,0.182c-0.177,0.095-0.342,0.18-0.482,0.252c-0.042,0.02-0.082,0.04-0.121,0.063l-0.132,0.063
			c-0.133,0.073-0.253,0.127-0.354,0.18c-0.058,0.027-0.111,0.061-0.164,0.097c-0.021,0-0.032,0.012-0.056,0.021
			c-0.165,0.084-0.242,0.126-0.242,0.126l-1.836,1.555c-1.151,0.778-2.3,1.547-3.429,2.282c-1.315-3.051-3.342-5.774-5.924-7.961
			c1.473-1.263,2.912-2.526,4.316-3.787c20.834-18.644,56.034-47.541,64.196-54.674l0.022-0.021l0.352-0.304l13.32-10.352
			c1.77,0.012,3.517,0.042,5.242,0.098c20.229,0.557,40.292,3.698,59.65,9.342c14.089,4.169,27.893,9.184,41.322,15.01l0.033,0.012
			c6.33,2.671,12.463,5.362,18.5,7.963h0.021c4.672,2.021,9.274,3.978,13.85,5.841c0.429,0.169,0.854,0.326,1.284,0.494
			c0.627,0.232,1.23,0.465,1.848,0.684c0.637,0.231,1.286,0.464,1.923,0.67c0.374,0.127,0.748,0.253,1.122,0.368
			c1.209,0.392,2.418,0.738,3.66,1.032c0.252,0.063,0.495,0.126,0.747,0.181c0.517,0.113,1.032,0.22,1.561,0.326
			c0.418,0.073,0.849,0.146,1.286,0.22c0.088,0.012,0.188,0.032,0.273,0.043c0.222,0.031,0.45,0.063,0.683,0.097
			c0.891,0.116,1.791,0.211,2.715,0.274c5.827,0.295,11.663-0.389,17.243-2.021c1.982-0.527,3.926-1.184,5.813-1.967
			c9.508-3.945,12.5-9.396,13.034-10.563c0.076-0.146,0.11-0.222,0.11-0.222c1.407-2.346,2.2-4.281,3.361-4.403
			C388.488,51.493,389.224,53.473,388.903,55.966z"/>
		<path id="Trazado_151" fill="none" stroke="#F6AB8B" stroke-width="0.25" stroke-miterlimit="10" d="M321.173,79.941
			c0,0-16.749,4.481-35.98,8.165c-0.229,0.042-0.463,0.084-0.698,0.126h-27.798c-3.601-4.768-12.552-14.182-30.946-21.482
			c-5.506-2.177-9.343-3.756-11.979-4.87c0.748-0.158,1.463-0.296,2.154-0.411c0.418-0.073,0.813-0.139,1.21-0.191
			c0.396-0.055,0.78-0.096,1.154-0.136c2.258,0.27,4.42,1.037,6.316,2.24c1.759,1.031,11.484,5.103,25.895,8.679
			c14.102,3.545,28.584,5.52,43.157,5.882c4.153,0.073,8.387,0.01,12.684-0.232C312.525,77.837,319.393,79.689,321.173,79.941z"/>
	</g>
	<g id="Capa_21" transform="translate(451.831 310.285)">
		<path id="Trazado_152" fill="#F6AB8B" d="M147.821,42.468c-0.971,0.827-1.63,1.936-1.879,3.159
			c-0.311,1.073-1.419,2.302-2.583,3.998c-0.254,0.368-0.509,0.757-0.759,1.176c-0.702,1.138-1.266,2.349-1.674,3.61
			c-0.419,1.276-0.674,2.598-0.757,3.935c-0.021,0.388-0.055,0.756-0.088,1.102c-0.065,0.717-0.144,1.37-0.229,1.946
			c-0.648,4.421-1.78,5.134-1.78,5.134c-0.231-0.029-0.462-0.062-0.682-0.096c-0.09-0.011-0.188-0.03-0.274-0.043
			c-0.438-0.074-0.868-0.146-1.286-0.22c-0.525-0.105-1.044-0.212-1.562-0.326c-0.253-0.055-0.494-0.115-0.746-0.181
			c-1.242-0.295-2.451-0.642-3.66-1.032c-0.374-0.115-0.748-0.241-1.122-0.368c-0.638-0.21-1.286-0.441-1.923-0.67
			c-0.615-0.22-1.22-0.453-1.849-0.684c-0.429-0.168-0.854-0.326-1.285-0.494c-4.57-1.862-9.188-3.809-13.848-5.841
			c1.813,0.085,5.603-0.147,13.023-4.545c1.004-0.597,1.969-1.251,2.89-1.956c5.967-4.462,10.363-10.678,11.671-13.635
			c1.506-3.418,1.103-4.882,1.103-4.882c0-4.302,2.473-3.535,2.473-3.535c1.923,1.011,0.736,3.219,0.736,3.219
			c0.777-0.452,3.404,0.59,2.075,2.472c1.119-0.125,2.135,0.642,2.267,1.712c0.019,0.151,0.019,0.304,0,0.454
			c2.647,0.4,1.1,3.641,1.187,3.651C151.182,39.752,147.821,42.468,147.821,42.468z"/>
	</g>
	<g id="Capa_43" transform="translate(466.965 337.903)">
		<path id="Trazado_153" fill="#F49F85" d="M125.797,26.788c-0.421,1.277-0.675,2.6-0.758,3.934
			c-0.021,0.391-0.055,0.758-0.088,1.104c-0.064,0.717-0.143,1.368-0.23,1.946c-0.646,4.421-1.778,5.135-1.778,5.135
			c-0.231-0.03-0.462-0.063-0.683-0.097c-0.088-0.011-0.188-0.031-0.273-0.043c-0.439-0.073-0.868-0.146-1.286-0.22
			c-0.526-0.105-1.044-0.213-1.562-0.328c-0.252-0.053-0.494-0.113-0.746-0.179c-1.242-0.295-2.451-0.641-3.66-1.032
			c-0.374-0.115-0.748-0.241-1.122-0.368c-0.638-0.21-1.286-0.442-1.923-0.67c-0.615-0.22-1.221-0.452-1.848-0.684
			C113.301,34.07,120.708,31.124,125.797,26.788z"/>
	</g>
	<g id="Capa_18" transform="translate(377.301 189.289)">
		<path id="Trazado_154" fill="#16162E" d="M297.767,144.45l-175.839-0.938c0,0-10.616-44.531-12.09-85.561
			c0,0,0.328-18.01,16.483-19.284c0,0,87.194-7.723,152.035-4.913c0,0,28.938,0,29.3,22.438
			C308.023,78.635,302.536,132.048,297.767,144.45z"/>
	</g>
	<g id="Capa_24" transform="translate(389.389 304.586)">
		<path id="Trazado_155" fill="#D1E0F3" d="M246.434,58.251l-2.132-0.095c0.032-0.158,0.056-0.316,0.077-0.484
			c0.316-2.489-0.407-4.494-1.584-4.355c-1.178,0.138-1.954,2.06-3.362,4.402c0,0-0.033,0.075-0.11,0.223l-17.108-0.726
			l-17.166-0.726c0.253-0.42,0.506-0.81,0.758-1.177c1.165-1.695,2.271-2.926,2.583-3.999c0.249-1.22,0.909-2.33,1.879-3.158
			c0,0,3.362-2.714-0.562-2.934c-0.089-0.014,1.463-3.255-1.188-3.652c0.127-1.072-0.679-2.039-1.798-2.161
			c-0.155-0.018-0.313-0.018-0.467,0.001c1.329-1.881-1.303-2.923-2.077-2.473c0,0,1.187-2.209-0.736-3.22
			c0,0-2.473-0.765-2.473,3.536c0,0,0.406,1.463-1.103,4.882c-1.308,2.956-5.697,9.174-11.671,13.636l-34.431-1.464l-0.033-0.012
			c-13.431-5.83-27.231-10.844-41.321-15.014c-1.128-3.626-1.985-7.325-2.569-11.069l175.839,0.937
			C288.064,60.765,246.434,58.251,246.434,58.251z"/>
	</g>
	<g id="Capa_19" transform="translate(463.763 312.93)">
		<path id="Trazado_156" fill="#3C3055" d="M120.737,33.074c-0.001,2.883-2.439,5.216-5.45,5.215
			c-3.009-0.001-5.446-2.336-5.446-5.217c0-2.88,2.438-5.215,5.447-5.215C114.689,32.765,117.848,33.073,120.737,33.074z"/>
	</g>
	<g id="Capa_25" transform="translate(481.846 334.134)">
		<path id="Trazado_157" fill="none" d="M133.83,38.965l-22.451-1.328l-1.539-0.096c0.09-0.574,0.166-1.231,0.23-1.947
			c0.033-0.347,0.066-0.714,0.088-1.104c0.084-1.335,0.339-2.655,0.758-3.932c0.406-1.262,0.97-2.474,1.672-3.61l17.166,0.726
			C129.751,27.673,130.401,35.777,133.83,38.965z"/>
	</g>
	<g id="Capa_28" transform="translate(497.315 353.232)">
		<path id="Trazado_158" fill="#C3E2F7" d="M118.285,41.289h-8.438c-0.055-1.757,0.176-5.798,2.934-8.638
			c2.701-2.665,5.856-4.871,9.33-6.521h0.014C122.121,26.129,124.627,34.697,118.285,41.289z"/>
	</g>
	<g id="Capa_29" transform="translate(465.767 362.55)">
		<path id="Trazado_159" fill="#C3E2F7" d="M124.095,31.975h-13.717c-1.027-2.065-0.675-4.519,0.898-6.241
			C115.909,27.058,120.249,29.173,124.095,31.975z"/>
	</g>
	<g id="Capa_26" transform="translate(480.065 345.2)">
		<path id="Trazado_160" fill="none" d="M135.61,27.898c-1.888,0.782-3.829,1.439-5.813,1.966
			c-5.581,1.633-11.417,2.316-17.243,2.021c-0.923-0.064-1.823-0.158-2.715-0.274c0,0,1.132-0.715,1.777-5.135l1.539,0.097
			L135.61,27.898z"/>
	</g>
	<g id="Capa_27" transform="translate(340.944 369.07)">
		<path id="Trazado_161" fill="#16162E" d="M335.682,32.56v9.91H109.839l0.273-8.595c1.102-7.018,6.318-8.416,6.318-8.416h208.534
			C334.583,25.457,335.682,32.56,335.682,32.56z"/>
		<rect id="Rectángulo_73" x="166.439" y="42.464" fill="#D1E0F3" width="39.017" height="259.675"/>
		<rect id="Rectángulo_74" x="205.585" y="42.464" fill="#B4C2D1" width="48.313" height="259.675"/>
		<rect id="Rectángulo_75" x="253.9" y="42.464" fill="#D1E0F3" width="39.648" height="259.675"/>
		<rect id="Rectángulo_76" x="293.549" y="42.466" fill="#B4C2D1" width="22.902" height="259.672"/>
		<rect id="Rectángulo_77" x="127.425" y="42.464" fill="#B4C2D1" width="39.014" height="259.675"/>
		<rect id="Rectángulo_78" x="127.425" y="302.139" fill="#16162E" width="189.026" height="11.219"/>
	</g>
</g>
</svg>
